<svg width="1200" height="648" viewBox="0 0 1200 648" fill="none" xmlns="http://www.w3.org/2000/svg">
<g clip-path="url(#clip0)">
<path opacity="0.15" d="M1200 415.625C1200.01 433.216 1197.6 450.725 1192.81 467.653C1188.19 483.973 1181.39 499.596 1172.6 514.101C1172.6 566.653 1137.13 612.073 1085.63 633.681C1064.12 642.62 1041.03 647.184 1017.73 647.108H227.801C185.58 647.108 146.454 635.716 114.367 616.311C105.184 610.782 96.4725 604.506 88.3216 597.545C52.6572 566.895 30.5453 524.538 30.5453 477.755C10.5294 446.933 -0.0839762 410.953 -0.000117226 374.202C-0.000117226 297.251 45.5139 231.083 110.717 201.87C119.375 197.993 128.321 194.794 137.475 192.304C140.713 191.423 143.986 190.632 147.294 189.933C156.111 188.055 165.055 186.828 174.052 186.262C177.304 186.059 180.573 185.944 183.86 185.916H185.664C189.294 185.916 192.892 186.041 196.468 186.251L197.643 184.258C199.084 181.853 200.559 179.472 202.07 177.115C204.797 172.821 207.657 168.59 210.65 164.423C213.783 160.024 217.052 155.695 220.458 151.437L221.329 150.388C223.259 147.982 225.231 145.604 227.245 143.255C233.538 135.919 240.182 128.804 247.175 121.909C322.815 47.7688 441.315 0.0415039 574.531 0.0415039C678.189 0.0415039 772.941 28.9401 845.517 76.6883C873.012 61.1288 904.072 52.9645 935.664 52.9925C1038.19 52.9925 1121.33 137.297 1121.33 241.29C1121.31 247.87 1120.96 254.445 1120.28 260.989C1144.99 278.483 1165.14 301.665 1179.01 328.578C1192.89 355.491 1200.08 385.346 1200 415.625Z" fill="#42E7E1"/>
<path opacity="0.2" d="M247.196 121.867V143.213H227.266C233.511 135.885 240.154 128.769 247.196 121.867Z" fill="#42E7E1"/>
<path opacity="0.2" d="M283.773 116.455H257.014V143.214H283.773V116.455Z" fill="#42E7E1"/>
<path opacity="0.2" d="M320.339 116.455H293.581V143.214H320.339V116.455Z" fill="#42E7E1"/>
<path opacity="0.2" d="M356.916 116.455H330.157V143.214H356.916V116.455Z" fill="#42E7E1"/>
<path opacity="0.2" d="M393.483 116.455H366.724V143.214H393.483V116.455Z" fill="#42E7E1"/>
<path opacity="0.2" d="M430.059 116.455H403.301V143.214H430.059V116.455Z" fill="#42E7E1"/>
<path d="M466.636 116.455H439.878V143.214H466.636V116.455Z" fill="#42E7E1"/>
<path opacity="0.2" d="M503.203 116.455H476.444V143.214H503.203V116.455Z" fill="#42E7E1"/>
<path opacity="0.2" d="M539.78 116.455H513.021V143.214H539.78V116.455Z" fill="#42E7E1"/>
<path opacity="0.2" d="M576.346 116.455H549.587V143.214H576.346V116.455Z" fill="#42E7E1"/>
<path d="M612.923 116.455H586.164V143.214H612.923V116.455Z" fill="#42E7E1"/>
<path opacity="0.2" d="M649.5 116.455H622.741V143.214H649.5V116.455Z" fill="#42E7E1"/>
<path opacity="0.2" d="M686.067 116.455H659.308V143.214H686.067V116.455Z" fill="#42E7E1"/>
<path opacity="0.2" d="M722.643 116.455H695.885V143.214H722.643V116.455Z" fill="#42E7E1"/>
<path opacity="0.2" d="M759.22 116.455H732.461V143.214H759.22V116.455Z" fill="#42E7E1"/>
<path opacity="0.2" d="M795.787 116.455H769.028V143.214H795.787V116.455Z" fill="#42E7E1"/>
<path opacity="0.2" d="M832.364 116.455H805.605V143.214H832.364V116.455Z" fill="#42E7E1"/>
<path d="M868.93 116.455H842.171V143.214H868.93V116.455Z" fill="#42E7E1"/>
<path d="M905.507 116.455H878.748V143.214H905.507V116.455Z" fill="#42E7E1"/>
<path opacity="0.2" d="M942.084 116.455H915.325V143.214H942.084V116.455Z" fill="#42E7E1"/>
<path opacity="0.2" d="M978.651 116.455H951.892V143.214H978.651V116.455Z" fill="#42E7E1"/>
<path d="M1015.23 116.455H988.469V143.214H1015.23V116.455Z" fill="#42E7E1"/>
<path d="M1051.79 116.455H1025.03V143.214H1051.79V116.455Z" fill="#42E7E1"/>
<path d="M210.629 164.412V177.104H202.049C204.776 172.783 207.636 168.552 210.629 164.412Z" fill="#42E7E1"/>
<path opacity="0.2" d="M247.196 150.346H220.437V177.105H247.196V150.346Z" fill="#42E7E1"/>
<path d="M283.773 150.346H257.014V177.105H283.773V150.346Z" fill="#42E7E1"/>
<path opacity="0.2" d="M320.339 150.346H293.581V177.105H320.339V150.346Z" fill="#42E7E1"/>
<path opacity="0.7" d="M356.916 150.346H330.157V177.105H356.916V150.346Z" fill="#42E7E1"/>
<path opacity="0.2" d="M393.483 150.346H366.724V177.105H393.483V150.346Z" fill="#42E7E1"/>
<path opacity="0.4" d="M430.059 150.346H403.301V177.105H430.059V150.346Z" fill="#42E7E1"/>
<path d="M466.636 150.346H439.878V177.105H466.636V150.346Z" fill="#42E7E1"/>
<path opacity="0.4" d="M503.203 150.346H476.444V177.105H503.203V150.346Z" fill="#42E7E1"/>
<path opacity="0.2" d="M539.78 150.346H513.021V177.105H539.78V150.346Z" fill="#42E7E1"/>
<path opacity="0.4" d="M576.346 150.346H549.587V177.105H576.346V150.346Z" fill="#42E7E1"/>
<path d="M612.923 150.346H586.164V177.105H612.923V150.346Z" fill="#42E7E1"/>
<path opacity="0.4" d="M649.5 150.346H622.741V177.105H649.5V150.346Z" fill="#42E7E1"/>
<path opacity="0.4" d="M686.067 150.346H659.308V177.105H686.067V150.346Z" fill="#42E7E1"/>
<path opacity="0.2" d="M722.643 150.346H695.885V177.105H722.643V150.346Z" fill="#42E7E1"/>
<path opacity="0.4" d="M759.22 150.346H732.461V177.105H759.22V150.346Z" fill="#42E7E1"/>
<path opacity="0.4" d="M795.787 150.346H769.028V177.105H795.787V150.346Z" fill="#42E7E1"/>
<path opacity="0.2" d="M832.364 150.346H805.605V177.105H832.364V150.346Z" fill="#42E7E1"/>
<path opacity="0.2" d="M868.93 150.346H842.171V177.105H868.93V150.346Z" fill="#42E7E1"/>
<path opacity="0.4" d="M905.507 150.346H878.748V177.105H905.507V150.346Z" fill="#42E7E1"/>
<path opacity="0.2" d="M942.084 150.346H915.325V177.105H942.084V150.346Z" fill="#42E7E1"/>
<path d="M978.651 150.346H951.892V177.105H978.651V150.346Z" fill="#42E7E1"/>
<path d="M1015.23 150.346H988.469V177.105H1015.23V150.346Z" fill="#42E7E1"/>
<path d="M1051.79 150.346H1025.03V177.105H1051.79V150.346Z" fill="#42E7E1"/>
<path opacity="0.2" d="M137.476 192.304V211.007H110.717V201.871C119.375 197.993 128.322 194.795 137.476 192.304Z" fill="#42E7E1"/>
<path opacity="0.2" d="M174.052 186.262V211.007H147.294V189.934L174.052 186.262Z" fill="#42E7E1"/>
<path d="M210.619 184.248H183.86V211.007H210.619V184.248Z" fill="#42E7E1"/>
<path opacity="0.7" d="M247.196 184.248H220.437V211.007H247.196V184.248Z" fill="#42E7E1"/>
<path d="M283.773 184.248H257.014V211.007H283.773V184.248Z" fill="#42E7E1"/>
<path opacity="0.7" d="M320.339 184.248H293.581V211.007H320.339V184.248Z" fill="#42E7E1"/>
<path opacity="0.7" d="M356.916 184.248H330.157V211.007H356.916V184.248Z" fill="#42E7E1"/>
<path opacity="0.2" d="M393.483 184.248H366.724V211.007H393.483V184.248Z" fill="#42E7E1"/>
<path opacity="0.4" d="M430.059 184.248H403.301V211.007H430.059V184.248Z" fill="#42E7E1"/>
<path opacity="0.4" d="M466.636 184.248H439.878V211.007H466.636V184.248Z" fill="#42E7E1"/>
<path d="M503.203 184.248H476.444V211.007H503.203V184.248Z" fill="#42E7E1"/>
<path opacity="0.2" d="M539.78 184.248H513.021V211.007H539.78V184.248Z" fill="#42E7E1"/>
<path opacity="0.4" d="M576.346 184.248H549.587V211.007H576.346V184.248Z" fill="#42E7E1"/>
<path d="M612.923 184.248H586.164V211.007H612.923V184.248Z" fill="#42E7E1"/>
<path opacity="0.2" d="M649.5 184.248H622.741V211.007H649.5V184.248Z" fill="#42E7E1"/>
<path opacity="0.4" d="M686.067 184.248H659.308V211.007H686.067V184.248Z" fill="#42E7E1"/>
<path opacity="0.2" d="M722.643 184.248H695.885V211.007H722.643V184.248Z" fill="#42E7E1"/>
<path d="M759.22 184.248H732.461V211.007H759.22V184.248Z" fill="#42E7E1"/>
<path opacity="0.2" d="M795.787 184.248H769.028V211.007H795.787V184.248Z" fill="#42E7E1"/>
<path opacity="0.7" d="M832.364 184.248H805.605V211.007H832.364V184.248Z" fill="#42E7E1"/>
<path opacity="0.7" d="M868.93 184.248H842.171V211.007H868.93V184.248Z" fill="#42E7E1"/>
<path opacity="0.4" d="M905.507 184.248H878.748V211.007H905.507V184.248Z" fill="#42E7E1"/>
<path opacity="0.2" d="M942.084 184.248H915.325V211.007H942.084V184.248Z" fill="#42E7E1"/>
<path d="M978.651 184.248H951.892V211.007H978.651V184.248Z" fill="#42E7E1"/>
<path d="M1015.23 184.248H988.469V211.007H1015.23V184.248Z" fill="#42E7E1"/>
<path d="M1051.79 184.248H1025.03V211.007H1051.79V184.248Z" fill="#42E7E1"/>
<path opacity="0.2" d="M137.476 218.14H110.717V244.899H137.476V218.14Z" fill="#42E7E1"/>
<path opacity="0.2" d="M174.052 218.14H147.294V244.899H174.052V218.14Z" fill="#42E7E1"/>
<path opacity="0.2" d="M210.619 218.14H183.86V244.899H210.619V218.14Z" fill="#42E7E1"/>
<path opacity="0.2" d="M247.196 218.14H220.437V244.899H247.196V218.14Z" fill="#42E7E1"/>
<path d="M283.773 218.14H257.014V244.899H283.773V218.14Z" fill="#42E7E1"/>
<path opacity="0.7" d="M320.339 218.14H293.581V244.899H320.339V218.14Z" fill="#42E7E1"/>
<path opacity="0.7" d="M356.916 218.14H330.157V244.899H356.916V218.14Z" fill="#42E7E1"/>
<path opacity="0.2" d="M393.483 218.14H366.724V244.899H393.483V218.14Z" fill="#42E7E1"/>
<path opacity="0.2" d="M430.059 218.14H403.301V244.899H430.059V218.14Z" fill="#42E7E1"/>
<path opacity="0.4" d="M466.636 218.14H439.878V244.899H466.636V218.14Z" fill="#42E7E1"/>
<path opacity="0.4" d="M503.203 218.14H476.444V244.899H503.203V218.14Z" fill="#42E7E1"/>
<path d="M539.78 218.14H513.021V244.899H539.78V218.14Z" fill="#42E7E1"/>
<path opacity="0.2" d="M576.346 218.14H549.587V244.899H576.346V218.14Z" fill="#42E7E1"/>
<path opacity="0.4" d="M612.923 218.14H586.164V244.899H612.923V218.14Z" fill="#42E7E1"/>
<path opacity="0.4" d="M649.5 218.14H622.741V244.899H649.5V218.14Z" fill="#42E7E1"/>
<path opacity="0.4" d="M686.067 218.14H659.308V244.899H686.067V218.14Z" fill="#42E7E1"/>
<path opacity="0.4" d="M722.643 218.14H695.885V244.899H722.643V218.14Z" fill="#42E7E1"/>
<path opacity="0.2" d="M759.22 218.14H732.461V244.899H759.22V218.14Z" fill="#42E7E1"/>
<path opacity="0.2" d="M795.787 218.14H769.028V244.899H795.787V218.14Z" fill="#42E7E1"/>
<path opacity="0.2" d="M832.364 218.14H805.605V244.899H832.364V218.14Z" fill="#42E7E1"/>
<path opacity="0.2" d="M868.93 218.14H842.171V244.899H868.93V218.14Z" fill="#42E7E1"/>
<path opacity="0.7" d="M905.507 218.14H878.748V244.899H905.507V218.14Z" fill="#42E7E1"/>
<path opacity="0.7" d="M942.084 218.14H915.325V244.899H942.084V218.14Z" fill="#42E7E1"/>
<path opacity="0.4" d="M978.651 218.14H951.892V244.899H978.651V218.14Z" fill="#42E7E1"/>
<path opacity="0.2" d="M1015.23 218.14H988.469V244.899H1015.23V218.14Z" fill="#42E7E1"/>
<path d="M1051.79 218.14H1025.03V244.899H1051.79V218.14Z" fill="#42E7E1"/>
<path opacity="0.2" d="M137.476 252.042H110.717V278.801H137.476V252.042Z" fill="#42E7E1"/>
<path opacity="0.2" d="M174.052 252.042H147.294V278.801H174.052V252.042Z" fill="#42E7E1"/>
<path opacity="0.4" d="M210.619 252.042H183.86V278.801H210.619V252.042Z" fill="#42E7E1"/>
<path opacity="0.2" d="M247.196 252.042H220.437V278.801H247.196V252.042Z" fill="#42E7E1"/>
<path opacity="0.2" d="M283.773 252.042H257.014V278.801H283.773V252.042Z" fill="#42E7E1"/>
<path opacity="0.7" d="M320.339 252.042H293.581V278.801H320.339V252.042Z" fill="#42E7E1"/>
<path opacity="0.7" d="M356.916 252.042H330.157V278.801H356.916V252.042Z" fill="#42E7E1"/>
<path opacity="0.2" d="M393.483 252.042H366.724V278.801H393.483V252.042Z" fill="#42E7E1"/>
<path opacity="0.2" d="M430.059 252.042H403.301V278.801H430.059V252.042Z" fill="#42E7E1"/>
<path opacity="0.4" d="M466.636 252.042H439.878V278.801H466.636V252.042Z" fill="#42E7E1"/>
<path d="M503.203 252.042H476.444V278.801H503.203V252.042Z" fill="#42E7E1"/>
<path opacity="0.2" d="M539.78 252.042H513.021V278.801H539.78V252.042Z" fill="#42E7E1"/>
<path d="M576.346 252.042H549.587V278.801H576.346V252.042Z" fill="#42E7E1"/>
<path d="M612.923 252.042H586.164V278.801H612.923V252.042Z" fill="#42E7E1"/>
<path d="M649.5 252.042H622.741V278.801H649.5V252.042Z" fill="#42E7E1"/>
<path opacity="0.2" d="M686.067 252.042H659.308V278.801H686.067V252.042Z" fill="#42E7E1"/>
<path d="M722.643 252.042H695.885V278.801H722.643V252.042Z" fill="#42E7E1"/>
<path opacity="0.2" d="M759.22 252.042H732.461V278.801H759.22V252.042Z" fill="#42E7E1"/>
<path opacity="0.2" d="M795.787 252.042H769.028V278.801H795.787V252.042Z" fill="#42E7E1"/>
<path opacity="0.2" d="M832.364 252.042H805.605V278.801H832.364V252.042Z" fill="#42E7E1"/>
<path opacity="0.2" d="M868.93 252.042H842.171V278.801H868.93V252.042Z" fill="#42E7E1"/>
<path opacity="0.2" d="M905.507 252.042H878.748V278.801H905.507V252.042Z" fill="#42E7E1"/>
<path opacity="0.7" d="M942.084 252.042H915.325V278.801H942.084V252.042Z" fill="#42E7E1"/>
<path opacity="0.2" d="M978.651 252.042H951.892V278.801H978.651V252.042Z" fill="#42E7E1"/>
<path opacity="0.2" d="M1015.23 252.042H988.469V278.801H1015.23V252.042Z" fill="#42E7E1"/>
<path d="M1051.79 252.042H1025.03V278.801H1051.79V252.042Z" fill="#42E7E1"/>
<path opacity="0.2" d="M137.476 285.934H110.717V312.693H137.476V285.934Z" fill="#42E7E1"/>
<path opacity="0.2" d="M174.052 285.934H147.294V312.693H174.052V285.934Z" fill="#42E7E1"/>
<path opacity="0.2" d="M210.619 285.934H183.86V312.693H210.619V285.934Z" fill="#42E7E1"/>
<path opacity="0.4" d="M247.196 285.934H220.437V312.693H247.196V285.934Z" fill="#42E7E1"/>
<path opacity="0.2" d="M283.773 285.934H257.014V312.693H283.773V285.934Z" fill="#42E7E1"/>
<path opacity="0.2" d="M320.339 285.934H293.581V312.693H320.339V285.934Z" fill="#42E7E1"/>
<path opacity="0.7" d="M356.916 285.934H330.157V312.693H356.916V285.934Z" fill="#42E7E1"/>
<path opacity="0.2" d="M393.483 285.934H366.724V312.693H393.483V285.934Z" fill="#42E7E1"/>
<path opacity="0.2" d="M430.059 285.934H403.301V312.693H430.059V285.934Z" fill="#42E7E1"/>
<path opacity="0.2" d="M466.636 285.934H439.878V312.693H466.636V285.934Z" fill="#42E7E1"/>
<path d="M503.203 285.934H476.444V312.693H503.203V285.934Z" fill="#42E7E1"/>
<path opacity="0.2" d="M539.78 285.934H513.021V312.693H539.78V285.934Z" fill="#42E7E1"/>
<path d="M576.346 285.934H549.587V312.693H576.346V285.934Z" fill="#42E7E1"/>
<path d="M612.923 285.934H586.164V312.693H612.923V285.934Z" fill="#42E7E1"/>
<path opacity="0.2" d="M649.5 285.934H622.741V312.693H649.5V285.934Z" fill="#42E7E1"/>
<path opacity="0.2" d="M686.067 285.934H659.308V312.693H686.067V285.934Z" fill="#42E7E1"/>
<path opacity="0.2" d="M722.643 285.934H695.885V312.693H722.643V285.934Z" fill="#42E7E1"/>
<path opacity="0.2" d="M759.22 285.934H732.461V312.693H759.22V285.934Z" fill="#42E7E1"/>
<path opacity="0.2" d="M795.787 285.934H769.028V312.693H795.787V285.934Z" fill="#42E7E1"/>
<path opacity="0.2" d="M832.364 285.934H805.605V312.693H832.364V285.934Z" fill="#42E7E1"/>
<path opacity="0.2" d="M868.93 285.934H842.171V312.693H868.93V285.934Z" fill="#42E7E1"/>
<path opacity="0.2" d="M905.507 285.934H878.748V312.693H905.507V285.934Z" fill="#42E7E1"/>
<path opacity="0.2" d="M942.084 285.934H915.325V312.693H942.084V285.934Z" fill="#42E7E1"/>
<path opacity="0.2" d="M978.651 285.934H951.892V312.693H978.651V285.934Z" fill="#42E7E1"/>
<path opacity="0.4" d="M1015.23 285.934H988.469V312.693H1015.23V285.934Z" fill="#42E7E1"/>
<path d="M1051.79 285.934H1025.03V312.693H1051.79V285.934Z" fill="#42E7E1"/>
<path opacity="0.7" d="M137.476 319.836H110.717V346.595H137.476V319.836Z" fill="#42E7E1"/>
<path opacity="0.7" d="M174.052 319.836H147.294V346.595H174.052V319.836Z" fill="#42E7E1"/>
<path opacity="0.7" d="M210.619 319.836H183.86V346.595H210.619V319.836Z" fill="#42E7E1"/>
<path opacity="0.7" d="M247.196 319.836H220.437V346.595H247.196V319.836Z" fill="#42E7E1"/>
<path opacity="0.7" d="M283.773 319.836H257.014V346.595H283.773V319.836Z" fill="#42E7E1"/>
<path opacity="0.2" d="M320.339 319.836H293.581V346.595H320.339V319.836Z" fill="#42E7E1"/>
<path opacity="0.2" d="M356.916 319.836H330.157V346.595H356.916V319.836Z" fill="#42E7E1"/>
<path opacity="0.2" d="M393.483 319.836H366.724V346.595H393.483V319.836Z" fill="#42E7E1"/>
<path opacity="0.2" d="M430.059 319.836H403.301V346.595H430.059V319.836Z" fill="#42E7E1"/>
<path opacity="0.2" d="M466.636 319.836H439.878V346.595H466.636V319.836Z" fill="#42E7E1"/>
<path opacity="0.2" d="M503.203 319.836H476.444V346.595H503.203V319.836Z" fill="#42E7E1"/>
<path d="M539.78 319.836H513.021V346.595H539.78V319.836Z" fill="#42E7E1"/>
<path opacity="0.2" d="M576.346 319.836H549.587V346.595H576.346V319.836Z" fill="#42E7E1"/>
<path opacity="0.2" d="M612.923 319.836H586.164V346.595H612.923V319.836Z" fill="#42E7E1"/>
<path opacity="0.2" d="M649.5 319.836H622.741V346.595H649.5V319.836Z" fill="#42E7E1"/>
<path d="M686.067 319.836H659.308V346.595H686.067V319.836Z" fill="#42E7E1"/>
<path opacity="0.2" d="M722.643 319.836H695.885V346.595H722.643V319.836Z" fill="#42E7E1"/>
<path opacity="0.2" d="M759.22 319.836H732.461V346.595H759.22V319.836Z" fill="#42E7E1"/>
<path opacity="0.2" d="M795.787 319.836H769.028V346.595H795.787V319.836Z" fill="#42E7E1"/>
<path opacity="0.2" d="M832.364 319.836H805.605V346.595H832.364V319.836Z" fill="#42E7E1"/>
<path opacity="0.2" d="M868.93 319.836H842.171V346.595H868.93V319.836Z" fill="#42E7E1"/>
<path opacity="0.2" d="M905.507 319.836H878.748V346.595H905.507V319.836Z" fill="#42E7E1"/>
<path opacity="0.2" d="M942.084 319.836H915.325V346.595H942.084V319.836Z" fill="#42E7E1"/>
<path opacity="0.2" d="M978.651 319.836H951.892V346.595H978.651V319.836Z" fill="#42E7E1"/>
<path opacity="0.2" d="M1015.23 319.836H988.469V346.595H1015.23V319.836Z" fill="#42E7E1"/>
<path d="M1051.79 319.836H1025.03V346.595H1051.79V319.836Z" fill="#42E7E1"/>
<path d="M770.476 418.279C790.677 418.279 807.053 401.903 807.053 381.702C807.053 361.502 790.677 345.125 770.476 345.125C750.275 345.125 733.899 361.502 733.899 381.702C733.899 401.903 750.275 418.279 770.476 418.279Z" fill="#767D9F"/>
<path d="M768.577 335.171C772.227 351.101 775.325 367.15 777.871 383.318C778.636 388.122 779.318 393.189 777.577 397.73C776.119 401.517 773.15 404.475 770.822 407.79C768.493 411.105 766.731 415.353 768.147 419.15C769.563 422.947 773.696 425.024 777.64 426.094C788.927 429.136 800.958 426.923 812.192 423.629C817.279 422.32 822.156 420.3 826.678 417.629C831.441 414.608 835.343 410.412 838.93 406.091C855.304 386.234 866.025 362.402 876.115 338.716C869.631 339.307 863.1 338.345 857.061 335.912C851.022 333.479 845.648 329.644 841.385 324.723C837.252 319.867 834.22 313.101 836.549 307.164C829.72 310.909 821.612 311.161 814.259 313.72C809.699 315.462 805.309 317.621 801.147 320.171C796.126 323.073 791.133 326.031 786.168 329.045C780.493 332.465 775.175 335.507 768.577 335.171Z" fill="#AE6E79"/>
<path d="M845.077 362.633C838.668 375.105 830.329 387.094 818.423 394.521C806.517 401.947 790.489 403.961 778.563 396.619C772.689 393.031 768.241 387.577 763.112 382.982C757.982 378.388 751.573 374.454 744.682 375.052C737.087 375.713 731.14 381.64 726.052 387.314C718.332 395.937 710.874 404.926 705.409 415.133C694.919 434.748 692.433 457.678 692.895 479.916C693.357 502.154 696.577 524.276 696.65 546.514C696.755 573.87 692.119 601.007 687.43 627.954C730.542 622.647 773.706 634.248 816.913 638.643C844.563 641.486 872.423 641.423 900.22 641.349C905.108 641.349 910.311 641.223 914.381 638.517C916.869 636.702 918.881 634.313 920.245 631.552C924.084 624.472 925.626 616.395 926.696 608.412C929.413 588.251 929.497 567.839 929.57 547.489C929.759 498.189 929.937 448.709 923.675 399.797C922.133 387.765 920.161 375.671 915.545 364.416C910.93 353.161 903.399 342.807 892.867 336.776C886.101 332.895 870.42 326.14 862.448 330.052C853.5 334.416 849.367 354.283 845.077 362.633Z" fill="#767D9F"/>
<path d="M848.266 501.85C846.64 471.43 840.021 438.965 854.108 411.965C857.57 405.336 845.15 397.06 848.989 390.64C853.675 382.813 857.227 374.362 859.542 365.539C860.339 362.507 860.979 359.297 860.224 356.255C858.829 350.706 853.343 347.402 848.685 344.025C843.545 340.29 840.902 328.909 839.245 322.752C837.587 316.595 852.43 324.011 858.399 321.818C866.685 318.787 877.217 320.696 885.482 323.769C890.098 325.469 895.112 325.616 900.031 325.741C909.587 325.993 919.175 326.234 928.657 325.06C932.916 324.525 937.185 323.717 941.465 323.958C952.385 324.577 961.878 332.046 968.339 340.878C974.801 349.71 978.913 360 984.21 369.567C988.626 377.539 993.892 385.07 997.657 393.367C1000.99 400.71 1003.1 408.598 1005.19 416.444L1010.57 436.574C1011.51 439.453 1011.96 442.471 1011.89 445.5C1011.62 448.72 1010.19 451.72 1008.74 454.584C1003.27 465.198 996.708 475.213 989.161 484.469C977.843 498.346 964.101 510.86 957.378 527.476C954.755 533.948 953.297 540.829 951.965 547.689C946.594 575.126 942.777 602.845 940.531 630.713C928.275 625.042 915.427 620.746 902.224 617.906C895.642 616.498 888.989 615.447 882.294 614.759C876.43 614.15 868.867 615.304 863.287 613.71C853.951 611.056 852.923 595.269 851.507 587.004C849.241 573.839 848.79 560.444 848.706 547.144C848.601 532.018 849.073 516.923 848.266 501.85Z" fill="#4C4981"/>
<path d="M643.248 444.965C647.664 470.14 652.531 495.388 662.129 519.042C661.888 519.273 661.647 519.483 661.406 519.692C660.556 520.416 659.675 521.098 658.752 521.79C656.601 523.301 654.241 524.581 652.458 526.553C651.783 527.307 651.25 528.178 650.885 529.122C650.555 529.86 650.385 530.659 650.385 531.467C650.385 532.275 650.555 533.074 650.885 533.811C645.881 536.025 640.07 535.343 634.458 535.133C629.622 534.955 624.934 535.133 621.052 537.787C615.661 541.5 614.035 548.633 613.164 555.115C612.843 557.479 612.566 559.846 612.336 562.217C612.112 564.42 611.93 566.629 611.79 568.846C611.315 576.18 611.248 583.534 611.591 590.874C611.647 592.217 611.72 593.56 611.811 594.902C594.671 594.493 579.052 585.556 564.273 576.871C560.895 574.888 557.413 572.801 555.22 569.528C553.2 566.314 552.345 562.504 552.797 558.734C552.797 558.199 552.892 557.685 552.965 557.14C553.435 554.027 554.24 550.974 555.367 548.035C559.991 535.515 566.807 523.918 575.497 513.787C579.252 509.402 583.479 505.112 585.231 499.605C585.996 497.203 586.28 494.654 587.056 492.262C590.538 481.899 603.105 477 607.406 466.941C608.455 464.538 608.937 461.906 610.238 459.598C611.409 457.68 612.919 455.992 614.696 454.615C615.462 453.976 616.259 453.357 617.045 452.738C624.416 446.962 631.518 440.86 638.35 434.434C639.622 433.238 640.881 432.028 642.126 430.804C641.96 435.552 642.336 440.303 643.248 444.965Z" fill="#4C4981"/>
<path d="M748.951 370.51C747.441 372.105 745.804 373.605 744.199 375.094L743.769 375.482L742.07 377.056C738.986 379.718 736.316 382.825 734.15 386.276L733.972 386.57C728.622 396.147 730.605 407.937 732.094 418.815C733.942 432.37 734.773 446.044 734.58 459.724C734.308 478.605 732.084 497.36 732.042 516.22C732.042 520.5 732.136 524.769 732.325 529.049C732.629 536.003 733.154 542.947 733.783 549.891C734.465 557.507 735.283 565.112 736.049 572.717C736.657 578.601 737.234 584.475 737.717 590.349C737.958 593.391 738.189 596.423 738.378 599.465C738.598 603.031 738.776 606.608 738.881 610.175C738.955 612.44 738.997 614.696 738.997 616.961C738.997 618.252 738.997 619.531 738.997 620.811C738.997 623.266 738.93 625.713 738.797 628.154C738.657 631.294 738.444 634.44 738.157 637.594C737.832 641.024 737.255 644.769 734.843 647.182C734.696 647.329 734.538 647.465 734.381 647.601L730.983 647.182C707.554 644.377 683.902 643.955 660.388 645.923C660.902 642.377 661.374 638.842 661.836 635.287C662.045 633.608 662.255 631.919 662.455 630.231C662.685 628.301 662.906 626.37 663.115 624.44C663.357 622.342 663.577 620.245 663.787 618.147C664.332 612.741 664.811 607.332 665.224 601.919C665.832 594.024 666.294 586.115 666.608 578.192C666.762 574.409 666.881 570.622 666.965 566.832C667.084 562.133 667.14 557.43 667.133 552.724C667.133 548.15 667.094 543.57 667.017 538.982C667.017 537.472 666.955 535.961 666.829 534.461C666.738 533.111 666.553 531.768 666.273 530.444C665.494 527.39 664.441 524.413 663.126 521.549C662.895 521.003 662.675 520.5 662.455 519.923C662.329 519.64 662.213 519.346 662.098 519.063C668.14 513.682 672.441 506.475 676.573 499.384C683.276 487.961 690.136 476.035 691.259 462.839C692.381 449.643 685.825 434.822 673.217 430.794C669.787 429.745 666.157 429.451 662.622 428.832C659.287 428.245 652.332 426.912 648.472 424.521C646.374 426.675 644.276 428.79 642.178 430.867C642.306 427.698 643.08 424.589 644.455 421.731L645.944 421.804C645.823 421.468 645.766 421.112 645.776 420.755C645.776 419.633 646.552 418.364 648.21 416.958C653.15 412.762 660.923 411.828 664.038 406.154C665.339 403.794 665.559 400.982 666.608 398.507C669.619 391.447 678.262 388.846 683.465 383.203C688.668 377.559 689.969 369.566 694.175 363.273C697.317 358.677 701.675 355.045 706.762 352.783C707.182 352.584 707.612 352.384 708.042 352.206C716.748 348.482 727.091 347.633 736.112 347.654C739.615 347.654 748.699 347.759 753.147 349.531C753.868 349.789 754.529 350.193 755.087 350.717C759.829 355.877 752.455 366.776 748.951 370.51Z" fill="#4C4981"/>
<path d="M644.811 420.996C652.914 418.557 661.421 417.753 669.838 418.629C678.255 419.506 686.413 422.047 693.839 426.105C701.392 430.301 708.168 436.154 712.322 443.706C718.563 455.035 718.29 468.692 717.85 481.626C717.63 488.098 717.346 494.801 714.493 500.612C711.189 507.336 704.958 511.951 698.602 515.727C694.619 518.268 690.257 520.155 685.679 521.318C678.63 522.85 671.308 521.549 664.207 520.269C656.486 518.843 648.2 517.122 642.839 511.374C639.693 508.038 637.972 503.706 636.273 499.468C633.832 493.35 631.385 487.238 628.93 481.133C624.682 470.528 623.245 461.706 628.857 451.374C631.406 446.664 634.521 442.259 637.039 437.517C638.297 435.105 642.808 421.615 644.811 420.996Z" fill="#4C4981"/>
<path d="M1085.66 602.329V633.692C1064.15 642.631 1041.07 647.195 1017.77 647.119H734.874C734.727 647.266 734.57 647.402 734.413 647.538L731.014 647.119H227.801C185.58 647.119 146.455 635.727 114.367 616.322V568.437L356.381 540.503H356.57L497.507 552.44L533.979 555.587L552.923 557.192L592.133 560.517L612.304 562.227L641.675 564.724L645.808 565.07L666.976 566.864L695.696 569.224L736.08 572.643L803.402 578.36L850.762 582.378L928.532 588.975L943.322 590.224L944.916 590.36L946.301 590.475L965.832 592.133L987.273 593.958L989.759 594.168L1085.66 602.329Z" fill="#504F60"/>
<path d="M801.399 601.175L498.105 549.409L486.346 608.874L625.374 625.521L668.182 630.881L785.937 607.689L801.399 601.175Z" fill="#9C9CA1"/>
<path d="M644.402 627.902L796.353 599.339C797.113 599.193 797.896 599.218 798.646 599.41C799.396 599.603 800.093 599.96 800.689 600.454C801.284 600.948 801.763 601.568 802.091 602.27C802.418 602.971 802.587 603.736 802.584 604.51C802.587 605.738 802.16 606.928 801.376 607.873C800.592 608.818 799.501 609.458 798.294 609.681L649.899 637.468L644.402 627.902Z" fill="#9C9CA1"/>
<path d="M710.318 538.08C715.049 537.64 719.843 536.895 724.101 534.797C729.346 532.185 733.426 527.685 738.283 524.371C748.961 517.028 763.248 516.042 775.489 520.259C787.731 524.476 797.947 533.507 805.101 544.29C809.853 551.476 813.419 560.643 810.063 568.573C808.911 570.997 807.459 573.267 805.741 575.329L796.993 586.762C795.331 589.166 793.331 591.317 791.056 593.15C787.783 595.531 783.713 596.507 779.706 597.094C769.059 598.647 758.224 597.766 747.493 598.479C729.063 599.706 711.063 605.643 692.591 605.444C681.975 605.329 671.496 603.189 661.122 601.049L615.21 591.608C607.217 589.972 598.185 587.58 594.419 580.332C592.731 577.07 592.416 573.294 592.217 569.622C591.671 559.511 592.217 548.266 599.224 540.976C605.811 534.136 616.227 531.976 624.094 526.92C633.724 520.72 636.902 522.724 647.056 527.381C666.865 536.352 688.66 540.038 710.318 538.08Z" fill="#AE6E79"/>
<path opacity="0.05" d="M710.318 538.08C715.049 537.64 719.843 536.895 724.101 534.797C729.346 532.185 733.426 527.685 738.283 524.371C748.961 517.028 763.248 516.042 775.489 520.259C787.731 524.476 797.947 533.507 805.101 544.29C809.853 551.476 813.419 560.643 810.063 568.573C808.911 570.997 807.459 573.267 805.741 575.329L796.993 586.762C795.331 589.166 793.331 591.317 791.056 593.15C787.783 595.531 783.713 596.507 779.706 597.094C769.059 598.647 758.224 597.766 747.493 598.479C729.063 599.706 711.063 605.643 692.591 605.444C681.975 605.329 671.496 603.189 661.122 601.049L615.21 591.608C607.217 589.972 598.185 587.58 594.419 580.332C592.731 577.07 592.416 573.294 592.217 569.622C591.671 559.511 592.217 548.266 599.224 540.976C605.811 534.136 616.227 531.976 624.094 526.92C633.724 520.72 636.902 522.724 647.056 527.381C666.865 536.352 688.66 540.038 710.318 538.08Z" fill="black"/>
<path d="M894.692 523.699C881.811 528.682 868.857 533.685 855.367 536.654C832.752 541.636 809.088 540.85 786.651 546.546C774.797 549.567 763.018 554.434 750.839 553.448C745.395 553.007 740.14 551.35 734.843 550.091C705.084 542.748 671.255 545.13 647.088 564.011C638.822 570.462 632.056 578.507 625.92 587.088C624.607 588.941 623.719 591.061 623.321 593.297C622.922 595.533 623.023 597.83 623.615 600.023C624.208 602.215 625.277 604.25 626.747 605.982C628.217 607.713 630.051 609.098 632.119 610.039C641.518 614.361 651.586 617.046 661.888 617.979C675.661 619.196 689.497 617.245 703.196 615.294C723.525 612.409 743.864 609.514 764.14 606.273C771.42 605.108 778.699 603.902 786.021 602.979C838.71 596.318 892.353 604.416 945.178 598.857C950.518 598.29 955.951 597.556 960.808 595.28C973.102 589.511 979.185 574.301 976.647 560.937C974.109 547.574 964.311 536.465 952.521 529.647C942.64 523.909 931.983 521.591 920.979 519.157C910.762 516.776 904.532 519.923 894.692 523.699Z" fill="#AE6E79"/>
<path opacity="0.1" d="M1007.7 443.811C1013.51 451.427 1014.74 461.643 1014.12 471.178C1013.49 480.713 1011.22 490.143 1010.88 499.72C1010.42 512.853 1013.59 525.944 1013.06 539.035C1012.68 548.192 1010.51 557.171 1007.94 565.962C1004.91 576.336 1000.52 587.486 990.944 592.468C978.231 599.087 951.566 595.364 938.192 600.545C939.409 592.962 951.073 581.979 952.29 574.395C953.129 569.15 953.979 563.759 953.077 558.504C951.923 551.801 947.989 545.853 943.322 540.902C935.895 533.024 926.203 527.098 915.556 525.168C904.909 523.238 878.843 524.822 870.325 531.545C869.276 524.601 888.787 517.909 895.647 516.409C899.066 515.643 902.989 516.073 905.727 513.902C910.972 509.79 907.164 501.598 907.416 495.021C907.615 489.776 910.678 484.972 911.297 479.727C912.346 471.336 906.871 462.787 909.021 454.552C909.818 451.511 911.591 448.836 912.818 445.941C916.552 437.077 914.916 426.965 912.923 417.546C911.685 411.629 910.479 404.958 913.773 399.913C916.825 395.203 925.489 411.976 931.038 411.199C949.364 408.629 965.948 395.046 980.748 406.164C988.29 411.829 989.276 417.703 992.287 425.79C995.213 433.49 1002.8 437.434 1007.7 443.811Z" fill="black"/>
<path d="M1010.84 443.811C1016.65 451.426 1017.89 461.643 1017.26 471.178C1016.63 480.713 1014.37 490.143 1014.03 499.72C1013.57 512.853 1016.74 525.944 1016.2 539.035C1015.83 548.192 1013.65 557.171 1011.08 565.961C1008.05 576.336 1003.67 587.486 994.091 592.468C981.378 599.087 954.713 595.364 941.339 600.545C942.556 592.961 954.22 581.979 955.437 574.395C956.276 569.15 957.126 563.759 956.224 558.503C955.07 551.801 951.136 545.853 946.469 540.902C939.042 533.024 929.35 527.098 918.703 525.168C908.056 523.238 881.99 524.822 873.472 531.545C872.423 524.601 891.934 517.909 898.794 516.409C902.213 515.643 906.136 516.073 908.874 513.902C914.119 509.79 910.311 501.598 910.563 495.021C910.762 489.776 913.825 484.972 914.444 479.727C915.493 471.336 910.018 462.787 912.168 454.552C912.965 451.51 914.738 448.836 915.965 445.94C919.699 437.077 918.063 426.965 916.07 417.545C914.832 411.629 913.626 404.958 916.92 399.913C919.972 395.203 925.941 393.419 931.49 392.633C950.068 390.12 968.893 394.977 983.937 406.164C991.479 411.829 992.465 417.703 995.476 425.79C998.36 433.489 1005.94 437.433 1010.84 443.811Z" fill="#4C4981"/>
<path d="M316.783 394.112L373.815 604.888C374.514 607.47 375.984 609.778 378.029 611.504C380.073 613.23 382.595 614.292 385.259 614.549L641.958 639.21C644.05 639.411 646.16 639.109 648.111 638.327C650.062 637.546 651.798 636.308 653.172 634.718C654.547 633.128 655.52 631.232 656.011 629.188C656.502 627.144 656.495 625.013 655.993 622.972L593.538 368.727C592.795 365.705 591.005 363.044 588.485 361.218C585.965 359.392 582.879 358.518 579.776 358.752L328.458 377.549C326.528 377.699 324.656 378.273 322.973 379.23C321.291 380.186 319.841 381.503 318.725 383.085C317.61 384.667 316.858 386.475 316.522 388.381C316.187 390.287 316.276 392.244 316.783 394.112Z" fill="#9C9CA1"/>
<path d="M825.64 435.241C841.224 435.241 853.857 422.444 853.857 406.657C853.857 390.871 841.224 378.073 825.64 378.073C810.056 378.073 797.423 390.871 797.423 406.657C797.423 422.444 810.056 435.241 825.64 435.241Z" fill="white"/>
<path d="M848.811 354.514C848.811 354.514 854.759 372.199 837.21 379.636L834.965 383.559L845.958 394.406C845.958 394.406 859.51 369.682 858.042 360.902C858.042 360.902 855.944 351.986 848.811 354.514Z" fill="white"/>
<path d="M828.881 435.242C843.909 435.242 856.091 423.06 856.091 408.032C856.091 393.005 843.909 380.822 828.881 380.822C813.854 380.822 801.671 393.005 801.671 408.032C801.671 423.06 813.854 435.242 828.881 435.242Z" fill="#42E7E1"/>
<path d="M858.178 364.92L853.856 357.787L847.563 356.895C848.905 333.409 842.811 326.413 842.811 326.413L841.395 326.276L835.227 325.678L823.626 313.636V310.217C839.926 312.157 848.937 319.899 853.804 328.972C862.405 344.895 858.178 364.92 858.178 364.92Z" fill="#42E7E1"/>
<path opacity="0.1" d="M841.448 321.954V326.276L835.28 325.678L823.678 313.636C823.678 313.636 841.626 317.654 841.448 321.954Z" fill="black" stroke="#4C4981" stroke-miterlimit="10"/>
<path opacity="0.1" d="M858.178 364.919L853.857 357.786V329.014C862.406 344.895 858.178 364.919 858.178 364.919Z" fill="black" stroke="#4C4981" stroke-miterlimit="10"/>
<path d="M778.601 419.217C785.841 415.037 785.529 400.944 777.905 387.739C770.282 374.534 758.232 367.218 750.993 371.398C743.753 375.577 744.065 389.671 751.688 402.875C759.312 416.08 771.362 423.397 778.601 419.217Z" fill="white"/>
<path d="M768.881 393C776.507 406.206 785.864 415.028 778.626 419.224C771.388 423.419 750.304 421.322 742.678 408.105C735.053 394.888 741.976 376.636 749.213 372.44C756.451 368.245 761.245 379.762 768.881 393Z" fill="#42E7E1"/>
<path opacity="0.1" d="M836.78 297.861C836.78 340.06 807.902 380.728 765.703 380.728C745.436 380.728 725.999 372.677 711.668 358.346C697.338 344.015 689.287 324.578 689.287 304.312C689.287 284.045 697.338 264.608 711.668 250.277C725.999 235.946 745.436 227.896 765.703 227.896C807.902 227.937 836.78 255.651 836.78 297.861Z" fill="black"/>
<path d="M765.703 378.671C807.906 378.671 842.119 344.458 842.119 302.255C842.119 260.051 807.906 225.839 765.703 225.839C723.499 225.839 689.287 260.051 689.287 302.255C689.287 344.458 723.499 378.671 765.703 378.671Z" fill="#AE6E79"/>
<path d="M758.989 268.395C768.084 271.741 773.465 281.14 781.626 286.374C793.164 293.717 808.185 291.818 821.36 288.189C828.703 286.185 836.381 283.741 843.608 285.965C844.672 286.436 845.844 286.603 846.996 286.448C848.57 285.997 849.346 284.255 849.86 282.703C858.797 256.06 854.78 225.881 841.29 201.231C837.808 194.874 833.633 188.727 827.885 184.311C823.353 180.839 818.024 178.563 812.654 176.622C802.839 173.098 792.688 170.591 782.36 169.143C780.536 168.812 778.674 168.752 776.832 168.965C774.304 169.374 772.038 170.738 769.783 171.955C760.124 177.132 749.413 180.042 738.462 180.462C723.776 181.018 706.993 177.556 695.675 186.976C682.038 198.273 685.437 220.311 676.594 235.647C670.741 245.79 659.454 253.154 657.598 264.703C657.114 268.233 657.339 271.824 658.259 275.266C662.58 293.035 679.783 306.797 698.119 307.123C700.935 307.337 703.754 306.76 706.259 305.455C707.9 304.335 709.348 302.957 710.549 301.374C722.559 287.15 736.301 260.046 758.989 268.395Z" fill="#444053"/>
<path opacity="0.1" d="M849.86 274.972C849.346 276.525 848.57 278.266 846.997 278.717C845.844 278.872 844.672 278.705 843.608 278.234C836.381 276.011 828.661 278.455 821.371 280.458C808.185 284.088 793.133 286.028 781.636 278.643C773.465 273.399 768.094 263.958 758.99 260.664C736.301 252.273 722.559 279.42 710.517 293.643C709.317 295.226 707.868 296.604 706.227 297.724C703.723 299.029 700.903 299.607 698.087 299.392C679.815 299.067 662.601 285.304 658.227 267.535C657.986 266.486 657.776 265.437 657.619 264.388C657.619 264.483 657.619 264.567 657.566 264.661C657.083 268.191 657.308 271.782 658.227 275.224C662.549 292.993 679.762 306.755 698.087 307.081C700.903 307.295 703.723 306.718 706.227 305.413C707.868 304.293 709.317 302.915 710.517 301.332C722.559 287.109 736.301 260.004 758.99 268.353C768.094 271.699 773.465 281.098 781.636 286.332C793.175 293.675 808.185 291.776 821.371 288.147C828.713 286.143 836.381 283.699 843.608 285.923C844.672 286.394 845.844 286.561 846.997 286.406C848.57 285.955 849.346 284.213 849.86 282.661C853.465 271.759 855.057 260.293 854.559 248.822C854.251 257.718 852.668 266.525 849.86 274.972Z" fill="black"/>
</g>
<defs>
<clipPath id="clip0">
<rect width="1200" height="647.538" fill="white"/>
</clipPath>
</defs>
</svg>
