<svg width="900" height="486" viewBox="0 0 900 486" fill="none" xmlns="http://www.w3.org/2000/svg">
<g clip-path="url(#clip0)">
<path opacity="0.15" d="M900 311.719C900.011 324.912 898.197 338.044 894.611 350.74C891.145 362.98 886.046 374.697 879.451 385.576C879.451 424.99 852.844 459.055 814.225 475.261C798.087 481.965 780.775 485.388 763.301 485.331H170.85C139.185 485.331 109.841 476.787 85.7752 462.233C78.8878 458.087 72.3543 453.38 66.2411 448.159C39.4929 425.171 22.909 393.404 22.909 358.316C7.89702 335.2 -0.0630127 308.215 -0.000118437 280.652C-0.000118437 222.939 34.1354 173.313 83.0375 151.403C89.5311 148.495 96.241 146.096 103.107 144.228C105.535 143.567 107.989 142.974 110.47 142.45C117.083 141.042 123.791 140.121 130.539 139.696C132.978 139.544 135.43 139.458 137.895 139.437H139.248C141.97 139.437 144.669 139.531 147.351 139.689L148.232 138.194C149.313 136.39 150.419 134.604 151.552 132.836C153.598 129.616 155.743 126.443 157.988 123.317C160.337 120.018 162.789 116.772 165.343 113.578L165.996 112.791C167.444 110.987 168.923 109.203 170.433 107.441C175.154 101.939 180.136 96.6029 185.381 91.4316C242.111 35.8267 330.986 0.03125 430.898 0.03125C508.641 0.03125 579.705 21.7052 634.138 57.5164C654.759 45.8467 678.054 39.7235 701.748 39.7445C778.642 39.7445 840.996 102.973 840.996 180.967C840.985 185.902 840.722 190.834 840.21 195.742C858.745 208.863 873.853 226.249 884.259 246.434C894.665 266.619 900.064 289.01 900 311.719Z" fill="#42E7E1"/>
<path opacity="0.2" d="M185.397 91.4004V107.41H170.449C175.133 101.914 180.115 96.577 185.397 91.4004Z" fill="#42E7E1"/>
<path opacity="0.2" d="M212.83 87.3409H192.76V107.41H212.83V87.3409Z" fill="#42E7E1"/>
<path opacity="0.2" d="M240.254 87.3409H220.185V107.41H240.254V87.3409Z" fill="#42E7E1"/>
<path opacity="0.2" d="M267.687 87.3409H247.618V107.41H267.687V87.3409Z" fill="#42E7E1"/>
<path opacity="0.2" d="M295.112 87.3409H275.043V107.41H295.112V87.3409Z" fill="#42E7E1"/>
<path opacity="0.2" d="M322.545 87.3409H302.476V107.41H322.545V87.3409Z" fill="#42E7E1"/>
<path d="M349.977 87.3409H329.908V107.41H349.977V87.3409Z" fill="#42E7E1"/>
<path opacity="0.2" d="M377.402 87.3409H357.333V107.41H377.402V87.3409Z" fill="#42E7E1"/>
<path opacity="0.2" d="M404.835 87.3409H384.766V107.41H404.835V87.3409Z" fill="#42E7E1"/>
<path opacity="0.2" d="M432.26 87.3409H412.191V107.41H432.26V87.3409Z" fill="#42E7E1"/>
<path d="M459.692 87.3409H439.623V107.41H459.692V87.3409Z" fill="#42E7E1"/>
<path opacity="0.2" d="M487.125 87.3409H467.056V107.41H487.125V87.3409Z" fill="#42E7E1"/>
<path opacity="0.2" d="M514.55 87.3409H494.481V107.41H514.55V87.3409Z" fill="#42E7E1"/>
<path opacity="0.2" d="M541.982 87.3409H521.913V107.41H541.982V87.3409Z" fill="#42E7E1"/>
<path opacity="0.2" d="M569.415 87.3409H549.346V107.41H569.415V87.3409Z" fill="#42E7E1"/>
<path opacity="0.2" d="M596.84 87.3409H576.771V107.41H596.84V87.3409Z" fill="#42E7E1"/>
<path opacity="0.2" d="M624.273 87.3409H604.204V107.41H624.273V87.3409Z" fill="#42E7E1"/>
<path d="M651.698 87.3409H631.628V107.41H651.698V87.3409Z" fill="#42E7E1"/>
<path d="M679.13 87.3409H659.061V107.41H679.13V87.3409Z" fill="#42E7E1"/>
<path opacity="0.2" d="M706.563 87.3409H686.494V107.41H706.563V87.3409Z" fill="#42E7E1"/>
<path opacity="0.2" d="M733.988 87.3409H713.919V107.41H733.988V87.3409Z" fill="#42E7E1"/>
<path d="M761.42 87.3409H741.351V107.41H761.42V87.3409Z" fill="#42E7E1"/>
<path d="M788.845 87.3409H768.776V107.41H788.845V87.3409Z" fill="#42E7E1"/>
<path d="M157.972 123.309V132.829H151.537C153.582 129.587 155.727 126.414 157.972 123.309Z" fill="#42E7E1"/>
<path opacity="0.2" d="M185.397 112.76H165.328V132.829H185.397V112.76Z" fill="#42E7E1"/>
<path d="M212.83 112.76H192.76V132.829H212.83V112.76Z" fill="#42E7E1"/>
<path opacity="0.2" d="M240.254 112.76H220.185V132.829H240.254V112.76Z" fill="#42E7E1"/>
<path opacity="0.7" d="M267.687 112.76H247.618V132.829H267.687V112.76Z" fill="#42E7E1"/>
<path opacity="0.2" d="M295.112 112.76H275.043V132.829H295.112V112.76Z" fill="#42E7E1"/>
<path opacity="0.4" d="M322.545 112.76H302.476V132.829H322.545V112.76Z" fill="#42E7E1"/>
<path d="M349.977 112.76H329.908V132.829H349.977V112.76Z" fill="#42E7E1"/>
<path opacity="0.4" d="M377.402 112.76H357.333V132.829H377.402V112.76Z" fill="#42E7E1"/>
<path opacity="0.2" d="M404.835 112.76H384.766V132.829H404.835V112.76Z" fill="#42E7E1"/>
<path opacity="0.4" d="M432.26 112.76H412.191V132.829H432.26V112.76Z" fill="#42E7E1"/>
<path d="M459.692 112.76H439.623V132.829H459.692V112.76Z" fill="#42E7E1"/>
<path opacity="0.4" d="M487.125 112.76H467.056V132.829H487.125V112.76Z" fill="#42E7E1"/>
<path opacity="0.4" d="M514.55 112.76H494.481V132.829H514.55V112.76Z" fill="#42E7E1"/>
<path opacity="0.2" d="M541.982 112.76H521.913V132.829H541.982V112.76Z" fill="#42E7E1"/>
<path opacity="0.4" d="M569.415 112.76H549.346V132.829H569.415V112.76Z" fill="#42E7E1"/>
<path opacity="0.4" d="M596.84 112.76H576.771V132.829H596.84V112.76Z" fill="#42E7E1"/>
<path opacity="0.2" d="M624.273 112.76H604.204V132.829H624.273V112.76Z" fill="#42E7E1"/>
<path opacity="0.2" d="M651.698 112.76H631.628V132.829H651.698V112.76Z" fill="#42E7E1"/>
<path opacity="0.4" d="M679.13 112.76H659.061V132.829H679.13V112.76Z" fill="#42E7E1"/>
<path opacity="0.2" d="M706.563 112.76H686.494V132.829H706.563V112.76Z" fill="#42E7E1"/>
<path d="M733.988 112.76H713.919V132.829H733.988V112.76Z" fill="#42E7E1"/>
<path d="M761.42 112.76H741.351V132.829H761.42V112.76Z" fill="#42E7E1"/>
<path d="M788.845 112.76H768.776V132.829H788.845V112.76Z" fill="#42E7E1"/>
<path opacity="0.2" d="M103.107 144.228V158.255H83.0376V151.403C89.5313 148.495 96.2412 146.096 103.107 144.228Z" fill="#42E7E1"/>
<path opacity="0.2" d="M130.539 139.697V158.255H110.47V142.45L130.539 139.697Z" fill="#42E7E1"/>
<path d="M157.964 138.186H137.895V158.255H157.964V138.186Z" fill="#42E7E1"/>
<path opacity="0.7" d="M185.397 138.186H165.328V158.255H185.397V138.186Z" fill="#42E7E1"/>
<path d="M212.83 138.186H192.76V158.255H212.83V138.186Z" fill="#42E7E1"/>
<path opacity="0.7" d="M240.254 138.186H220.185V158.255H240.254V138.186Z" fill="#42E7E1"/>
<path opacity="0.7" d="M267.687 138.186H247.618V158.255H267.687V138.186Z" fill="#42E7E1"/>
<path opacity="0.2" d="M295.112 138.186H275.043V158.255H295.112V138.186Z" fill="#42E7E1"/>
<path opacity="0.4" d="M322.545 138.186H302.476V158.255H322.545V138.186Z" fill="#42E7E1"/>
<path opacity="0.4" d="M349.977 138.186H329.908V158.255H349.977V138.186Z" fill="#42E7E1"/>
<path d="M377.402 138.186H357.333V158.255H377.402V138.186Z" fill="#42E7E1"/>
<path opacity="0.2" d="M404.835 138.186H384.766V158.255H404.835V138.186Z" fill="#42E7E1"/>
<path opacity="0.4" d="M432.26 138.186H412.191V158.255H432.26V138.186Z" fill="#42E7E1"/>
<path d="M459.692 138.186H439.623V158.255H459.692V138.186Z" fill="#42E7E1"/>
<path opacity="0.2" d="M487.125 138.186H467.056V158.255H487.125V138.186Z" fill="#42E7E1"/>
<path opacity="0.4" d="M514.55 138.186H494.481V158.255H514.55V138.186Z" fill="#42E7E1"/>
<path opacity="0.2" d="M541.982 138.186H521.913V158.255H541.982V138.186Z" fill="#42E7E1"/>
<path d="M569.415 138.186H549.346V158.255H569.415V138.186Z" fill="#42E7E1"/>
<path opacity="0.2" d="M596.84 138.186H576.771V158.255H596.84V138.186Z" fill="#42E7E1"/>
<path opacity="0.7" d="M624.273 138.186H604.204V158.255H624.273V138.186Z" fill="#42E7E1"/>
<path opacity="0.7" d="M651.698 138.186H631.628V158.255H651.698V138.186Z" fill="#42E7E1"/>
<path opacity="0.4" d="M679.13 138.186H659.061V158.255H679.13V138.186Z" fill="#42E7E1"/>
<path opacity="0.2" d="M706.563 138.186H686.494V158.255H706.563V138.186Z" fill="#42E7E1"/>
<path d="M733.988 138.186H713.919V158.255H733.988V138.186Z" fill="#42E7E1"/>
<path d="M761.42 138.186H741.351V158.255H761.42V138.186Z" fill="#42E7E1"/>
<path d="M788.845 138.186H768.776V158.255H788.845V138.186Z" fill="#42E7E1"/>
<path opacity="0.2" d="M103.107 163.605H83.0376V183.674H103.107V163.605Z" fill="#42E7E1"/>
<path opacity="0.2" d="M130.539 163.605H110.47V183.674H130.539V163.605Z" fill="#42E7E1"/>
<path opacity="0.2" d="M157.964 163.605H137.895V183.674H157.964V163.605Z" fill="#42E7E1"/>
<path opacity="0.2" d="M185.397 163.605H165.328V183.674H185.397V163.605Z" fill="#42E7E1"/>
<path d="M212.83 163.605H192.76V183.674H212.83V163.605Z" fill="#42E7E1"/>
<path opacity="0.7" d="M240.254 163.605H220.185V183.674H240.254V163.605Z" fill="#42E7E1"/>
<path opacity="0.7" d="M267.687 163.605H247.618V183.674H267.687V163.605Z" fill="#42E7E1"/>
<path opacity="0.2" d="M295.112 163.605H275.043V183.674H295.112V163.605Z" fill="#42E7E1"/>
<path opacity="0.2" d="M322.545 163.605H302.476V183.674H322.545V163.605Z" fill="#42E7E1"/>
<path opacity="0.4" d="M349.977 163.605H329.908V183.674H349.977V163.605Z" fill="#42E7E1"/>
<path opacity="0.4" d="M377.402 163.605H357.333V183.674H377.402V163.605Z" fill="#42E7E1"/>
<path d="M404.835 163.605H384.766V183.674H404.835V163.605Z" fill="#42E7E1"/>
<path opacity="0.2" d="M432.26 163.605H412.191V183.674H432.26V163.605Z" fill="#42E7E1"/>
<path opacity="0.4" d="M459.692 163.605H439.623V183.674H459.692V163.605Z" fill="#42E7E1"/>
<path opacity="0.4" d="M487.125 163.605H467.056V183.674H487.125V163.605Z" fill="#42E7E1"/>
<path opacity="0.4" d="M514.55 163.605H494.481V183.674H514.55V163.605Z" fill="#42E7E1"/>
<path opacity="0.4" d="M541.982 163.605H521.913V183.674H541.982V163.605Z" fill="#42E7E1"/>
<path opacity="0.2" d="M569.415 163.605H549.346V183.674H569.415V163.605Z" fill="#42E7E1"/>
<path opacity="0.2" d="M596.84 163.605H576.771V183.674H596.84V163.605Z" fill="#42E7E1"/>
<path opacity="0.2" d="M624.273 163.605H604.204V183.674H624.273V163.605Z" fill="#42E7E1"/>
<path opacity="0.2" d="M651.698 163.605H631.628V183.674H651.698V163.605Z" fill="#42E7E1"/>
<path opacity="0.7" d="M679.13 163.605H659.061V183.674H679.13V163.605Z" fill="#42E7E1"/>
<path opacity="0.7" d="M706.563 163.605H686.494V183.674H706.563V163.605Z" fill="#42E7E1"/>
<path opacity="0.4" d="M733.988 163.605H713.919V183.674H733.988V163.605Z" fill="#42E7E1"/>
<path opacity="0.2" d="M761.42 163.605H741.351V183.674H761.42V163.605Z" fill="#42E7E1"/>
<path d="M788.845 163.605H768.776V183.674H788.845V163.605Z" fill="#42E7E1"/>
<path opacity="0.2" d="M103.107 189.031H83.0376V209.1H103.107V189.031Z" fill="#42E7E1"/>
<path opacity="0.2" d="M130.539 189.031H110.47V209.1H130.539V189.031Z" fill="#42E7E1"/>
<path opacity="0.4" d="M157.964 189.031H137.895V209.1H157.964V189.031Z" fill="#42E7E1"/>
<path opacity="0.2" d="M185.397 189.031H165.328V209.1H185.397V189.031Z" fill="#42E7E1"/>
<path opacity="0.2" d="M212.83 189.031H192.76V209.1H212.83V189.031Z" fill="#42E7E1"/>
<path opacity="0.7" d="M240.254 189.031H220.185V209.1H240.254V189.031Z" fill="#42E7E1"/>
<path opacity="0.7" d="M267.687 189.031H247.618V209.1H267.687V189.031Z" fill="#42E7E1"/>
<path opacity="0.2" d="M295.112 189.031H275.043V209.1H295.112V189.031Z" fill="#42E7E1"/>
<path opacity="0.2" d="M322.545 189.031H302.476V209.1H322.545V189.031Z" fill="#42E7E1"/>
<path opacity="0.4" d="M349.977 189.031H329.908V209.1H349.977V189.031Z" fill="#42E7E1"/>
<path d="M377.402 189.031H357.333V209.1H377.402V189.031Z" fill="#42E7E1"/>
<path opacity="0.2" d="M404.835 189.031H384.766V209.1H404.835V189.031Z" fill="#42E7E1"/>
<path d="M432.26 189.031H412.191V209.1H432.26V189.031Z" fill="#42E7E1"/>
<path d="M459.692 189.031H439.623V209.1H459.692V189.031Z" fill="#42E7E1"/>
<path d="M487.125 189.031H467.056V209.1H487.125V189.031Z" fill="#42E7E1"/>
<path opacity="0.2" d="M514.55 189.031H494.481V209.1H514.55V189.031Z" fill="#42E7E1"/>
<path d="M541.982 189.031H521.913V209.1H541.982V189.031Z" fill="#42E7E1"/>
<path opacity="0.2" d="M569.415 189.031H549.346V209.1H569.415V189.031Z" fill="#42E7E1"/>
<path opacity="0.2" d="M596.84 189.031H576.771V209.1H596.84V189.031Z" fill="#42E7E1"/>
<path opacity="0.2" d="M624.273 189.031H604.204V209.1H624.273V189.031Z" fill="#42E7E1"/>
<path opacity="0.2" d="M651.698 189.031H631.628V209.1H651.698V189.031Z" fill="#42E7E1"/>
<path opacity="0.2" d="M679.13 189.031H659.061V209.1H679.13V189.031Z" fill="#42E7E1"/>
<path opacity="0.7" d="M706.563 189.031H686.494V209.1H706.563V189.031Z" fill="#42E7E1"/>
<path opacity="0.2" d="M733.988 189.031H713.919V209.1H733.988V189.031Z" fill="#42E7E1"/>
<path opacity="0.2" d="M761.42 189.031H741.351V209.1H761.42V189.031Z" fill="#42E7E1"/>
<path d="M788.845 189.031H768.776V209.1H788.845V189.031Z" fill="#42E7E1"/>
<path opacity="0.2" d="M103.107 214.45H83.0376V234.519H103.107V214.45Z" fill="#42E7E1"/>
<path opacity="0.2" d="M130.539 214.45H110.47V234.519H130.539V214.45Z" fill="#42E7E1"/>
<path opacity="0.2" d="M157.964 214.45H137.895V234.519H157.964V214.45Z" fill="#42E7E1"/>
<path opacity="0.4" d="M185.397 214.45H165.328V234.519H185.397V214.45Z" fill="#42E7E1"/>
<path opacity="0.2" d="M212.83 214.45H192.76V234.519H212.83V214.45Z" fill="#42E7E1"/>
<path opacity="0.2" d="M240.254 214.45H220.185V234.519H240.254V214.45Z" fill="#42E7E1"/>
<path opacity="0.7" d="M267.687 214.45H247.618V234.519H267.687V214.45Z" fill="#42E7E1"/>
<path opacity="0.2" d="M295.112 214.45H275.043V234.519H295.112V214.45Z" fill="#42E7E1"/>
<path opacity="0.2" d="M322.545 214.45H302.476V234.519H322.545V214.45Z" fill="#42E7E1"/>
<path opacity="0.2" d="M349.977 214.45H329.908V234.519H349.977V214.45Z" fill="#42E7E1"/>
<path d="M377.402 214.45H357.333V234.519H377.402V214.45Z" fill="#42E7E1"/>
<path opacity="0.2" d="M404.835 214.45H384.766V234.519H404.835V214.45Z" fill="#42E7E1"/>
<path d="M432.26 214.45H412.191V234.519H432.26V214.45Z" fill="#42E7E1"/>
<path d="M459.692 214.45H439.623V234.519H459.692V214.45Z" fill="#42E7E1"/>
<path opacity="0.2" d="M487.125 214.45H467.056V234.519H487.125V214.45Z" fill="#42E7E1"/>
<path opacity="0.2" d="M514.55 214.45H494.481V234.519H514.55V214.45Z" fill="#42E7E1"/>
<path opacity="0.2" d="M541.982 214.45H521.913V234.519H541.982V214.45Z" fill="#42E7E1"/>
<path opacity="0.2" d="M569.415 214.45H549.346V234.519H569.415V214.45Z" fill="#42E7E1"/>
<path opacity="0.2" d="M596.84 214.45H576.771V234.519H596.84V214.45Z" fill="#42E7E1"/>
<path opacity="0.2" d="M624.273 214.45H604.204V234.519H624.273V214.45Z" fill="#42E7E1"/>
<path opacity="0.2" d="M651.698 214.45H631.628V234.519H651.698V214.45Z" fill="#42E7E1"/>
<path opacity="0.2" d="M679.13 214.45H659.061V234.519H679.13V214.45Z" fill="#42E7E1"/>
<path opacity="0.2" d="M706.563 214.45H686.494V234.519H706.563V214.45Z" fill="#42E7E1"/>
<path opacity="0.2" d="M733.988 214.45H713.919V234.519H733.988V214.45Z" fill="#42E7E1"/>
<path opacity="0.4" d="M761.42 214.45H741.351V234.519H761.42V214.45Z" fill="#42E7E1"/>
<path d="M788.845 214.45H768.776V234.519H788.845V214.45Z" fill="#42E7E1"/>
<path opacity="0.7" d="M103.107 239.877H83.0376V259.946H103.107V239.877Z" fill="#42E7E1"/>
<path opacity="0.7" d="M130.539 239.877H110.47V259.946H130.539V239.877Z" fill="#42E7E1"/>
<path opacity="0.7" d="M157.964 239.877H137.895V259.946H157.964V239.877Z" fill="#42E7E1"/>
<path opacity="0.7" d="M185.397 239.877H165.328V259.946H185.397V239.877Z" fill="#42E7E1"/>
<path opacity="0.7" d="M212.83 239.877H192.76V259.946H212.83V239.877Z" fill="#42E7E1"/>
<path opacity="0.2" d="M240.254 239.877H220.185V259.946H240.254V239.877Z" fill="#42E7E1"/>
<path opacity="0.2" d="M267.687 239.877H247.618V259.946H267.687V239.877Z" fill="#42E7E1"/>
<path opacity="0.2" d="M295.112 239.877H275.043V259.946H295.112V239.877Z" fill="#42E7E1"/>
<path opacity="0.2" d="M322.545 239.877H302.476V259.946H322.545V239.877Z" fill="#42E7E1"/>
<path opacity="0.2" d="M349.977 239.877H329.908V259.946H349.977V239.877Z" fill="#42E7E1"/>
<path opacity="0.2" d="M377.402 239.877H357.333V259.946H377.402V239.877Z" fill="#42E7E1"/>
<path d="M404.835 239.877H384.766V259.946H404.835V239.877Z" fill="#42E7E1"/>
<path opacity="0.2" d="M432.26 239.877H412.191V259.946H432.26V239.877Z" fill="#42E7E1"/>
<path opacity="0.2" d="M459.692 239.877H439.623V259.946H459.692V239.877Z" fill="#42E7E1"/>
<path opacity="0.2" d="M487.125 239.877H467.056V259.946H487.125V239.877Z" fill="#42E7E1"/>
<path d="M514.55 239.877H494.481V259.946H514.55V239.877Z" fill="#42E7E1"/>
<path opacity="0.2" d="M541.982 239.877H521.913V259.946H541.982V239.877Z" fill="#42E7E1"/>
<path opacity="0.2" d="M569.415 239.877H549.346V259.946H569.415V239.877Z" fill="#42E7E1"/>
<path opacity="0.2" d="M596.84 239.877H576.771V259.946H596.84V239.877Z" fill="#42E7E1"/>
<path opacity="0.2" d="M624.273 239.877H604.204V259.946H624.273V239.877Z" fill="#42E7E1"/>
<path opacity="0.2" d="M651.698 239.877H631.628V259.946H651.698V239.877Z" fill="#42E7E1"/>
<path opacity="0.2" d="M679.13 239.877H659.061V259.946H679.13V239.877Z" fill="#42E7E1"/>
<path opacity="0.2" d="M706.563 239.877H686.494V259.946H706.563V239.877Z" fill="#42E7E1"/>
<path opacity="0.2" d="M733.988 239.877H713.919V259.946H733.988V239.877Z" fill="#42E7E1"/>
<path opacity="0.2" d="M761.42 239.877H741.351V259.946H761.42V239.877Z" fill="#42E7E1"/>
<path d="M788.845 239.877H768.776V259.946H788.845V239.877Z" fill="#42E7E1"/>
<path d="M577.857 313.71C593.007 313.71 605.289 301.428 605.289 286.277C605.289 271.126 593.007 258.844 577.857 258.844C562.706 258.844 550.424 271.126 550.424 286.277C550.424 301.428 562.706 313.71 577.857 313.71Z" fill="#767D9F"/>
<path d="M576.433 251.379C579.17 263.326 581.494 275.363 583.403 287.489C583.977 291.092 584.489 294.892 583.183 298.298C582.089 301.138 579.863 303.357 578.116 305.843C576.37 308.329 575.048 311.515 576.11 314.363C577.172 317.211 580.272 318.768 583.23 319.571C591.695 321.852 600.718 320.192 609.144 317.722C612.959 316.74 616.617 315.225 620.009 313.222C623.58 310.956 626.507 307.809 629.198 304.568C641.478 289.676 649.518 271.802 657.087 254.038C652.224 254.48 647.325 253.759 642.796 251.934C638.266 250.11 634.236 247.233 631.038 243.543C627.939 239.9 625.665 234.826 627.412 230.373C622.29 233.182 616.209 233.371 610.694 235.29C607.274 236.596 603.982 238.216 600.86 240.129C597.094 242.305 593.35 244.524 589.626 246.784C585.37 249.349 581.381 251.63 576.433 251.379Z" fill="#AE6E79"/>
<path d="M633.808 271.975C629.001 281.329 622.747 290.321 613.817 295.891C604.888 301.461 592.867 302.971 583.922 297.464C579.517 294.774 576.181 290.683 572.334 287.237C568.487 283.791 563.68 280.841 558.511 281.289C552.816 281.785 548.355 286.23 544.539 290.486C538.749 296.953 533.156 303.695 529.057 311.35C521.19 326.061 519.325 343.259 519.671 359.937C520.017 376.615 522.433 393.207 522.488 409.885C522.566 430.403 519.089 450.755 515.573 470.966C547.906 466.985 580.28 475.686 612.684 478.983C633.422 481.115 654.317 481.067 675.165 481.012C678.831 481.012 682.733 480.918 685.786 478.888C687.652 477.527 689.16 475.735 690.184 473.664C693.063 468.354 694.219 462.296 695.022 456.309C697.059 441.189 697.122 425.879 697.178 410.617C697.319 373.642 697.453 336.532 692.756 299.848C691.6 290.824 690.121 281.753 686.659 273.312C683.198 264.871 677.549 257.106 669.65 252.582C664.576 249.671 652.815 244.605 646.836 247.539C640.125 250.812 637.025 265.712 633.808 271.975Z" fill="#767D9F"/>
<path d="M636.199 376.387C634.98 353.573 630.016 329.224 640.581 308.974C643.177 304.002 633.863 297.795 636.742 292.98C640.256 287.11 642.921 280.772 644.656 274.154C645.254 271.88 645.734 269.473 645.168 267.192C644.122 263.03 640.007 260.552 636.514 258.018C632.659 255.218 630.677 246.682 629.434 242.064C628.191 237.446 639.323 243.008 643.799 241.364C650.014 239.09 657.913 240.522 664.112 242.827C667.573 244.101 671.334 244.212 675.024 244.306C682.191 244.495 689.381 244.676 696.493 243.795C699.687 243.393 702.889 242.788 706.099 242.969C714.289 243.433 721.408 249.034 726.254 255.658C731.101 262.282 734.185 270 738.157 277.175C741.469 283.154 745.419 288.803 748.243 295.025C750.745 300.532 752.326 306.448 753.892 312.333L757.927 327.43C758.633 329.59 758.969 331.853 758.919 334.125C758.714 336.54 757.644 338.79 756.559 340.938C752.453 348.898 747.531 356.41 741.871 363.351C733.382 373.76 723.076 383.145 718.033 395.607C716.066 400.461 714.973 405.622 713.974 410.767C709.945 431.345 707.083 452.134 705.399 473.035C696.206 468.781 686.57 465.56 676.668 463.429C671.732 462.373 666.742 461.585 661.72 461.069C657.323 460.613 651.65 461.478 647.465 460.282C640.463 458.292 639.692 446.452 638.63 440.253C636.931 430.379 636.593 420.333 636.53 410.358C636.451 399.013 636.805 387.692 636.199 376.387Z" fill="#4C4981"/>
<path d="M482.436 333.724C485.748 352.605 489.399 371.541 496.597 389.282C496.416 389.455 496.235 389.612 496.054 389.769C495.417 390.312 494.756 390.824 494.064 391.343C492.451 392.476 490.681 393.435 489.344 394.914C488.837 395.481 488.437 396.134 488.163 396.842C487.916 397.395 487.789 397.994 487.789 398.6C487.789 399.206 487.916 399.805 488.163 400.359C484.411 402.019 480.052 401.507 475.843 401.35C472.217 401.216 468.7 401.35 465.789 403.34C461.746 406.125 460.526 411.475 459.873 416.337C459.632 418.109 459.425 419.885 459.252 421.663C459.084 423.315 458.948 424.972 458.843 426.635C458.486 432.135 458.436 437.65 458.693 443.156C458.735 444.163 458.79 445.17 458.858 446.177C446.003 445.87 434.289 439.167 423.204 432.653C420.671 431.166 418.059 429.601 416.415 427.146C414.9 424.735 414.259 421.878 414.598 419.051C414.598 418.65 414.669 418.264 414.724 417.855C415.076 415.52 415.68 413.231 416.525 411.026C419.993 401.636 425.105 392.938 431.622 385.34C434.439 382.052 437.609 378.834 438.923 374.704C439.497 372.902 439.71 370.991 440.292 369.197C442.904 361.424 452.329 357.75 455.554 350.206C456.341 348.404 456.703 346.429 457.678 344.699C458.557 343.26 459.69 341.994 461.022 340.962C461.596 340.482 462.194 340.018 462.784 339.553C468.312 335.221 473.638 330.645 478.762 325.825C479.717 324.928 480.661 324.021 481.594 323.103C481.47 326.664 481.752 330.227 482.436 333.724Z" fill="#4C4981"/>
<path d="M561.713 277.883C560.58 279.079 559.353 280.204 558.149 281.321L557.827 281.612L556.552 282.792C554.239 284.788 552.237 287.119 550.613 289.707L550.479 289.927C546.467 297.11 547.954 305.953 549.071 314.111C550.456 324.277 551.08 334.533 550.935 344.793C550.731 358.954 549.063 373.02 549.031 387.165C549.031 390.375 549.102 393.577 549.244 396.787C549.472 402.003 549.865 407.211 550.337 412.419C550.849 418.13 551.462 423.834 552.037 429.538C552.493 433.951 552.926 438.357 553.288 442.762C553.469 445.044 553.642 447.317 553.783 449.599C553.948 452.274 554.082 454.956 554.161 457.631C554.216 459.33 554.247 461.022 554.247 462.721C554.247 463.689 554.247 464.649 554.247 465.608C554.247 467.449 554.198 469.285 554.098 471.115C553.993 473.47 553.833 475.83 553.618 478.196C553.374 480.768 552.941 483.577 551.132 485.386C551.022 485.497 550.904 485.599 550.786 485.701L548.237 485.386C530.666 483.283 512.926 482.966 495.291 484.442C495.677 481.783 496.031 479.132 496.377 476.465C496.534 475.206 496.691 473.94 496.841 472.673C497.014 471.225 497.179 469.778 497.337 468.33C497.517 466.757 497.683 465.184 497.84 463.61C498.249 459.556 498.608 455.499 498.918 451.44C499.374 445.518 499.72 439.587 499.956 433.644C500.072 430.807 500.161 427.967 500.224 425.124C500.313 421.6 500.355 418.073 500.35 414.543C500.35 411.113 500.321 407.677 500.263 404.237C500.263 403.104 500.216 401.971 500.122 400.846C500.054 399.833 499.914 398.826 499.705 397.833C499.12 395.543 498.33 393.31 497.344 391.162C497.171 390.753 497.006 390.375 496.841 389.942C496.747 389.73 496.66 389.51 496.573 389.297C501.105 385.261 504.33 379.857 507.43 374.538C512.457 365.971 517.602 357.026 518.444 347.129C519.286 337.233 514.369 326.116 504.913 323.095C502.34 322.309 499.618 322.088 496.967 321.624C494.465 321.184 489.249 320.184 486.354 318.391C484.781 320.006 483.207 321.593 481.634 323.15C481.729 320.774 482.31 318.442 483.341 316.298L484.458 316.353C484.367 316.101 484.324 315.834 484.332 315.566C484.332 314.725 484.914 313.773 486.157 312.719C489.863 309.572 495.692 308.871 498.029 304.615C499.004 302.845 499.17 300.737 499.956 298.88C502.214 293.586 508.697 291.635 512.599 287.402C516.501 283.17 517.476 277.175 520.631 272.455C522.988 269.008 526.256 266.284 530.072 264.587C530.386 264.438 530.709 264.288 531.031 264.155C537.561 261.362 545.318 260.725 552.084 260.74C554.712 260.74 561.524 260.819 564.86 262.149C565.401 262.342 565.897 262.645 566.316 263.038C569.872 266.908 564.341 275.082 561.713 277.883Z" fill="#4C4981"/>
<path d="M483.608 315.747C489.686 313.918 496.066 313.314 502.379 313.972C508.691 314.63 514.81 316.536 520.379 319.579C526.044 322.726 531.126 327.115 534.241 332.78C538.922 341.276 538.718 351.519 538.387 361.219C538.222 366.073 538.01 371.101 535.87 375.459C533.392 380.502 528.719 383.963 523.951 386.795C520.965 388.701 517.692 390.116 514.259 390.989C508.972 392.137 503.481 391.162 498.155 390.202C492.365 389.132 486.15 387.842 482.129 383.531C479.769 381.029 478.479 377.78 477.205 374.601C475.374 370.012 473.539 365.428 471.698 360.85C468.511 352.896 467.434 346.28 471.643 338.531C473.554 334.998 475.891 331.694 477.779 328.138C478.723 326.329 482.106 316.212 483.608 315.747Z" fill="#4C4981"/>
<path d="M814.248 451.746V475.269C798.11 481.973 780.799 485.396 763.324 485.339H551.156C551.046 485.449 550.927 485.551 550.809 485.654L548.261 485.339H170.851C139.185 485.339 109.841 476.795 85.7754 462.241V426.328L267.286 405.377H267.427L373.13 414.33L400.484 416.69L414.692 417.894L444.1 420.388L459.228 421.67L481.256 423.543L484.356 423.802L500.232 425.148L521.772 426.918L552.06 429.482L602.552 433.77L638.072 436.783L696.399 441.731L707.491 442.668L708.687 442.77L709.726 442.856L724.374 444.099L740.455 445.468L742.319 445.626L814.248 451.746Z" fill="#504F60"/>
<path d="M601.049 450.881L373.579 412.057L364.76 456.656L469.031 469.141L501.136 473.161L589.453 455.767L601.049 450.881Z" fill="#9C9CA1"/>
<path d="M483.302 470.926L597.265 449.504C597.835 449.395 598.422 449.413 598.984 449.558C599.547 449.703 600.07 449.97 600.516 450.341C600.963 450.712 601.322 451.177 601.568 451.702C601.814 452.228 601.94 452.802 601.938 453.383C601.94 454.304 601.62 455.196 601.032 455.905C600.444 456.614 599.626 457.094 598.72 457.261L487.424 478.101L483.302 470.926Z" fill="#9C9CA1"/>
<path d="M532.739 403.56C536.287 403.23 539.882 402.671 543.076 401.098C547.01 399.139 550.07 395.764 553.712 393.278C561.721 387.771 572.436 387.031 581.617 390.194C590.798 393.357 598.461 400.13 603.826 408.218C607.39 413.607 610.065 420.483 607.547 426.43C606.684 428.248 605.595 429.95 604.306 431.497L597.745 440.072C596.498 441.874 594.999 443.488 593.292 444.863C590.837 446.649 587.785 447.38 584.78 447.821C576.795 448.985 568.668 448.324 560.62 448.859C546.797 449.78 533.297 454.233 519.443 454.083C511.482 453.997 503.622 452.392 495.842 450.787L461.407 443.706C455.413 442.479 448.639 440.685 445.815 435.249C444.548 432.802 444.312 429.97 444.163 427.217C443.754 419.633 444.163 411.199 449.418 405.732C454.358 400.602 462.171 398.982 468.071 395.19C475.293 390.54 477.677 392.043 485.292 395.536C500.149 402.264 516.495 405.029 532.739 403.56Z" fill="#AE6E79"/>
<path opacity="0.05" d="M532.739 403.56C536.287 403.23 539.882 402.671 543.076 401.098C547.01 399.139 550.07 395.764 553.712 393.278C561.721 387.771 572.436 387.031 581.617 390.194C590.798 393.357 598.461 400.13 603.826 408.218C607.39 413.607 610.065 420.483 607.547 426.43C606.684 428.248 605.595 429.95 604.306 431.497L597.745 440.072C596.498 441.874 594.999 443.488 593.292 444.863C590.837 446.649 587.785 447.38 584.78 447.821C576.795 448.985 568.668 448.324 560.62 448.859C546.797 449.78 533.297 454.233 519.443 454.083C511.482 453.997 503.622 452.392 495.842 450.787L461.407 443.706C455.413 442.479 448.639 440.685 445.815 435.249C444.548 432.802 444.312 429.97 444.163 427.217C443.754 419.633 444.163 411.199 449.418 405.732C454.358 400.602 462.171 398.982 468.071 395.19C475.293 390.54 477.677 392.043 485.292 395.536C500.149 402.264 516.495 405.029 532.739 403.56Z" fill="black"/>
<path d="M671.019 392.774C661.358 396.511 651.643 400.264 641.525 402.49C624.564 406.227 606.816 405.637 589.988 409.909C581.098 412.175 572.263 415.825 563.129 415.086C559.046 414.755 555.105 413.512 551.132 412.568C528.813 407.061 503.442 408.847 485.316 423.008C479.116 427.846 474.042 433.88 469.44 440.316C468.455 441.706 467.789 443.296 467.491 444.973C467.192 446.65 467.267 448.372 467.711 450.017C468.156 451.661 468.958 453.188 470.06 454.486C471.163 455.785 472.539 456.824 474.089 457.529C481.138 460.77 488.689 462.785 496.416 463.484C506.746 464.397 517.122 462.934 527.397 461.47C542.643 459.307 557.898 457.135 573.105 454.705C578.565 453.831 584.025 452.927 589.516 452.234C629.032 447.239 669.265 453.312 708.884 449.142C712.888 448.718 716.963 448.167 720.606 446.46C729.826 442.133 734.389 430.725 732.485 420.703C730.581 410.68 723.234 402.349 714.391 397.235C706.98 392.932 698.987 391.193 690.734 389.368C683.072 387.582 678.399 389.942 671.019 392.774Z" fill="#AE6E79"/>
<path opacity="0.1" d="M755.772 332.858C760.13 338.57 761.059 346.233 760.587 353.384C760.114 360.535 758.415 367.608 758.163 374.79C757.817 384.64 760.193 394.458 759.792 404.276C759.509 411.144 757.88 417.879 755.953 424.471C753.679 432.252 750.391 440.615 743.208 444.351C733.673 449.316 713.675 446.523 703.644 450.409C704.557 444.721 713.305 436.484 714.218 430.796C714.847 426.863 715.484 422.819 714.808 418.878C713.942 413.851 710.992 409.39 707.491 405.677C701.921 399.768 694.652 395.323 686.667 393.876C678.682 392.428 659.132 393.616 652.744 398.659C651.957 393.451 666.59 388.432 671.735 387.307C674.3 386.733 677.242 387.055 679.295 385.427C683.229 382.343 680.373 376.198 680.562 371.266C680.712 367.332 683.009 363.729 683.473 359.795C684.26 353.502 680.153 347.09 681.766 340.914C682.364 338.633 683.693 336.627 684.614 334.455C687.414 327.808 686.187 320.224 684.692 313.159C683.764 308.722 682.859 303.719 685.33 299.935C687.619 296.402 694.117 308.982 698.279 308.4C712.023 306.472 724.461 296.284 735.561 304.623C741.218 308.872 741.957 313.277 744.215 319.343C746.41 325.117 752.098 328.075 755.772 332.858Z" fill="black"/>
<path d="M758.132 332.858C762.49 338.57 763.419 346.232 762.947 353.384C762.475 360.535 760.775 367.607 760.524 374.79C760.177 384.64 762.553 394.458 762.152 404.276C761.869 411.144 760.24 417.878 758.313 424.471C756.039 432.252 752.751 440.614 745.568 444.351C736.033 449.315 716.035 446.523 706.004 450.409C706.917 444.721 715.665 436.484 716.578 430.796C717.207 426.863 717.844 422.819 717.168 418.878C716.302 413.85 713.352 409.39 709.851 405.676C704.281 399.768 697.012 395.323 689.027 393.876C681.042 392.428 661.492 393.616 655.104 398.659C654.317 393.451 668.95 388.432 674.095 387.307C676.66 386.732 679.602 387.055 681.656 385.426C685.589 382.343 682.733 376.198 682.922 371.266C683.072 367.332 685.369 363.729 685.833 359.795C686.62 353.502 682.513 347.09 684.126 340.914C684.724 338.633 686.053 336.627 686.974 334.455C689.774 327.808 688.547 320.224 687.052 313.159C686.124 308.722 685.219 303.718 687.69 299.934C689.979 296.402 694.455 295.065 698.617 294.475C712.551 292.59 726.67 296.232 737.953 304.623C743.609 308.871 744.349 313.277 746.607 319.343C748.77 325.117 754.458 328.075 758.132 332.858Z" fill="#4C4981"/>
<path d="M237.588 295.584L280.361 453.666C280.886 455.603 281.988 457.334 283.522 458.628C285.055 459.923 286.947 460.719 288.944 460.912L481.469 479.407C483.038 479.559 484.62 479.332 486.084 478.746C487.547 478.16 488.848 477.231 489.879 476.039C490.91 474.846 491.64 473.424 492.008 471.891C492.376 470.358 492.372 468.76 491.995 467.229L445.154 276.545C444.597 274.279 443.254 272.283 441.364 270.914C439.474 269.544 437.16 268.888 434.832 269.064L246.344 283.162C244.896 283.274 243.492 283.705 242.23 284.422C240.968 285.14 239.881 286.127 239.044 287.314C238.208 288.5 237.644 289.856 237.392 291.286C237.14 292.716 237.207 294.183 237.588 295.584Z" fill="#9C9CA1"/>
<path d="M619.23 326.431C630.918 326.431 640.393 316.833 640.393 304.993C640.393 293.153 630.918 283.555 619.23 283.555C607.542 283.555 598.067 293.153 598.067 304.993C598.067 316.833 607.542 326.431 619.23 326.431Z" fill="white"/>
<path d="M636.608 265.885C636.608 265.885 641.069 279.15 627.907 284.727L626.224 287.67L634.469 295.804C634.469 295.804 644.633 277.261 643.531 270.677C643.531 270.677 641.958 263.99 636.608 265.885Z" fill="white"/>
<path d="M621.661 326.431C632.932 326.431 642.068 317.294 642.068 306.024C642.068 294.753 632.932 285.616 621.661 285.616C610.39 285.616 601.254 294.753 601.254 306.024C601.254 317.294 610.39 326.431 621.661 326.431Z" fill="#42E7E1"/>
<path d="M643.634 273.69L640.393 268.34L635.672 267.671C636.679 250.057 632.108 244.809 632.108 244.809L631.046 244.707L626.421 244.259L617.719 235.227V232.663C629.945 234.118 636.703 239.924 640.353 246.729C646.804 258.671 643.634 273.69 643.634 273.69Z" fill="#42E7E1"/>
<path opacity="0.1" d="M631.086 241.466V244.707L626.46 244.259L617.759 235.227C617.759 235.227 631.219 238.24 631.086 241.466Z" fill="black" stroke="#4C4981" stroke-miterlimit="10"/>
<path opacity="0.1" d="M643.634 273.69L640.393 268.34V246.76C646.804 258.671 643.634 273.69 643.634 273.69Z" fill="black" stroke="#4C4981" stroke-miterlimit="10"/>
<path d="M583.951 314.412C589.381 311.278 589.147 300.708 583.429 290.804C577.711 280.9 568.674 275.413 563.245 278.548C557.815 281.683 558.049 292.253 563.766 302.156C569.484 312.06 578.521 317.547 583.951 314.412Z" fill="white"/>
<path d="M576.661 294.75C582.38 304.655 589.398 311.271 583.969 314.418C578.541 317.565 562.728 315.991 557.009 306.079C551.289 296.166 556.482 282.477 561.91 279.33C567.338 276.184 570.934 284.822 576.661 294.75Z" fill="#42E7E1"/>
<path opacity="0.1" d="M627.585 223.395C627.585 255.045 605.927 285.546 574.277 285.546C559.077 285.546 544.499 279.507 533.751 268.759C523.003 258.011 516.965 243.434 516.965 228.233C516.965 213.033 523.003 198.456 533.751 187.708C544.499 176.96 559.077 170.921 574.277 170.921C605.927 170.953 627.585 191.738 627.585 223.395Z" fill="black"/>
<path d="M574.277 284.004C605.93 284.004 631.589 258.344 631.589 226.691C631.589 195.039 605.93 169.379 574.277 169.379C542.624 169.379 516.965 195.039 516.965 226.691C516.965 258.344 542.624 284.004 574.277 284.004Z" fill="#AE6E79"/>
<path d="M569.242 201.296C576.063 203.806 580.099 210.855 586.219 214.781C594.873 220.288 606.139 218.864 616.02 216.142C621.527 214.639 627.286 212.806 632.706 214.474C633.504 214.827 634.383 214.952 635.247 214.836C636.427 214.497 637.01 213.191 637.395 212.027C644.098 192.045 641.085 169.411 630.968 150.923C628.356 146.156 625.225 141.545 620.913 138.233C617.515 135.629 613.518 133.922 609.49 132.467C602.129 129.823 594.516 127.943 586.77 126.857C585.402 126.609 584.005 126.564 582.624 126.724C580.728 127.031 579.029 128.053 577.337 128.966C570.093 132.849 562.06 135.031 553.846 135.346C542.832 135.763 530.245 133.167 521.756 140.232C511.529 148.705 514.078 165.233 507.446 176.735C503.056 184.343 494.591 189.865 493.198 198.527C492.836 201.175 493.004 203.868 493.694 206.449C496.935 219.776 509.837 230.098 523.589 230.342C525.701 230.503 527.816 230.07 529.694 229.091C530.925 228.251 532.011 227.218 532.912 226.031C541.92 215.363 552.226 195.034 569.242 201.296Z" fill="#444053"/>
<path opacity="0.1" d="M637.395 206.229C637.01 207.393 636.427 208.699 635.247 209.038C634.383 209.154 633.504 209.029 632.706 208.676C627.286 207.008 621.496 208.841 616.028 210.343C606.139 213.066 594.85 214.521 586.227 208.982C580.099 205.049 576.071 197.968 569.242 195.498C552.226 189.205 541.92 209.565 532.888 220.232C531.988 221.42 530.901 222.453 529.67 223.293C527.792 224.271 525.677 224.705 523.566 224.544C509.861 224.3 496.951 213.978 493.67 200.651C493.49 199.864 493.332 199.078 493.214 198.291C493.214 198.362 493.214 198.425 493.175 198.496C492.812 201.143 492.981 203.836 493.67 206.418C496.912 219.745 509.822 230.066 523.566 230.31C525.677 230.471 527.792 230.038 529.67 229.059C530.901 228.22 531.988 227.186 532.888 225.999C541.92 215.331 552.226 195.003 569.242 201.265C576.071 203.774 580.099 210.823 586.227 214.749C594.881 220.256 606.139 218.832 616.028 216.11C621.535 214.607 627.286 212.774 632.706 214.442C633.504 214.795 634.383 214.921 635.247 214.804C636.427 214.466 637.01 213.16 637.395 211.996C640.099 203.819 641.293 195.22 640.92 186.616C640.688 193.289 639.501 199.893 637.395 206.229Z" fill="black"/>
</g>
<defs>
<clipPath id="clip0">
<rect width="900" height="485.654" fill="white"/>
</clipPath>
</defs>
</svg>
