<svg width="5760" height="3240" viewBox="0 0 5760 3240" fill="none" xmlns="http://www.w3.org/2000/svg">
<g clip-path="url(#clip0)">
<rect width="5760" height="3240" fill="white"/>
<g filter="url(#filter0_d)">
<rect width="5760" height="3240" fill="white"/>
</g>
<rect x="794.405" y="-2089" width="5160" height="5160" rx="400" transform="rotate(43.83 794.405 -2089)" fill="#EBEBEB"/>
<rect x="780.405" y="-2243" width="5160" height="5160" rx="400" transform="rotate(43.83 780.405 -2243)" fill="#1C1160"/>
<path d="M1837.82 2729V2672.2H1845.02V2729H1837.82ZM1893.72 2729H1886.68V2705.64C1886.68 2701.16 1885.98 2697.91 1884.6 2695.88C1883.26 2693.85 1881.21 2692.84 1878.44 2692.84C1877 2692.84 1875.56 2693.13 1874.12 2693.72C1872.68 2694.25 1871.32 2695 1870.04 2695.96C1868.76 2696.92 1867.64 2698.07 1866.68 2699.4C1865.72 2700.73 1865 2702.2 1864.52 2703.8V2729H1857.48V2687.24H1863.88V2696.2C1865.53 2693.27 1867.9 2690.92 1871 2689.16C1874.14 2687.4 1877.56 2686.52 1881.24 2686.52C1883.64 2686.52 1885.64 2686.97 1887.24 2687.88C1888.84 2688.73 1890.12 2689.96 1891.08 2691.56C1892.04 2693.11 1892.7 2694.95 1893.08 2697.08C1893.5 2699.21 1893.72 2701.53 1893.72 2704.04V2729ZM1925.87 2726.92C1925.45 2727.13 1924.89 2727.4 1924.19 2727.72C1923.5 2727.99 1922.7 2728.28 1921.79 2728.6C1920.94 2728.87 1919.98 2729.08 1918.91 2729.24C1917.9 2729.45 1916.83 2729.56 1915.71 2729.56C1913.15 2729.56 1910.94 2728.87 1909.07 2727.48C1907.21 2726.04 1906.27 2723.83 1906.27 2720.84V2692.76H1900.59V2687.24H1906.27V2673.32H1913.31V2687.24H1922.67V2692.76H1913.31V2718.68C1913.42 2720.23 1913.93 2721.35 1914.83 2722.04C1915.74 2722.73 1916.81 2723.08 1918.03 2723.08C1919.42 2723.08 1920.67 2722.87 1921.79 2722.44C1922.97 2721.96 1923.77 2721.59 1924.19 2721.32L1925.87 2726.92ZM1950.33 2729.8C1947.19 2729.8 1944.31 2729.24 1941.69 2728.12C1939.08 2726.95 1936.84 2725.37 1934.97 2723.4C1933.11 2721.43 1931.64 2719.13 1930.57 2716.52C1929.56 2713.85 1929.05 2711.05 1929.05 2708.12C1929.05 2705.19 1929.56 2702.41 1930.57 2699.8C1931.64 2697.19 1933.11 2694.89 1934.97 2692.92C1936.89 2690.95 1939.16 2689.4 1941.77 2688.28C1944.39 2687.11 1947.27 2686.52 1950.41 2686.52C1953.56 2686.52 1956.41 2687.11 1958.97 2688.28C1961.59 2689.45 1963.8 2691.03 1965.61 2693C1967.43 2694.92 1968.81 2697.19 1969.77 2699.8C1970.79 2702.36 1971.29 2705.03 1971.29 2707.8C1971.29 2708.39 1971.27 2708.92 1971.21 2709.4C1971.21 2709.88 1971.19 2710.25 1971.13 2710.52H1936.49C1936.65 2712.6 1937.13 2714.49 1937.93 2716.2C1938.73 2717.91 1939.77 2719.37 1941.05 2720.6C1942.33 2721.83 1943.77 2722.79 1945.37 2723.48C1947.03 2724.17 1948.76 2724.52 1950.57 2724.52C1951.85 2724.52 1953.11 2724.36 1954.33 2724.04C1955.56 2723.67 1956.71 2723.19 1957.77 2722.6C1958.84 2722.01 1959.77 2721.29 1960.57 2720.44C1961.43 2719.59 1962.07 2718.63 1962.49 2717.56L1968.57 2719.24C1967.88 2720.79 1966.92 2722.2 1965.69 2723.48C1964.52 2724.76 1963.13 2725.88 1961.53 2726.84C1959.99 2727.75 1958.25 2728.47 1956.33 2729C1954.41 2729.53 1952.41 2729.8 1950.33 2729.8ZM1964.65 2705.32C1964.49 2703.35 1963.99 2701.53 1963.13 2699.88C1962.33 2698.17 1961.29 2696.73 1960.01 2695.56C1958.79 2694.39 1957.35 2693.48 1955.69 2692.84C1954.04 2692.15 1952.28 2691.8 1950.41 2691.8C1948.55 2691.8 1946.79 2692.15 1945.13 2692.84C1943.48 2693.48 1942.01 2694.41 1940.73 2695.64C1939.51 2696.81 1938.49 2698.23 1937.69 2699.88C1936.95 2701.53 1936.49 2703.35 1936.33 2705.32H1964.65ZM1995.76 2729.48C1992.93 2729.48 1990.32 2728.89 1987.92 2727.72C1985.57 2726.55 1983.54 2724.97 1981.84 2723C1980.13 2721.03 1978.8 2718.76 1977.84 2716.2C1976.93 2713.64 1976.48 2710.97 1976.48 2708.2C1976.48 2705.27 1976.93 2702.49 1977.84 2699.88C1978.8 2697.21 1980.13 2694.89 1981.84 2692.92C1983.54 2690.95 1985.57 2689.4 1987.92 2688.28C1990.32 2687.11 1992.96 2686.52 1995.84 2686.52C1999.36 2686.52 2002.4 2687.37 2004.96 2689.08C2007.52 2690.79 2009.68 2692.95 2011.44 2695.56V2687.24H2017.68V2728.52C2017.68 2731.51 2017.12 2734.12 2016 2736.36C2014.88 2738.65 2013.36 2740.57 2011.44 2742.12C2009.52 2743.67 2007.25 2744.84 2004.64 2745.64C2002.08 2746.44 1999.33 2746.84 1996.4 2746.84C1991.65 2746.84 1987.78 2746.01 1984.8 2744.36C1981.86 2742.76 1979.41 2740.52 1977.44 2737.64L1981.52 2734.04C1983.17 2736.49 1985.3 2738.33 1987.92 2739.56C1990.53 2740.79 1993.36 2741.4 1996.4 2741.4C1998.32 2741.4 2000.13 2741.13 2001.84 2740.6C2003.6 2740.07 2005.12 2739.27 2006.4 2738.2C2007.68 2737.13 2008.69 2735.8 2009.44 2734.2C2010.24 2732.6 2010.64 2730.71 2010.64 2728.52V2721.16C2009.84 2722.44 2008.88 2723.61 2007.76 2724.68C2006.69 2725.69 2005.52 2726.57 2004.24 2727.32C2002.96 2728.01 2001.6 2728.55 2000.16 2728.92C1998.72 2729.29 1997.25 2729.48 1995.76 2729.48ZM1997.92 2723.72C1999.41 2723.72 2000.85 2723.45 2002.24 2722.92C2003.62 2722.39 2004.9 2721.69 2006.08 2720.84C2007.25 2719.93 2008.24 2718.92 2009.04 2717.8C2009.84 2716.68 2010.37 2715.53 2010.64 2714.36V2702.36C2010.05 2700.92 2009.28 2699.61 2008.32 2698.44C2007.41 2697.27 2006.37 2696.25 2005.2 2695.4C2004.02 2694.49 2002.74 2693.8 2001.36 2693.32C2000.02 2692.84 1998.66 2692.6 1997.28 2692.6C1995.14 2692.6 1993.22 2693.05 1991.52 2693.96C1989.86 2694.87 1988.45 2696.07 1987.28 2697.56C1986.1 2699.05 1985.2 2700.76 1984.56 2702.68C1983.92 2704.55 1983.6 2706.44 1983.6 2708.36C1983.6 2710.44 1983.97 2712.41 1984.72 2714.28C1985.46 2716.15 1986.48 2717.77 1987.76 2719.16C1989.04 2720.55 1990.53 2721.67 1992.24 2722.52C1994 2723.32 1995.89 2723.72 1997.92 2723.72ZM2051.12 2693.4C2047.6 2693.51 2044.48 2694.41 2041.76 2696.12C2039.09 2697.83 2037.2 2700.2 2036.08 2703.24V2729H2029.04V2687.24H2035.6V2696.92C2037.04 2694.04 2038.93 2691.72 2041.28 2689.96C2043.63 2688.15 2046.13 2687.13 2048.8 2686.92C2049.33 2686.92 2049.79 2686.92 2050.16 2686.92C2050.53 2686.92 2050.85 2686.95 2051.12 2687V2693.4ZM2068.82 2729.8C2066.85 2729.8 2065.01 2729.48 2063.3 2728.84C2061.6 2728.15 2060.1 2727.21 2058.82 2726.04C2057.6 2724.87 2056.61 2723.51 2055.86 2721.96C2055.17 2720.36 2054.82 2718.63 2054.82 2716.76C2054.82 2714.84 2055.25 2713.11 2056.1 2711.56C2056.96 2709.96 2058.16 2708.6 2059.7 2707.48C2061.3 2706.36 2063.17 2705.48 2065.3 2704.84C2067.49 2704.2 2069.86 2703.88 2072.42 2703.88C2074.45 2703.88 2076.5 2704.07 2078.58 2704.44C2080.66 2704.81 2082.5 2705.32 2084.1 2705.96V2702.6C2084.1 2699.19 2083.14 2696.52 2081.22 2694.6C2079.3 2692.63 2076.58 2691.64 2073.06 2691.64C2068.85 2691.64 2064.42 2693.27 2059.78 2696.52L2057.46 2691.96C2062.85 2688.33 2068.26 2686.52 2073.7 2686.52C2079.2 2686.52 2083.46 2687.99 2086.5 2690.92C2089.6 2693.85 2091.14 2697.99 2091.14 2703.32V2720.36C2091.14 2722.01 2091.89 2722.87 2093.38 2722.92V2729C2092.64 2729.11 2092.02 2729.19 2091.54 2729.24C2091.06 2729.29 2090.56 2729.32 2090.02 2729.32C2088.64 2729.32 2087.52 2728.92 2086.66 2728.12C2085.86 2727.27 2085.38 2726.25 2085.22 2725.08L2085.06 2722.12C2083.2 2724.63 2080.82 2726.55 2077.94 2727.88C2075.12 2729.16 2072.08 2729.8 2068.82 2729.8ZM2070.66 2724.52C2073.17 2724.52 2075.49 2724.07 2077.62 2723.16C2079.81 2722.2 2081.46 2720.95 2082.58 2719.4C2083.6 2718.39 2084.1 2717.35 2084.1 2716.28V2710.12C2080.69 2708.79 2077.14 2708.12 2073.46 2708.12C2069.94 2708.12 2067.06 2708.87 2064.82 2710.36C2062.64 2711.85 2061.54 2713.8 2061.54 2716.2C2061.54 2717.37 2061.76 2718.47 2062.18 2719.48C2062.66 2720.49 2063.3 2721.37 2064.1 2722.12C2064.96 2722.87 2065.94 2723.45 2067.06 2723.88C2068.18 2724.31 2069.38 2724.52 2070.66 2724.52ZM2123.75 2729V2672.2H2147.43C2149.94 2672.2 2152.23 2672.73 2154.31 2673.8C2156.45 2674.81 2158.26 2676.2 2159.75 2677.96C2161.3 2679.67 2162.5 2681.61 2163.35 2683.8C2164.21 2685.93 2164.63 2688.12 2164.63 2690.36C2164.63 2692.71 2164.23 2694.97 2163.43 2697.16C2162.63 2699.35 2161.49 2701.29 2159.99 2703C2158.55 2704.71 2156.79 2706.07 2154.71 2707.08C2152.69 2708.09 2150.42 2708.6 2147.91 2708.6H2130.95V2729H2123.75ZM2130.95 2702.2H2147.51C2149.01 2702.2 2150.34 2701.91 2151.51 2701.32C2152.74 2700.68 2153.78 2699.83 2154.63 2698.76C2155.49 2697.64 2156.15 2696.36 2156.63 2694.92C2157.11 2693.48 2157.35 2691.96 2157.35 2690.36C2157.35 2688.71 2157.06 2687.16 2156.47 2685.72C2155.94 2684.28 2155.19 2683.03 2154.23 2681.96C2153.33 2680.89 2152.23 2680.07 2150.95 2679.48C2149.73 2678.89 2148.42 2678.6 2147.03 2678.6H2130.95V2702.2ZM2180.5 2679.08V2670.92H2186.42V2679.08H2180.5ZM2193.46 2679.08V2670.92H2199.38V2679.08H2193.46ZM2189.94 2729.8C2186.79 2729.8 2183.91 2729.21 2181.3 2728.04C2178.74 2726.87 2176.52 2725.29 2174.66 2723.32C2172.84 2721.35 2171.43 2719.05 2170.42 2716.44C2169.4 2713.83 2168.9 2711.08 2168.9 2708.2C2168.9 2705.27 2169.4 2702.49 2170.42 2699.88C2171.48 2697.27 2172.92 2694.97 2174.74 2693C2176.6 2691.03 2178.82 2689.45 2181.38 2688.28C2183.99 2687.11 2186.84 2686.52 2189.94 2686.52C2193.03 2686.52 2195.88 2687.11 2198.5 2688.28C2201.11 2689.45 2203.32 2691.03 2205.14 2693C2207 2694.97 2208.44 2697.27 2209.46 2699.88C2210.52 2702.49 2211.06 2705.27 2211.06 2708.2C2211.06 2711.08 2210.55 2713.83 2209.54 2716.44C2208.52 2719.05 2207.08 2721.35 2205.22 2723.32C2203.35 2725.29 2201.11 2726.87 2198.5 2728.04C2195.94 2729.21 2193.08 2729.8 2189.94 2729.8ZM2176.1 2708.28C2176.1 2710.47 2176.44 2712.49 2177.14 2714.36C2177.88 2716.23 2178.87 2717.85 2180.1 2719.24C2181.38 2720.63 2182.84 2721.72 2184.5 2722.52C2186.2 2723.32 2188.02 2723.72 2189.94 2723.72C2191.86 2723.72 2193.64 2723.32 2195.3 2722.52C2197 2721.72 2198.5 2720.63 2199.78 2719.24C2201.06 2717.8 2202.04 2716.15 2202.74 2714.28C2203.48 2712.36 2203.86 2710.31 2203.86 2708.12C2203.86 2705.99 2203.48 2703.99 2202.74 2702.12C2202.04 2700.2 2201.06 2698.55 2199.78 2697.16C2198.5 2695.72 2197 2694.6 2195.3 2693.8C2193.64 2693 2191.86 2692.6 2189.94 2692.6C2188.02 2692.6 2186.2 2693.03 2184.5 2693.88C2182.84 2694.68 2181.38 2695.8 2180.1 2697.24C2178.87 2698.63 2177.88 2700.28 2177.14 2702.2C2176.44 2704.07 2176.1 2706.09 2176.1 2708.28ZM2219.75 2670.6H2226.79V2718.2C2226.79 2719.75 2227.19 2720.97 2227.99 2721.88C2228.84 2722.73 2230.01 2723.16 2231.51 2723.16C2232.09 2723.16 2232.79 2723.08 2233.59 2722.92C2234.39 2722.71 2235.13 2722.47 2235.83 2722.2L2236.95 2727.88C2235.77 2728.36 2234.39 2728.76 2232.79 2729.08C2231.19 2729.4 2229.77 2729.56 2228.55 2729.56C2225.83 2729.56 2223.67 2728.79 2222.07 2727.24C2220.52 2725.69 2219.75 2723.53 2219.75 2720.76V2670.6ZM2278.72 2729H2271.68V2705.64C2271.68 2701.32 2270.93 2698.12 2269.44 2696.04C2267.94 2693.91 2265.76 2692.84 2262.88 2692.84C2261.49 2692.84 2260.1 2693.13 2258.72 2693.72C2257.33 2694.25 2256.02 2695 2254.8 2695.96C2253.62 2696.92 2252.56 2698.07 2251.6 2699.4C2250.69 2700.73 2250 2702.2 2249.52 2703.8V2729H2242.48V2670.6H2249.52V2696.2C2251.17 2693.16 2253.41 2690.79 2256.24 2689.08C2259.06 2687.37 2262.16 2686.52 2265.52 2686.52C2267.97 2686.52 2270.05 2686.97 2271.76 2687.88C2273.46 2688.79 2274.82 2690.01 2275.84 2691.56C2276.85 2693.11 2277.57 2694.97 2278 2697.16C2278.48 2699.29 2278.72 2701.59 2278.72 2704.04V2729Z" fill="#1C1160"/>
</g>
<defs>
<filter id="filter0_d" x="-60" y="-36" width="5860" height="3340" filterUnits="userSpaceOnUse" color-interpolation-filters="sRGB">
<feFlood flood-opacity="0" result="BackgroundImageFix"/>
<feColorMatrix in="SourceAlpha" type="matrix" values="0 0 0 0 0 0 0 0 0 0 0 0 0 0 0 0 0 0 127 0"/>
<feOffset dx="-10" dy="14"/>
<feGaussianBlur stdDeviation="25"/>
<feColorMatrix type="matrix" values="0 0 0 0 0 0 0 0 0 0 0 0 0 0 0 0 0 0 0.25 0"/>
<feBlend mode="normal" in2="BackgroundImageFix" result="effect1_dropShadow"/>
<feBlend mode="normal" in="SourceGraphic" in2="effect1_dropShadow" result="shape"/>
</filter>
<clipPath id="clip0">
<rect width="5760" height="3240" fill="white"/>
</clipPath>
</defs>
</svg>
