<svg width="2205" height="2098" viewBox="0 0 2205 2098" fill="none" xmlns="http://www.w3.org/2000/svg">
<path d="M668.089 2084.87L21.2451 1711.03C-10.1944 1692.85 -6.26453 1661.17 30.026 1640.23L1414.29 841.04C1450.58 820.101 1505.47 817.829 1536.91 835.943L2183.76 1209.78C2215.2 1227.96 2211.27 1259.64 2174.98 1280.58L790.716 2079.83C754.425 2100.77 699.529 2103.04 668.089 2084.87Z" fill="#787878" fill-opacity="0.15"/>
<path d="M2150.47 1055.71L2151.21 1056.63L1539.25 702.938C1508.05 684.946 1453.52 687.157 1417.48 707.973L46.4818 1499.49L0.734818 1482.05L13.5685 1546.16L13.6299 1546.09C15.3492 1555.74 22.1039 1564.76 34.2007 1571.76L665.816 1936.82C697.01 1954.81 751.538 1952.6 787.583 1931.78L2162.08 1138.24C2179.03 1128.48 2188.79 1116.32 2191.19 1104.28L2191.25 1104.41L2204.39 1041.96L2150.47 1055.71Z" fill="url(#paint0_linear)"/>
<path d="M668.1 1880.45L21.2558 1506.61C-10.1837 1488.44 -6.2538 1456.75 30.0368 1435.81L1414.3 636.621C1450.59 615.681 1505.48 613.409 1536.92 631.524L2183.77 1005.36C2215.21 1023.54 2211.28 1055.22 2174.99 1076.16L790.726 1875.35C754.436 1896.29 699.539 1898.56 668.1 1880.45Z" fill="url(#paint1_linear)"/>
<g opacity="0.6" filter="url(#filter0_f)">
<path d="M863.112 1670.07L384.826 1393.68C361.553 1380.24 364.5 1356.84 391.335 1341.31L1238.73 853.134C1265.56 837.659 1306.15 835.94 1329.42 849.388L1807.71 1125.77C1830.98 1139.22 1828.04 1162.62 1801.2 1178.15L953.808 1666.32C926.912 1681.8 886.323 1683.46 863.112 1670.07Z" fill="#42E7E1" fill-opacity="0.4"/>
</g>
<path d="M2174.98 1059.77L790.714 1858.96C754.424 1879.9 699.528 1882.17 668.088 1864.05L21.244 1490.22C10.3138 1483.89 3.74349 1475.97 1.22587 1467.38C-2.94969 1481.87 3.49783 1496.36 21.244 1506.61L668.088 1880.45C699.528 1898.63 754.424 1896.35 790.714 1875.35L2174.98 1076.16C2198.68 1062.47 2208.44 1044.23 2203.77 1028.21C2200.52 1039.44 2190.88 1050.62 2174.98 1059.77Z" fill="white"/>
<g opacity="0.6" filter="url(#filter1_f)">
<path d="M1422.27 1318.53L1018.1 1085.13L1302.65 920.927L1706.88 1154.27L1422.27 1318.53Z" fill="#DAF9FF" fill-opacity="0.75"/>
</g>
<path opacity="0.6" d="M1814.9 894.646L1685.58 819.977C1680.85 817.214 1681.4 812.424 1686.93 809.292C1692.39 806.161 1700.68 805.792 1705.41 808.555L1834.73 883.224C1839.46 885.988 1838.91 890.716 1833.38 893.909C1827.91 897.04 1819.62 897.348 1814.9 894.646Z" fill="#380031"/>
<path d="M1699.27 217.224L1329.49 4.02421C1320.95 -0.888218 1313.21 -1.13382 1307.32 2.36629L1307.26 2.30487L1012.2 172.828L1120.77 370.184V551.207C1120.77 576.015 1135.87 604.876 1154.48 615.622L1260.34 676.72L1429.7 1231.82L1720.64 1064C1720.76 1063.94 1720.88 1063.88 1721.01 1063.76L1721.99 1063.21V1063.14C1728.74 1058.85 1732.98 1049.51 1732.98 1036.37V281.638C1732.98 256.83 1717.94 227.97 1699.27 217.224Z" fill="url(#paint2_radial)"/>
<path d="M1405.63 1231.39L1035.85 1018.19C1017.24 1007.45 1002.13 978.585 1002.13 953.777V199.044C1002.13 174.236 1017.24 162.815 1035.85 173.561L1405.63 386.76C1424.23 397.506 1439.34 426.367 1439.34 451.175V1205.91C1439.34 1230.72 1424.23 1242.14 1405.63 1231.39Z" fill="url(#paint3_linear)"/>
<path d="M1035.85 173.564L1405.63 386.764C1413.49 391.308 1420.67 399.045 1426.45 408.378L1719.84 238.47C1714.13 229.32 1707.01 221.706 1699.27 217.224L1329.49 4.02421C1320.95 -0.888218 1313.22 -1.13382 1307.32 2.36629L1307.26 2.30487L1015.15 171.108C1020.86 168.529 1028.05 169.082 1035.85 173.564Z" fill="url(#paint4_linear)"/>
<path d="M1012.39 172.765L1012.21 172.888C1012.27 172.826 1012.33 172.765 1012.39 172.765Z" fill="url(#paint5_linear)"/>
<path d="M1428.29 396.954C1422.58 387.621 1413.49 380.927 1405.69 376.383L1035.91 163.184C1034.62 162.447 1033.39 161.833 1032.16 161.342L1015.22 171.105C1020.93 168.465 1028.11 169.017 1035.91 173.561L1405.69 386.761C1413.55 391.305 1420.74 399.042 1426.51 408.376L1719.9 238.467C1718.31 235.888 1716.53 233.432 1714.68 231.098L1428.29 396.954Z" fill="white"/>
<path d="M1012.39 162.386L1012.21 162.509C1012.27 162.448 1012.33 162.448 1012.39 162.386Z" fill="url(#paint6_linear)"/>
<path d="M1396.73 567.299C1394.76 567.299 1392.61 566.685 1390.52 565.457L1048.13 367.732C1040.64 363.372 1034.74 352.319 1034.74 342.433V248.79C1034.74 243.079 1036.77 238.658 1040.33 236.631C1043.46 234.851 1047.27 235.035 1051.07 237.246L1393.47 434.971C1400.96 439.331 1406.86 450.384 1406.86 460.27V553.913C1406.86 559.624 1404.83 564.045 1401.27 566.071C1399.86 566.869 1398.32 567.299 1396.73 567.299ZM1044.81 241.36C1044.26 241.36 1043.71 241.482 1043.21 241.789C1041.56 242.772 1040.57 245.351 1040.57 248.851V342.494C1040.57 350.17 1045.36 359.381 1051.01 362.697L1393.41 560.422C1394.76 561.22 1396.66 561.957 1398.26 561.036C1399.92 560.053 1400.9 557.474 1400.9 553.974V460.208C1400.9 452.533 1396.11 443.322 1390.46 440.006L1048.07 242.281C1047.14 241.851 1045.98 241.36 1044.81 241.36Z" fill="#183372"/>
<path d="M1244.68 389.776L1196.79 362.082C1194.45 360.731 1192.55 357.108 1192.55 354.038C1192.55 350.906 1194.45 349.494 1196.79 350.845L1244.68 378.539C1247.02 379.89 1248.92 383.512 1248.92 386.583C1248.92 389.714 1247.08 391.127 1244.68 389.776Z" fill="#183372"/>
<path d="M1396.73 755.073C1394.76 755.073 1392.61 754.459 1390.52 753.231L1048.13 555.506C1040.64 551.146 1034.74 540.093 1034.74 530.207V436.564C1034.74 430.853 1036.77 426.432 1040.33 424.405C1043.46 422.625 1047.27 422.809 1051.07 425.019L1393.47 622.745C1400.96 627.105 1406.86 638.157 1406.86 648.044V741.687C1406.86 747.398 1404.83 751.819 1401.27 753.845C1399.86 754.643 1398.32 755.073 1396.73 755.073ZM1044.81 429.134C1044.26 429.134 1043.71 429.256 1043.21 429.563C1041.56 430.546 1040.57 433.186 1040.57 436.625V530.268C1040.57 537.944 1045.36 547.155 1051.01 550.471L1393.41 748.196C1394.76 748.994 1396.66 749.731 1398.26 748.81C1399.92 747.827 1400.9 745.248 1400.9 741.748V648.105C1400.9 640.429 1396.11 631.219 1390.46 627.903L1048.07 430.178C1047.14 429.625 1045.98 429.134 1044.81 429.134Z" fill="#183372"/>
<path d="M1244.68 577.614L1196.79 549.92C1194.45 548.569 1192.55 544.946 1192.55 541.876C1192.55 538.744 1194.45 537.332 1196.79 538.683L1244.68 566.377C1247.02 567.728 1248.92 571.351 1248.92 574.421C1248.92 577.491 1247.08 578.904 1244.68 577.614Z" fill="#183372"/>
<path d="M1396.73 944.817C1394.76 944.817 1392.61 944.203 1390.52 942.975L1048.13 745.25C1040.64 740.89 1034.74 729.837 1034.74 719.951V626.308C1034.74 620.597 1036.77 616.176 1040.33 614.15C1043.46 612.369 1047.27 612.553 1051.07 614.764L1393.47 812.489C1400.96 816.849 1406.86 827.902 1406.86 837.788V931.431C1406.86 937.142 1404.83 941.563 1401.27 943.589C1399.86 944.449 1398.32 944.817 1396.73 944.817ZM1044.81 618.878C1044.26 618.878 1043.71 619.001 1043.21 619.308C1041.56 620.29 1040.57 622.869 1040.57 626.369V720.012C1040.57 727.688 1045.36 736.899 1051.01 740.215L1393.41 937.94C1394.76 938.738 1396.66 939.475 1398.26 938.554C1399.92 937.572 1400.9 934.931 1400.9 931.492V837.849C1400.9 830.174 1396.11 820.963 1390.46 817.647L1048.07 619.922C1047.14 619.369 1045.98 618.878 1044.81 618.878Z" fill="#183372"/>
<path d="M1244.68 767.353L1196.79 739.659C1194.45 738.308 1192.55 734.685 1192.55 731.615C1192.55 728.483 1194.45 727.071 1196.79 728.422L1244.68 756.116C1247.02 757.467 1248.92 761.09 1248.92 764.16C1248.92 767.292 1247.08 768.704 1244.68 767.353Z" fill="#183372"/>
<path d="M1396.73 1130.63C1394.76 1130.63 1392.61 1130.01 1390.52 1128.78L1048.13 931.06C1040.64 926.761 1034.74 915.647 1034.74 905.761V812.117C1034.74 806.407 1036.77 801.985 1040.33 799.959C1043.46 798.178 1047.27 798.363 1051.07 800.573L1393.47 998.298C1400.96 1002.6 1406.86 1013.71 1406.86 1023.6V1117.24C1406.86 1122.95 1404.83 1127.37 1401.27 1129.4C1399.86 1130.2 1398.32 1130.63 1396.73 1130.63ZM1044.81 804.687C1044.26 804.687 1043.71 804.81 1043.21 805.117C1041.56 806.1 1040.57 808.74 1040.57 812.179V905.822C1040.57 913.498 1045.36 922.708 1051.01 926.024L1393.41 1123.75C1394.76 1124.55 1396.66 1125.28 1398.26 1124.36C1399.92 1123.38 1400.9 1120.74 1400.9 1117.3V1023.66C1400.9 1015.98 1396.11 1006.77 1390.46 1003.52L1048.07 805.793C1047.14 805.179 1045.98 804.687 1044.81 804.687Z" fill="#183372"/>
<path d="M1244.68 953.167L1196.79 925.474C1194.45 924.123 1192.55 920.5 1192.55 917.429C1192.55 914.298 1194.45 912.885 1196.79 914.236L1244.68 941.93C1247.02 943.281 1248.92 946.904 1248.92 949.974C1248.92 953.045 1247.08 954.457 1244.68 953.167Z" fill="#043A76"/>
<g opacity="0.6" filter="url(#filter2_f)">
<path d="M902.349 1617.76L498.117 1384.42L782.731 1220.16L1186.9 1453.56L902.349 1617.76Z" fill="#DAF9FF" fill-opacity="0.75"/>
</g>
<path d="M1195.44 525.784L826.575 313.137C818.102 308.225 810.364 307.979 804.47 311.479L804.408 311.418L510.092 481.511L618.35 678.376V858.908C618.35 883.654 633.394 912.453 652 923.138L757.617 984.113L926.543 1537.81L1216.81 1370.41C1216.93 1370.35 1217.05 1370.29 1217.18 1370.23L1218.16 1369.68V1369.62C1224.91 1365.32 1229.15 1355.98 1229.15 1342.9V590.014C1229.09 565.267 1214.04 536.53 1195.44 525.784Z" fill="url(#paint7_radial)"/>
<path d="M902.535 1537.44L533.673 1324.79C515.129 1314.05 500.023 1285.31 500.023 1260.56V507.672C500.023 482.925 515.067 471.504 533.673 482.25L902.535 694.897C921.079 705.643 936.185 734.38 936.185 759.127V1512.02C936.185 1536.76 921.079 1548.19 902.535 1537.44Z" fill="url(#paint8_linear)"/>
<path d="M533.672 482.247L902.534 694.894C910.394 699.438 917.578 707.175 923.289 716.447L1215.95 546.969C1210.3 537.819 1203.17 530.266 1195.44 525.784L826.575 313.137C818.101 308.225 810.364 307.979 804.469 311.479L804.408 311.418L513.04 479.791C518.75 477.212 525.873 477.765 533.672 482.247Z" fill="url(#paint9_linear)"/>
<path d="M510.276 481.389L510.092 481.511C510.153 481.511 510.215 481.45 510.276 481.389Z" fill="url(#paint10_linear)"/>
<path d="M925.131 705.087C919.42 695.815 910.394 689.122 902.595 684.578L533.733 471.931C532.444 471.194 531.216 470.642 529.988 470.089L513.101 479.852C518.812 477.212 525.935 477.765 533.733 482.247L902.595 694.894C910.455 699.438 917.64 707.175 923.35 716.447L1216.01 546.968C1214.41 544.389 1212.63 541.933 1210.79 539.661L925.131 705.087Z" fill="white"/>
<path d="M510.276 471.074L510.092 471.197C510.153 471.136 510.215 471.136 510.276 471.074Z" fill="url(#paint11_linear)"/>
<path d="M893.63 874.936C891.665 874.936 889.516 874.322 887.428 873.093L545.83 675.859C538.339 671.561 532.505 660.447 532.505 650.622V557.224C532.505 551.575 534.532 547.092 538.093 545.066C541.225 543.285 545.032 543.47 548.839 545.68L890.437 742.914C897.928 747.212 903.762 758.327 903.762 768.152V861.549C903.762 867.199 901.736 871.681 898.174 873.707C896.762 874.567 895.227 874.936 893.63 874.936ZM890.376 868.058C891.727 868.856 893.63 869.593 895.165 868.672C896.823 867.751 897.806 865.111 897.806 861.611V768.213C897.806 760.537 893.016 751.327 887.428 748.072L545.83 550.838C544.479 550.04 542.576 549.303 541.041 550.224C539.383 551.145 538.4 553.786 538.4 557.286V650.683C538.4 658.359 543.19 667.57 548.778 670.824L890.376 868.058Z" fill="#183372"/>
<path d="M742.02 697.904L694.246 670.333C691.913 668.983 690.009 665.36 690.009 662.289C690.009 659.158 691.913 657.745 694.246 659.096L742.02 686.667C744.353 688.018 746.257 691.641 746.257 694.711C746.195 697.843 744.353 699.255 742.02 697.904Z" fill="#183372"/>
<path d="M893.63 1062.28C891.665 1062.28 889.516 1061.67 887.428 1060.44L545.83 863.208C538.339 858.91 532.505 847.795 532.505 837.97V744.573C532.505 738.924 534.532 734.441 538.093 732.415C541.225 730.634 545.032 730.818 548.839 733.029L890.437 930.263C897.928 934.561 903.762 945.675 903.762 955.5V1048.9C903.762 1054.55 901.736 1059.03 898.174 1061.06C896.762 1061.85 895.227 1062.28 893.63 1062.28ZM890.376 1055.35C891.727 1056.14 893.63 1056.88 895.165 1055.96C896.823 1055.04 897.806 1052.4 897.806 1048.9V955.5C897.806 947.825 893.016 938.614 887.428 935.359L545.83 738.125C544.479 737.327 542.576 736.59 541.041 737.511C539.383 738.432 538.4 741.073 538.4 744.573V837.97C538.4 845.646 543.19 854.857 548.778 858.111L890.376 1055.35Z" fill="#183372"/>
<path d="M742.02 885.248L694.246 857.677C691.913 856.326 690.009 852.703 690.009 849.633C690.009 846.501 691.913 845.089 694.246 846.439L742.02 874.011C744.353 875.361 746.257 878.984 746.257 882.055C746.195 885.125 744.353 886.599 742.02 885.248Z" fill="#183372"/>
<path d="M888.902 1245.21L547.304 1047.97C540.734 1044.17 535.453 1034.03 535.453 1025.31V931.917C535.453 923.198 540.795 919.145 547.304 922.952L888.902 1120.19C895.472 1123.99 900.753 1134.13 900.753 1142.84V1236.24C900.753 1244.96 895.411 1249.01 888.902 1245.21Z" fill="#043A76"/>
<path d="M893.63 1436.92C891.665 1436.92 889.516 1436.3 887.428 1435.07L545.83 1237.84C538.339 1233.54 532.505 1222.43 532.505 1212.6V1119.21C532.505 1113.56 534.532 1109.07 538.093 1107.05C541.225 1105.27 545.032 1105.45 548.839 1107.66L890.437 1304.9C897.928 1309.19 903.762 1320.31 903.762 1330.13V1423.59C903.762 1429.24 901.736 1433.72 898.174 1435.75C896.762 1436.49 895.227 1436.92 893.63 1436.92ZM890.376 1429.98C891.727 1430.78 893.63 1431.51 895.165 1430.59C896.823 1429.67 897.806 1427.03 897.806 1423.53V1330.07C897.806 1322.4 893.016 1313.19 887.428 1309.93L545.83 1112.7C544.479 1111.9 542.576 1111.16 541.041 1112.08C539.383 1113 538.4 1115.64 538.4 1119.14V1212.54C538.4 1220.22 543.19 1229.43 548.778 1232.68L890.376 1429.98Z" fill="#183372"/>
<path d="M742.02 1259.89L694.246 1232.31C691.913 1230.96 690.009 1227.34 690.009 1224.27C690.009 1221.14 691.913 1219.73 694.246 1221.08L742.02 1248.65C744.353 1250 746.257 1253.62 746.257 1256.69C746.195 1259.76 744.353 1261.24 742.02 1259.89Z" fill="#043A76"/>
<path d="M614.112 1146.22L566.278 1118.65C563.944 1117.3 562.041 1113.68 562.041 1110.61C562.041 1107.48 563.944 1106.06 566.278 1107.42L614.112 1134.99C616.446 1136.34 618.349 1139.96 618.349 1143.03C618.288 1146.16 616.446 1147.57 614.112 1146.22Z" fill="#043A76"/>
<path d="M641.008 976.991L411.352 1109.57V1019.12L562.655 931.797L641.008 976.991Z" fill="#3DC6E3"/>
<path d="M547.366 940.578L615.587 979.939L630.877 971.158L562.656 931.797L547.366 940.578Z" fill="#A0FFF9"/>
<path d="M756.575 1252.21L892.895 1123.44C892.895 1123.44 891.237 1120.98 886.201 1118.59L647.519 980.795L497.444 1055.46L579.789 1163.91L756.575 1252.21Z" fill="url(#paint12_radial)"/>
<path d="M649.053 981.655L417.739 1115.21V1024.7L570.7 936.399L649.053 981.655Z" fill="url(#paint13_radial)"/>
<path d="M900.751 1142.79C900.751 1135.97 897.497 1128.3 892.891 1123.45L733.913 1215.62V1306.07L900.69 1210.58V1142.79H900.751Z" fill="#3DC6E3"/>
<path d="M876.803 1132.78L900.752 1146.6V1142.79C900.752 1135.97 897.497 1128.3 892.892 1123.45L876.803 1132.78Z" fill="#A0FFF9"/>
<path d="M760.992 1193.82L419.394 996.584C416.385 994.864 413.684 994.803 411.596 996.031V995.97L401.218 1002.11L407.789 1002.72C407.666 1003.58 407.543 1004.57 407.543 1005.55V1098.95C407.543 1107.67 412.885 1117.86 419.394 1121.6L758.352 1317.3V1325.53L768.668 1319.45L768.545 1319.39C771.124 1317.98 772.782 1314.66 772.782 1309.81V1216.35C772.843 1207.76 767.501 1197.62 760.992 1193.82Z" fill="url(#paint14_linear)"/>
<path d="M750.493 1325.04L408.895 1127.81C402.324 1124 397.043 1113.87 397.043 1105.15V1011.75C397.043 1003.03 402.386 998.979 408.895 1002.79L750.493 1200.02C757.063 1203.83 762.344 1213.96 762.344 1222.68V1316.08C762.405 1324.86 757.063 1328.85 750.493 1325.04Z" fill="url(#paint15_linear)"/>
<path d="M603.61 1152.43L555.775 1124.85C553.442 1123.5 551.538 1119.88 551.538 1116.81C551.538 1113.68 553.442 1112.27 555.775 1113.62L603.61 1141.19C605.943 1142.54 607.847 1146.16 607.847 1149.23C607.847 1152.3 605.943 1153.78 603.61 1152.43Z" fill="#183372"/>
<path opacity="0.4" d="M555.409 945.245V1035.69L801.828 1176.25L892.893 1123.44C892.893 1123.44 890.805 1120.8 886.199 1118.59L570.699 936.464L555.409 945.245Z" fill="#06033E"/>
<path d="M706.529 1100.48L584.578 1030.11V936.523L706.529 1006.96V1100.48Z" fill="white"/>
<path d="M697.746 1105.57L575.733 1035.2V941.622L697.746 1012.05V1105.57Z" fill="#C7E6EC"/>
<path d="M688.904 1110.67L566.953 1040.3V946.714L688.904 1017.15V1110.67Z" fill="white"/>
<path d="M680.124 1115.76L558.111 1045.33V951.812L680.124 1022.24V1115.76Z" fill="#C7E6EC"/>
<path d="M671.282 1120.86L549.331 1050.43V956.91L671.282 1027.34V1120.86Z" fill="white"/>
<path d="M662.499 1125.95L540.548 1055.52V962.002L662.499 1032.43V1125.95Z" fill="#C7E6EC"/>
<path d="M653.719 1131.05L531.706 1060.62V967.101L653.719 1037.47V1131.05Z" fill="white"/>
<path d="M644.877 1127.33L522.926 1056.9V972.199L644.877 1042.57V1127.33Z" fill="#C7E6EC"/>
<path d="M636.097 1121.79L514.146 1051.36V977.291L636.097 1047.66V1121.79Z" fill="white"/>
<path d="M850.644 1173.79L728.631 1103.36V1009.77L850.644 1080.21V1173.79Z" fill="#C7E6EC"/>
<path d="M841.802 1178.89L719.851 1108.45V1014.87L841.802 1085.3V1178.89Z" fill="white"/>
<path d="M833.023 1183.92L711.071 1113.55V1019.97L833.023 1090.4V1183.92Z" fill="#C7E6EC"/>
<path d="M824.242 1189.02L702.229 1118.65V1025.07L824.242 1095.5V1189.02Z" fill="white"/>
<path d="M815.397 1194.11L693.446 1123.74V1030.16L815.397 1100.59V1194.11Z" fill="#C7E6EC"/>
<path d="M806.617 1199.21L684.604 1128.78V1035.26L806.617 1105.69V1199.21Z" fill="white"/>
<path d="M797.775 1204.31L675.824 1133.88V1040.36L797.775 1110.79V1204.31Z" fill="#C7E6EC"/>
<path d="M788.995 1209.4L667.044 1138.97V1045.45L788.995 1115.88V1209.4Z" fill="white"/>
<path d="M780.215 1205.68L658.202 1135.25V1050.55L780.215 1120.98V1205.68Z" fill="#C7E6EC"/>
<path d="M771.371 1199.75L649.419 1129.32V1055.65L771.371 1126.02V1199.75Z" fill="white"/>
<path d="M762.59 1194.92L640.639 1124.49V1060.74L762.59 1131.11V1194.92Z" fill="#C7E6EC"/>
<path d="M753.81 1190.1L631.797 1119.67V1065.83L753.81 1136.21V1190.1Z" fill="white"/>
<path d="M900.753 1142.79C900.753 1138.73 899.586 1134.31 897.682 1130.44L770.805 1204.79V1317.29L900.814 1241.59V1142.79H900.753Z" fill="url(#paint16_radial)"/>
<path opacity="0.4" d="M1437.13 290.175L1236.52 174.365L1366.45 99.3276L1567.06 215.2L1437.13 290.175Z" fill="#06033E"/>
<path d="M1414.59 277.525L1213.98 161.653L1343.92 86.6768L1544.53 202.487L1414.59 277.525Z" fill="#C7E6EC"/>
<path d="M1414.59 272.491L1213.98 156.62L1343.92 81.6436L1544.53 197.454L1414.59 272.491Z" fill="white"/>
<path d="M1414.59 267.391L1213.98 151.58L1343.92 76.6045L1544.53 192.415L1414.59 267.391Z" fill="#C7E6EC"/>
<path d="M1414.59 262.358L1213.98 146.547L1343.92 71.5713L1544.53 187.382L1414.59 262.358Z" fill="white"/>
<path d="M1383.77 203.224C1379.35 203.224 1374.93 202.058 1371 199.786L1323.35 172.276C1321.44 171.171 1320.27 169.206 1320.27 166.934C1320.27 164.723 1321.44 162.697 1323.35 161.591L1371 134.082C1378.86 129.538 1388.68 129.538 1396.6 134.082L1444.25 161.591C1446.16 162.697 1447.32 164.662 1447.32 166.934C1447.32 169.144 1446.16 171.171 1444.25 172.276L1396.6 199.786C1392.61 202.058 1388.19 203.224 1383.77 203.224ZM1383.77 132.915C1379.72 132.915 1375.66 133.959 1372.1 136.047L1324.45 163.556C1323.22 164.293 1322.49 165.521 1322.49 166.995C1322.49 168.407 1323.22 169.697 1324.45 170.434L1372.1 197.943C1379.29 202.119 1388.25 202.119 1395.5 197.943L1443.15 170.434C1444.38 169.697 1445.11 168.469 1445.11 166.995C1445.11 165.583 1444.38 164.293 1443.15 163.556L1395.5 136.047C1391.87 133.959 1387.82 132.915 1383.77 132.915Z" fill="#C7E6EC"/>
<path d="M1383.46 183.083L1408.21 168.836C1409.62 168.038 1411.95 168.038 1413.37 168.836C1414.78 169.635 1414.78 170.986 1413.37 171.845L1388.62 186.091C1387.21 186.89 1384.87 186.89 1383.46 186.091C1382.05 185.232 1382.05 183.942 1383.46 183.083Z" fill="#C7E6EC"/>
<path opacity="0.6" d="M1372.59 179.829C1371.18 179.031 1371.18 177.68 1372.59 176.82L1393.72 164.601C1395.13 163.802 1397.46 163.802 1398.88 164.601C1400.29 165.399 1400.29 166.75 1398.88 167.61L1377.75 179.829C1376.34 180.627 1374.07 180.627 1372.59 179.829Z" fill="#C7E6EC"/>
<path d="M1361.79 170.615L1369.4 166.193C1370.81 165.395 1373.15 165.395 1374.56 166.193C1375.97 166.992 1375.97 168.343 1374.56 169.202L1366.94 173.623C1365.53 174.422 1363.2 174.422 1361.79 173.623C1360.37 172.764 1360.37 171.413 1361.79 170.615Z" fill="#C7E6EC"/>
<path d="M1350.98 164.354L1372.53 151.95C1373.94 151.152 1376.28 151.152 1377.69 151.95C1379.1 152.748 1379.1 154.099 1377.69 154.959L1356.14 167.363C1354.72 168.161 1352.39 168.161 1350.98 167.363C1349.57 166.503 1349.57 165.152 1350.98 164.354Z" fill="#C7E6EC"/>
<path d="M1397.95 152.687C1399.37 153.485 1399.37 154.836 1397.95 155.696L1383.95 163.74C1382.54 164.538 1380.21 164.538 1378.8 163.74C1377.38 162.942 1377.38 161.591 1378.8 160.731L1392.8 152.687C1394.27 151.889 1396.54 151.889 1397.95 152.687Z" fill="#C7E6EC"/>
<path d="M992.615 1442.44C990.589 1442.44 988.685 1441.95 986.904 1440.97C982.299 1438.27 979.597 1432.31 979.597 1424.57V776.931C979.597 763.054 988.133 746.843 998.633 740.764L1167.87 643.068C1172.9 640.182 1177.81 639.813 1181.74 642.147C1186.35 644.849 1189.05 650.805 1189.05 658.542V1306.18C1189.05 1320.06 1180.52 1336.27 1170.02 1342.35L1000.78 1440.05C998.019 1441.64 995.194 1442.44 992.615 1442.44ZM1176.09 644.91C1174.25 644.91 1172.23 645.524 1170.08 646.752L1000.84 744.448C991.571 749.79 983.957 764.343 983.957 776.87V1424.51C983.957 1430.65 985.799 1435.26 989.053 1437.16C991.632 1438.64 994.949 1438.33 998.633 1436.24L1167.87 1338.54C1177.14 1333.2 1184.75 1318.65 1184.75 1306.12V658.481C1184.75 652.34 1182.91 647.735 1179.66 645.831C1178.55 645.217 1177.38 644.91 1176.09 644.91Z" fill="#11203C"/>
<path d="M1497.8 1131.06C1495.77 1131.06 1493.87 1130.57 1492.09 1129.58C1487.48 1126.88 1484.78 1120.93 1484.78 1113.19V465.547C1484.78 451.67 1493.32 435.459 1503.82 429.379L1673.05 331.683C1678.08 328.797 1683 328.429 1686.93 330.762C1691.53 333.464 1694.23 339.421 1694.23 347.158V994.8C1694.23 1008.68 1685.7 1024.89 1675.2 1030.97L1505.96 1128.66C1503.2 1130.26 1500.44 1131.06 1497.8 1131.06ZM1681.34 333.526C1679.5 333.526 1677.47 334.14 1675.32 335.368L1506.09 433.064C1496.82 438.406 1489.2 452.959 1489.2 465.486V1113.13C1489.2 1119.27 1491.04 1123.87 1494.3 1125.78C1496.88 1127.31 1500.19 1126.94 1503.88 1124.86L1673.11 1027.16C1682.38 1021.82 1690 1007.27 1690 994.738V347.096C1690 340.956 1688.15 336.35 1684.9 334.447C1683.79 333.833 1682.63 333.526 1681.34 333.526Z" fill="#11203C"/>
<defs>
<filter id="filter0_f" x="269.123" y="740.318" width="1654.29" height="1038.8" filterUnits="userSpaceOnUse" color-interpolation-filters="sRGB">
<feFlood flood-opacity="0" result="BackgroundImageFix"/>
<feBlend mode="normal" in="SourceGraphic" in2="BackgroundImageFix" result="shape"/>
<feGaussianBlur stdDeviation="50" result="effect1_foregroundBlur"/>
</filter>
<filter id="filter1_f" x="938.098" y="840.927" width="848.784" height="557.6" filterUnits="userSpaceOnUse" color-interpolation-filters="sRGB">
<feFlood flood-opacity="0" result="BackgroundImageFix"/>
<feBlend mode="normal" in="SourceGraphic" in2="BackgroundImageFix" result="shape"/>
<feGaussianBlur stdDeviation="40" result="effect1_foregroundBlur"/>
</filter>
<filter id="filter2_f" x="418.117" y="1140.16" width="848.784" height="557.6" filterUnits="userSpaceOnUse" color-interpolation-filters="sRGB">
<feFlood flood-opacity="0" result="BackgroundImageFix"/>
<feBlend mode="normal" in="SourceGraphic" in2="BackgroundImageFix" result="shape"/>
<feGaussianBlur stdDeviation="40" result="effect1_foregroundBlur"/>
</filter>
<linearGradient id="paint0_linear" x1="2256.82" y1="1123.45" x2="-83.2386" y2="1540.74" gradientUnits="userSpaceOnUse">
<stop stop-color="#E5E5E5"/>
<stop offset="1" stop-color="#C4C4C4"/>
</linearGradient>
<linearGradient id="paint1_linear" x1="2322.42" y1="1022.02" x2="-0.000102012" y2="1502.16" gradientUnits="userSpaceOnUse">
<stop stop-color="#E5E5E5"/>
<stop offset="1" stop-color="#C4C4C4"/>
</linearGradient>
<radialGradient id="paint2_radial" cx="0" cy="0" r="1" gradientUnits="userSpaceOnUse" gradientTransform="translate(2781.41 876.018) scale(1446.93)">
<stop stop-color="#01C8EF"/>
<stop offset="0.0894" stop-color="#03BEE9"/>
<stop offset="0.2388" stop-color="#08A5D7"/>
<stop offset="0.4288" stop-color="#107BBB"/>
<stop offset="0.4457" stop-color="#1177B8"/>
<stop offset="1" stop-color="#112564"/>
</radialGradient>
<linearGradient id="paint3_linear" x1="855.808" y1="409.474" x2="1716.62" y2="570.828" gradientUnits="userSpaceOnUse">
<stop stop-color="#01C8EF"/>
<stop offset="0.0894" stop-color="#03BEE9"/>
<stop offset="0.2388" stop-color="#08A5D7"/>
<stop offset="0.4288" stop-color="#107BBB"/>
<stop offset="0.4457" stop-color="#1177B8"/>
<stop offset="1" stop-color="#172F78"/>
</linearGradient>
<linearGradient id="paint4_linear" x1="942.059" y1="120.174" x2="2158.24" y2="357.707" gradientUnits="userSpaceOnUse">
<stop stop-color="#01C8EF"/>
<stop offset="0.1383" stop-color="#02C5ED"/>
<stop offset="0.2455" stop-color="#04BBE6"/>
<stop offset="0.3423" stop-color="#07ABDB"/>
<stop offset="0.4324" stop-color="#0B94CB"/>
<stop offset="0.515" stop-color="#1177B8"/>
<stop offset="1" stop-color="#172F78"/>
</linearGradient>
<linearGradient id="paint5_linear" x1="1012.21" y1="172.785" x2="1012.5" y2="172.842" gradientUnits="userSpaceOnUse">
<stop stop-color="#01C8EF"/>
<stop offset="0.1383" stop-color="#02C5ED"/>
<stop offset="0.2455" stop-color="#04BBE6"/>
<stop offset="0.3423" stop-color="#07ABDB"/>
<stop offset="0.4324" stop-color="#0B94CB"/>
<stop offset="0.515" stop-color="#1177B8"/>
<stop offset="1" stop-color="#172F78"/>
</linearGradient>
<linearGradient id="paint6_linear" x1="1012.21" y1="162.432" x2="1012.5" y2="162.49" gradientUnits="userSpaceOnUse">
<stop stop-color="#01C8EF"/>
<stop offset="0.1383" stop-color="#02C5ED"/>
<stop offset="0.2455" stop-color="#04BBE6"/>
<stop offset="0.3423" stop-color="#07ABDB"/>
<stop offset="0.4324" stop-color="#0B94CB"/>
<stop offset="0.515" stop-color="#1177B8"/>
<stop offset="1" stop-color="#172F78"/>
</linearGradient>
<radialGradient id="paint7_radial" cx="0" cy="0" r="1" gradientUnits="userSpaceOnUse" gradientTransform="translate(2274.88 1182.93) scale(1443.34)">
<stop stop-color="#01C8EF"/>
<stop offset="0.0894" stop-color="#03BEE9"/>
<stop offset="0.2388" stop-color="#08A5D7"/>
<stop offset="0.4288" stop-color="#107BBB"/>
<stop offset="0.4457" stop-color="#1177B8"/>
<stop offset="1" stop-color="#112564"/>
</radialGradient>
<linearGradient id="paint8_linear" x1="354.06" y1="717.555" x2="1212.73" y2="878.509" gradientUnits="userSpaceOnUse">
<stop stop-color="#01C8EF"/>
<stop offset="0.0894" stop-color="#03BEE9"/>
<stop offset="0.2388" stop-color="#08A5D7"/>
<stop offset="0.4288" stop-color="#107BBB"/>
<stop offset="0.4457" stop-color="#1177B8"/>
<stop offset="1" stop-color="#172F78"/>
</linearGradient>
<linearGradient id="paint9_linear" x1="440.094" y1="428.967" x2="1653.26" y2="665.911" gradientUnits="userSpaceOnUse">
<stop stop-color="#CFFCF6"/>
<stop offset="0.3423" stop-color="#07ABDB"/>
<stop offset="0.4324" stop-color="#0B94CB"/>
<stop offset="0.515" stop-color="#1177B8"/>
<stop offset="1" stop-color="#172F78"/>
</linearGradient>
<linearGradient id="paint10_linear" x1="510.069" y1="481.45" x2="510.364" y2="481.508" gradientUnits="userSpaceOnUse">
<stop stop-color="#01C8EF"/>
<stop offset="0.1383" stop-color="#02C5ED"/>
<stop offset="0.2455" stop-color="#04BBE6"/>
<stop offset="0.3423" stop-color="#07ABDB"/>
<stop offset="0.4324" stop-color="#0B94CB"/>
<stop offset="0.515" stop-color="#1177B8"/>
<stop offset="1" stop-color="#172F78"/>
</linearGradient>
<linearGradient id="paint11_linear" x1="510.069" y1="471.126" x2="510.364" y2="471.183" gradientUnits="userSpaceOnUse">
<stop stop-color="#01C8EF"/>
<stop offset="0.1383" stop-color="#02C5ED"/>
<stop offset="0.2455" stop-color="#04BBE6"/>
<stop offset="0.3423" stop-color="#07ABDB"/>
<stop offset="0.4324" stop-color="#0B94CB"/>
<stop offset="0.515" stop-color="#1177B8"/>
<stop offset="1" stop-color="#172F78"/>
</linearGradient>
<radialGradient id="paint12_radial" cx="0" cy="0" r="1" gradientUnits="userSpaceOnUse" gradientTransform="translate(912.93 1276.08) scale(521.575 521.575)">
<stop stop-color="#01C8EF"/>
<stop offset="0.0894" stop-color="#03BEE9"/>
<stop offset="0.2388" stop-color="#08A5D7"/>
<stop offset="0.4288" stop-color="#107BBB"/>
<stop offset="0.4457" stop-color="#1177B8"/>
<stop offset="1" stop-color="#112564"/>
</radialGradient>
<radialGradient id="paint13_radial" cx="0" cy="0" r="1" gradientUnits="userSpaceOnUse" gradientTransform="translate(394.573 891.501) rotate(-30.0007) scale(285.013 285.017)">
<stop stop-color="#01C8EF"/>
<stop offset="0.1458" stop-color="#04A9D5"/>
<stop offset="0.4361" stop-color="#0A71A4"/>
<stop offset="0.6856" stop-color="#0E4881"/>
<stop offset="0.8816" stop-color="#102E6C"/>
<stop offset="1" stop-color="#112564"/>
</radialGradient>
<linearGradient id="paint14_linear" x1="366.101" y1="1094.95" x2="919.289" y2="1258.82" gradientUnits="userSpaceOnUse">
<stop stop-color="#01C8EF"/>
<stop offset="0.3058" stop-color="#01C6EE"/>
<stop offset="0.416" stop-color="#02BFE8"/>
<stop offset="0.4945" stop-color="#04B4DF"/>
<stop offset="0.558" stop-color="#06A3D2"/>
<stop offset="0.6123" stop-color="#0A8DC1"/>
<stop offset="0.6605" stop-color="#0D71AC"/>
<stop offset="0.703" stop-color="#125293"/>
<stop offset="0.7406" stop-color="#172F78"/>
</linearGradient>
<linearGradient id="paint15_linear" x1="397.074" y1="1163.92" x2="932.47" y2="1163.92" gradientUnits="userSpaceOnUse">
<stop stop-color="#01C8EF"/>
<stop offset="0.0894" stop-color="#03BEE9"/>
<stop offset="0.2388" stop-color="#08A5D7"/>
<stop offset="0.4288" stop-color="#107BBB"/>
<stop offset="0.4457" stop-color="#1177B8"/>
<stop offset="1" stop-color="#172F78"/>
</linearGradient>
<radialGradient id="paint16_radial" cx="0" cy="0" r="1" gradientUnits="userSpaceOnUse" gradientTransform="translate(643.446 636.827) scale(649.56 649.561)">
<stop stop-color="#01C8EF"/>
<stop offset="0.1458" stop-color="#04A9D5"/>
<stop offset="0.4361" stop-color="#0A71A4"/>
<stop offset="0.6856" stop-color="#0E4881"/>
<stop offset="0.8816" stop-color="#102E6C"/>
<stop offset="1" stop-color="#112564"/>
</radialGradient>
</defs>
</svg>
