<svg width="2205" height="2098" viewBox="0 0 2205 2098" fill="none" xmlns="http://www.w3.org/2000/svg">
<path d="M668.089 2084.87L21.2453 1711.03C-10.1942 1692.85 -6.26432 1661.17 30.0262 1640.23L1414.29 841.04C1450.58 820.101 1505.47 817.828 1536.91 835.943L2183.76 1209.78C2215.2 1227.95 2211.27 1259.64 2174.98 1280.58L790.716 2079.83C754.425 2100.77 699.529 2103.04 668.089 2084.87Z" fill="#787878" fill-opacity="0.15"/>
<path d="M2150.47 1055.71L2151.21 1056.63L1539.25 702.938C1508.05 684.946 1453.52 687.157 1417.48 707.973L46.4813 1499.49L0.734375 1482.05L13.5681 1546.16L13.6294 1546.09C15.3488 1555.74 22.1034 1564.76 34.2003 1571.76L665.816 1936.82C697.01 1954.81 751.538 1952.6 787.582 1931.78L2162.08 1138.24C2179.03 1128.48 2188.79 1116.32 2191.19 1104.28L2191.25 1104.41L2204.39 1041.96L2150.47 1055.71Z" fill="url(#paint0_linear)"/>
<path d="M668.1 1880.45L21.2561 1506.61C-10.1835 1488.44 -6.25357 1456.75 30.037 1435.81L1414.3 636.621C1450.59 615.681 1505.48 613.409 1536.92 631.524L2183.77 1005.36C2215.21 1023.54 2211.28 1055.22 2174.99 1076.16L790.727 1875.35C754.436 1896.29 699.54 1898.56 668.1 1880.45Z" fill="url(#paint1_linear)"/>
<g opacity="0.6" filter="url(#filter0_f)">
<path d="M863.112 1670.07L384.826 1393.68C361.553 1380.24 364.5 1356.84 391.335 1341.31L1238.73 853.133C1265.56 837.659 1306.15 835.94 1329.42 849.388L1807.71 1125.77C1830.98 1139.22 1828.04 1162.62 1801.2 1178.15L953.808 1666.32C926.912 1681.8 886.323 1683.46 863.112 1670.07Z" fill="#42E7E1" fill-opacity="0.4"/>
</g>
<path d="M2174.98 1059.77L790.714 1858.96C754.424 1879.9 699.528 1882.17 668.088 1864.05L21.244 1490.22C10.3138 1483.89 3.74349 1475.97 1.22587 1467.38C-2.94969 1481.87 3.49783 1496.36 21.244 1506.61L668.088 1880.45C699.528 1898.63 754.424 1896.35 790.714 1875.35L2174.98 1076.16C2198.68 1062.47 2208.44 1044.23 2203.77 1028.21C2200.52 1039.44 2190.88 1050.62 2174.98 1059.77Z" fill="white"/>
<g opacity="0.6" filter="url(#filter1_f)">
<path d="M1422.27 1318.53L1018.1 1085.13L1302.65 920.927L1706.88 1154.27L1422.27 1318.53Z" fill="#DAF9FF" fill-opacity="0.75"/>
</g>
<path opacity="0.6" d="M1814.9 894.646L1685.58 819.977C1680.85 817.214 1681.4 812.424 1686.93 809.292C1692.39 806.161 1700.68 805.792 1705.41 808.556L1834.73 883.225C1839.46 885.988 1838.91 890.716 1833.38 893.909C1827.91 897.041 1819.62 897.348 1814.9 894.646Z" fill="#380031"/>
<path d="M1699.27 217.224L1329.49 4.02421C1320.95 -0.888218 1313.21 -1.13382 1307.32 2.36629L1307.26 2.30487L1012.2 172.828L1120.77 370.184V551.207C1120.77 576.015 1135.87 604.876 1154.48 615.622L1260.34 676.72L1429.7 1231.82L1720.64 1064C1720.76 1063.94 1720.88 1063.88 1721.01 1063.76L1721.99 1063.21V1063.14C1728.74 1058.85 1732.98 1049.51 1732.98 1036.37V281.638C1732.98 256.83 1717.94 227.97 1699.27 217.224Z" fill="url(#paint2_radial)"/>
<path d="M1405.63 1231.39L1035.85 1018.19C1017.24 1007.45 1002.13 978.585 1002.13 953.777V199.044C1002.13 174.236 1017.24 162.815 1035.85 173.561L1405.63 386.76C1424.24 397.506 1439.34 426.367 1439.34 451.175V1205.91C1439.34 1230.72 1424.24 1242.14 1405.63 1231.39Z" fill="url(#paint3_linear)"/>
<path d="M1035.85 173.564L1405.63 386.764C1413.49 391.308 1420.68 399.045 1426.45 408.378L1719.84 238.47C1714.13 229.32 1707.01 221.706 1699.27 217.224L1329.49 4.02421C1320.95 -0.888218 1313.22 -1.13382 1307.32 2.36629L1307.26 2.30487L1015.15 171.108C1020.86 168.529 1028.05 169.082 1035.85 173.564Z" fill="url(#paint4_linear)"/>
<path d="M1012.39 172.765L1012.21 172.888C1012.27 172.826 1012.33 172.765 1012.39 172.765Z" fill="url(#paint5_linear)"/>
<path d="M1428.29 396.954C1422.58 387.621 1413.49 380.927 1405.69 376.383L1035.91 163.184C1034.62 162.447 1033.39 161.833 1032.16 161.342L1015.22 171.105C1020.93 168.465 1028.11 169.017 1035.91 173.561L1405.69 386.761C1413.55 391.305 1420.74 399.042 1426.51 408.376L1719.9 238.467C1718.31 235.888 1716.53 233.432 1714.68 231.098L1428.29 396.954Z" fill="white"/>
<path d="M1012.39 162.386L1012.21 162.509C1012.27 162.448 1012.33 162.448 1012.39 162.386Z" fill="url(#paint6_linear)"/>
<path d="M1396.73 567.299C1394.76 567.299 1392.61 566.685 1390.52 565.457L1048.13 367.732C1040.64 363.372 1034.74 352.319 1034.74 342.433V248.79C1034.74 243.079 1036.77 238.658 1040.33 236.631C1043.46 234.851 1047.27 235.035 1051.08 237.246L1393.47 434.971C1400.96 439.331 1406.86 450.384 1406.86 460.27V553.913C1406.86 559.624 1404.83 564.045 1401.27 566.071C1399.86 566.869 1398.32 567.299 1396.73 567.299ZM1044.81 241.36C1044.26 241.36 1043.71 241.482 1043.22 241.789C1041.56 242.772 1040.57 245.351 1040.57 248.851V342.494C1040.57 350.17 1045.36 359.381 1051.01 362.697L1393.41 560.422C1394.76 561.22 1396.66 561.957 1398.26 561.036C1399.92 560.053 1400.9 557.474 1400.9 553.974V460.208C1400.9 452.533 1396.11 443.322 1390.46 440.006L1048.07 242.281C1047.15 241.851 1045.98 241.36 1044.81 241.36Z" fill="#183372"/>
<path d="M1244.68 389.776L1196.79 362.082C1194.46 360.731 1192.55 357.108 1192.55 354.038C1192.55 350.906 1194.46 349.494 1196.79 350.845L1244.68 378.539C1247.02 379.89 1248.92 383.512 1248.92 386.583C1248.92 389.714 1247.08 391.127 1244.68 389.776Z" fill="#183372"/>
<path d="M1396.73 755.073C1394.76 755.073 1392.61 754.459 1390.52 753.231L1048.13 555.506C1040.64 551.146 1034.74 540.093 1034.74 530.207V436.564C1034.74 430.853 1036.77 426.432 1040.33 424.405C1043.46 422.625 1047.27 422.809 1051.08 425.019L1393.47 622.745C1400.96 627.105 1406.86 638.157 1406.86 648.044V741.687C1406.86 747.398 1404.83 751.819 1401.27 753.845C1399.86 754.643 1398.32 755.073 1396.73 755.073ZM1044.81 429.134C1044.26 429.134 1043.71 429.256 1043.22 429.563C1041.56 430.546 1040.57 433.186 1040.57 436.625V530.268C1040.57 537.944 1045.36 547.155 1051.01 550.471L1393.41 748.196C1394.76 748.994 1396.66 749.731 1398.26 748.81C1399.92 747.827 1400.9 745.248 1400.9 741.748V648.105C1400.9 640.429 1396.11 631.219 1390.46 627.903L1048.07 430.178C1047.15 429.625 1045.98 429.134 1044.81 429.134Z" fill="#183372"/>
<path d="M1244.68 577.614L1196.79 549.92C1194.46 548.569 1192.55 544.946 1192.55 541.876C1192.55 538.744 1194.46 537.332 1196.79 538.683L1244.68 566.377C1247.02 567.728 1248.92 571.351 1248.92 574.421C1248.92 577.491 1247.08 578.904 1244.68 577.614Z" fill="#183372"/>
<path d="M1396.73 944.817C1394.76 944.817 1392.61 944.203 1390.52 942.975L1048.13 745.25C1040.64 740.89 1034.74 729.837 1034.74 719.951V626.308C1034.74 620.597 1036.77 616.176 1040.33 614.15C1043.46 612.369 1047.27 612.553 1051.08 614.764L1393.47 812.489C1400.96 816.849 1406.86 827.902 1406.86 837.788V931.431C1406.86 937.142 1404.83 941.563 1401.27 943.589C1399.86 944.449 1398.32 944.817 1396.73 944.817ZM1044.81 618.878C1044.26 618.878 1043.71 619.001 1043.22 619.308C1041.56 620.29 1040.57 622.869 1040.57 626.369V720.012C1040.57 727.688 1045.36 736.899 1051.01 740.215L1393.41 937.94C1394.76 938.738 1396.66 939.475 1398.26 938.554C1399.92 937.572 1400.9 934.931 1400.9 931.492V837.849C1400.9 830.174 1396.11 820.963 1390.46 817.647L1048.07 619.922C1047.15 619.369 1045.98 618.878 1044.81 618.878Z" fill="#183372"/>
<path d="M1244.68 767.353L1196.79 739.659C1194.46 738.308 1192.55 734.685 1192.55 731.615C1192.55 728.483 1194.46 727.071 1196.79 728.422L1244.68 756.116C1247.02 757.467 1248.92 761.09 1248.92 764.16C1248.92 767.292 1247.08 768.704 1244.68 767.353Z" fill="#183372"/>
<path d="M1396.73 1130.63C1394.76 1130.63 1392.61 1130.01 1390.52 1128.78L1048.13 931.06C1040.64 926.761 1034.74 915.647 1034.74 905.761V812.117C1034.74 806.407 1036.77 801.985 1040.33 799.959C1043.46 798.178 1047.27 798.363 1051.08 800.573L1393.47 998.298C1400.96 1002.6 1406.86 1013.71 1406.86 1023.6V1117.24C1406.86 1122.95 1404.83 1127.37 1401.27 1129.4C1399.86 1130.2 1398.32 1130.63 1396.73 1130.63ZM1044.81 804.687C1044.26 804.687 1043.71 804.81 1043.22 805.117C1041.56 806.1 1040.57 808.74 1040.57 812.179V905.822C1040.57 913.498 1045.36 922.708 1051.01 926.024L1393.41 1123.75C1394.76 1124.55 1396.66 1125.28 1398.26 1124.36C1399.92 1123.38 1400.9 1120.74 1400.9 1117.3V1023.66C1400.9 1015.98 1396.11 1006.77 1390.46 1003.52L1048.07 805.793C1047.15 805.179 1045.98 804.687 1044.81 804.687Z" fill="#183372"/>
<path d="M1244.68 953.168L1196.79 925.474C1194.46 924.123 1192.55 920.5 1192.55 917.43C1192.55 914.298 1194.46 912.886 1196.79 914.237L1244.68 941.93C1247.02 943.281 1248.92 946.904 1248.92 949.975C1248.92 953.045 1247.08 954.457 1244.68 953.168Z" fill="#043A76"/>
<g opacity="0.6" filter="url(#filter2_f)">
<path d="M902.349 1617.76L498.117 1384.42L782.731 1220.16L1186.9 1453.56L902.349 1617.76Z" fill="#DAF9FF" fill-opacity="0.75"/>
</g>
<path d="M1195.44 525.784L826.575 313.137C818.101 308.225 810.364 307.979 804.469 311.479L804.408 311.418L510.092 481.511L618.349 678.376V858.908C618.349 883.654 633.394 912.453 652 923.138L757.617 984.113L926.543 1537.81L1216.81 1370.41C1216.93 1370.35 1217.05 1370.29 1217.17 1370.23L1218.16 1369.68V1369.62C1224.91 1365.32 1229.15 1355.98 1229.15 1342.9V590.014C1229.09 565.267 1214.04 536.53 1195.44 525.784Z" fill="url(#paint7_radial)"/>
<path d="M902.534 1537.44L533.673 1324.79C515.128 1314.05 500.022 1285.31 500.022 1260.56V507.672C500.022 482.925 515.067 471.504 533.673 482.25L902.534 694.897C921.079 705.643 936.185 734.38 936.185 759.127V1512.02C936.185 1536.76 921.079 1548.19 902.534 1537.44Z" fill="url(#paint8_linear)"/>
<path d="M533.671 482.247L902.533 694.894C910.393 699.438 917.577 707.175 923.288 716.447L1215.95 546.969C1210.3 537.819 1203.17 530.266 1195.44 525.784L826.575 313.137C818.101 308.225 810.364 307.979 804.469 311.479L804.408 311.418L513.039 479.791C518.75 477.212 525.873 477.765 533.671 482.247Z" fill="url(#paint9_linear)"/>
<path d="M510.276 481.389L510.092 481.511C510.153 481.511 510.214 481.45 510.276 481.389Z" fill="url(#paint10_linear)"/>
<path d="M925.131 705.087C919.42 695.815 910.393 689.122 902.595 684.578L533.733 471.931C532.443 471.194 531.215 470.642 529.987 470.089L513.101 479.852C518.811 477.212 525.934 477.765 533.733 482.247L902.595 694.894C910.455 699.438 917.639 707.175 923.35 716.447L1216.01 546.968C1214.41 544.389 1212.63 541.933 1210.79 539.661L925.131 705.087Z" fill="white"/>
<path d="M510.276 471.074L510.092 471.197C510.153 471.135 510.214 471.135 510.276 471.074Z" fill="url(#paint11_linear)"/>
<path d="M893.63 874.936C891.665 874.936 889.516 874.322 887.428 873.093L545.83 675.859C538.338 671.561 532.505 660.447 532.505 650.622V557.224C532.505 551.575 534.531 547.092 538.093 545.066C541.224 543.285 545.032 543.47 548.839 545.68L890.437 742.914C897.928 747.212 903.762 758.327 903.762 768.152V861.549C903.762 867.199 901.735 871.681 898.174 873.707C896.761 874.567 895.226 874.936 893.63 874.936ZM890.375 868.058C891.726 868.856 893.63 869.593 895.165 868.672C896.823 867.751 897.805 865.111 897.805 861.611V768.213C897.805 760.537 893.016 751.327 887.428 748.072L545.83 550.838C544.479 550.04 542.575 549.303 541.04 550.224C539.382 551.145 538.4 553.786 538.4 557.286V650.683C538.4 658.359 543.189 667.57 548.777 670.824L890.375 868.058Z" fill="#183372"/>
<path d="M742.019 697.904L694.246 670.333C691.912 668.983 690.009 665.36 690.009 662.289C690.009 659.158 691.912 657.745 694.246 659.096L742.019 686.667C744.353 688.018 746.256 691.641 746.256 694.711C746.195 697.843 744.353 699.255 742.019 697.904Z" fill="#183372"/>
<path d="M893.63 1062.28C891.665 1062.28 889.516 1061.67 887.428 1060.44L545.83 863.208C538.338 858.91 532.505 847.795 532.505 837.97V744.573C532.505 738.924 534.531 734.441 538.093 732.415C541.224 730.634 545.032 730.818 548.839 733.029L890.437 930.263C897.928 934.561 903.762 945.675 903.762 955.5V1048.9C903.762 1054.55 901.735 1059.03 898.174 1061.06C896.761 1061.85 895.226 1062.28 893.63 1062.28ZM890.375 1055.35C891.726 1056.14 893.63 1056.88 895.165 1055.96C896.823 1055.04 897.805 1052.4 897.805 1048.9V955.5C897.805 947.825 893.016 938.614 887.428 935.359L545.83 738.125C544.479 737.327 542.575 736.59 541.04 737.511C539.382 738.432 538.4 741.073 538.4 744.573V837.97C538.4 845.646 543.189 854.857 548.777 858.111L890.375 1055.35Z" fill="#183372"/>
<path d="M742.019 885.247L694.246 857.676C691.912 856.326 690.009 852.703 690.009 849.632C690.009 846.501 691.912 845.088 694.246 846.439L742.019 874.01C744.353 875.361 746.256 878.984 746.256 882.054C746.195 885.125 744.353 886.598 742.019 885.247Z" fill="#183372"/>
<path d="M888.901 1245.21L547.304 1047.97C540.733 1044.17 535.452 1034.03 535.452 1025.31V931.917C535.452 923.198 540.795 919.145 547.304 922.952L888.901 1120.19C895.472 1123.99 900.753 1134.13 900.753 1142.84V1236.24C900.753 1244.96 895.41 1249.01 888.901 1245.21Z" fill="#043A76"/>
<path d="M893.63 1436.92C891.665 1436.92 889.516 1436.3 887.428 1435.08L545.83 1237.84C538.338 1233.54 532.505 1222.43 532.505 1212.6V1119.21C532.505 1113.56 534.531 1109.07 538.093 1107.05C541.224 1105.27 545.032 1105.45 548.839 1107.66L890.437 1304.9C897.928 1309.19 903.762 1320.31 903.762 1330.13V1423.59C903.762 1429.24 901.735 1433.72 898.174 1435.75C896.761 1436.49 895.226 1436.92 893.63 1436.92ZM890.375 1429.98C891.726 1430.78 893.63 1431.51 895.165 1430.59C896.823 1429.67 897.805 1427.03 897.805 1423.53V1330.07C897.805 1322.4 893.016 1313.19 887.428 1309.93L545.83 1112.7C544.479 1111.9 542.575 1111.16 541.04 1112.08C539.382 1113 538.4 1115.64 538.4 1119.14V1212.54C538.4 1220.22 543.189 1229.43 548.777 1232.68L890.375 1429.98Z" fill="#183372"/>
<path d="M742.019 1259.89L694.246 1232.31C691.912 1230.96 690.009 1227.34 690.009 1224.27C690.009 1221.14 691.912 1219.73 694.246 1221.08L742.019 1248.65C744.353 1250 746.256 1253.62 746.256 1256.69C746.195 1259.76 744.353 1261.24 742.019 1259.89Z" fill="#043A76"/>
<path d="M614.112 1146.22L566.277 1118.65C563.944 1117.3 562.04 1113.68 562.04 1110.61C562.04 1107.48 563.944 1106.06 566.277 1107.42L614.112 1134.99C616.445 1136.34 618.349 1139.96 618.349 1143.03C618.287 1146.16 616.445 1147.57 614.112 1146.22Z" fill="#043A76"/>
<path d="M641.008 976.991L411.352 1109.57V1019.12L562.654 931.797L641.008 976.991Z" fill="#3DC6E3"/>
<path d="M547.365 940.578L615.587 979.938L630.877 971.157L562.655 931.797L547.365 940.578Z" fill="#A0FFF9"/>
<path d="M756.574 1252.21L892.894 1123.44C892.894 1123.44 891.236 1120.98 886.201 1118.59L647.518 980.795L497.443 1055.46L579.788 1163.91L756.574 1252.21Z" fill="url(#paint12_radial)"/>
<path d="M649.053 981.655L417.739 1115.21V1024.7L570.7 936.399L649.053 981.655Z" fill="url(#paint13_radial)"/>
<path d="M900.751 1142.79C900.751 1135.97 897.496 1128.3 892.891 1123.45L733.912 1215.62V1306.07L900.689 1210.58V1142.79H900.751Z" fill="#3DC6E3"/>
<path d="M876.803 1132.78L900.751 1146.6V1142.79C900.751 1135.97 897.496 1128.3 892.891 1123.45L876.803 1132.78Z" fill="#A0FFF9"/>
<path d="M760.992 1193.82L419.394 996.584C416.385 994.864 413.683 994.803 411.595 996.031V995.97L401.218 1002.11L407.788 1002.72C407.665 1003.58 407.543 1004.57 407.543 1005.55V1098.95C407.543 1107.67 412.885 1117.86 419.394 1121.6L758.351 1317.3V1325.53L768.667 1319.45L768.545 1319.39C771.124 1317.98 772.781 1314.66 772.781 1309.81V1216.35C772.843 1207.76 767.501 1197.62 760.992 1193.82Z" fill="url(#paint14_linear)"/>
<path d="M750.492 1325.04L408.894 1127.81C402.324 1124 397.043 1113.87 397.043 1105.15V1011.75C397.043 1003.03 402.385 998.979 408.894 1002.79L750.492 1200.02C757.063 1203.83 762.343 1213.96 762.343 1222.68V1316.08C762.405 1324.86 757.063 1328.85 750.492 1325.04Z" fill="url(#paint15_linear)"/>
<path d="M603.609 1152.43L555.774 1124.85C553.441 1123.5 551.537 1119.88 551.537 1116.81C551.537 1113.68 553.441 1112.27 555.774 1113.62L603.609 1141.19C605.942 1142.54 607.846 1146.16 607.846 1149.23C607.846 1152.3 605.942 1153.78 603.609 1152.43Z" fill="#183372"/>
<path opacity="0.4" d="M555.408 945.245V1035.69L801.828 1176.25L892.892 1123.44C892.892 1123.44 890.804 1120.8 886.199 1118.59L570.698 936.464L555.408 945.245Z" fill="#06033E"/>
<path d="M706.529 1100.48L584.578 1030.11V936.523L706.529 1006.96V1100.48Z" fill="white"/>
<path d="M697.745 1105.57L575.732 1035.2V941.621L697.745 1012.05V1105.57Z" fill="#C7E6EC"/>
<path d="M688.904 1110.67L566.953 1040.3V946.714L688.904 1017.15V1110.67Z" fill="white"/>
<path d="M680.123 1115.76L558.11 1045.33V951.812L680.123 1022.24V1115.76Z" fill="#C7E6EC"/>
<path d="M671.281 1120.86L549.33 1050.43V956.91L671.281 1027.34V1120.86Z" fill="white"/>
<path d="M662.499 1125.95L540.548 1055.52V962.003L662.499 1032.43V1125.95Z" fill="#C7E6EC"/>
<path d="M653.718 1131.05L531.706 1060.62V967.101L653.718 1037.47V1131.05Z" fill="white"/>
<path d="M644.877 1127.33L522.926 1056.9V972.198L644.877 1042.57V1127.33Z" fill="#C7E6EC"/>
<path d="M636.097 1121.79L514.146 1051.36V977.291L636.097 1047.66V1121.79Z" fill="white"/>
<path d="M850.643 1173.79L728.631 1103.36V1009.77L850.643 1080.21V1173.79Z" fill="#C7E6EC"/>
<path d="M841.802 1178.89L719.851 1108.45V1014.87L841.802 1085.3V1178.89Z" fill="white"/>
<path d="M833.022 1183.92L711.071 1113.55V1019.97L833.022 1090.4V1183.92Z" fill="#C7E6EC"/>
<path d="M824.242 1189.02L702.229 1118.65V1025.07L824.242 1095.5V1189.02Z" fill="white"/>
<path d="M815.397 1194.11L693.446 1123.74V1030.16L815.397 1100.59V1194.11Z" fill="#C7E6EC"/>
<path d="M806.617 1199.21L684.604 1128.78V1035.26L806.617 1105.69V1199.21Z" fill="white"/>
<path d="M797.775 1204.31L675.824 1133.88V1040.36L797.775 1110.79V1204.31Z" fill="#C7E6EC"/>
<path d="M788.995 1209.4L667.044 1138.97V1045.45L788.995 1115.88V1209.4Z" fill="white"/>
<path d="M780.215 1205.68L658.202 1135.25V1050.55L780.215 1120.98V1205.68Z" fill="#C7E6EC"/>
<path d="M771.37 1199.75L649.419 1129.32V1055.64L771.37 1126.02V1199.75Z" fill="white"/>
<path d="M762.59 1194.92L640.639 1124.49V1060.74L762.59 1131.11V1194.92Z" fill="#C7E6EC"/>
<path d="M753.809 1190.1L631.797 1119.67V1065.83L753.809 1136.21V1190.1Z" fill="white"/>
<path d="M900.753 1142.79C900.753 1138.73 899.586 1134.31 897.682 1130.45L770.805 1204.79V1317.29L900.814 1241.59V1142.79H900.753Z" fill="url(#paint16_radial)"/>
<path opacity="0.4" d="M1437.13 290.175L1236.52 174.365L1366.45 99.3276L1567.06 215.2L1437.13 290.175Z" fill="#06033E"/>
<path d="M1414.59 277.525L1213.98 161.653L1343.92 86.6768L1544.53 202.487L1414.59 277.525Z" fill="#C7E6EC"/>
<path d="M1414.59 272.491L1213.98 156.62L1343.92 81.6436L1544.53 197.454L1414.59 272.491Z" fill="white"/>
<path d="M1414.59 267.391L1213.98 151.58L1343.92 76.6045L1544.53 192.415L1414.59 267.391Z" fill="#C7E6EC"/>
<path d="M1414.59 262.358L1213.98 146.547L1343.92 71.5713L1544.53 187.382L1414.59 262.358Z" fill="white"/>
<path d="M1383.77 203.224C1379.35 203.224 1374.93 202.058 1371 199.786L1323.34 172.276C1321.44 171.171 1320.27 169.206 1320.27 166.934C1320.27 164.723 1321.44 162.697 1323.34 161.591L1371 134.082C1378.86 129.538 1388.68 129.538 1396.6 134.082L1444.25 161.591C1446.16 162.697 1447.32 164.662 1447.32 166.934C1447.32 169.144 1446.16 171.171 1444.25 172.276L1396.6 199.786C1392.61 202.058 1388.19 203.224 1383.77 203.224ZM1383.77 132.915C1379.71 132.915 1375.66 133.959 1372.1 136.047L1324.45 163.556C1323.22 164.293 1322.49 165.521 1322.49 166.995C1322.49 168.407 1323.22 169.697 1324.45 170.434L1372.1 197.943C1379.28 202.119 1388.25 202.119 1395.5 197.943L1443.15 170.434C1444.37 169.697 1445.11 168.469 1445.11 166.995C1445.11 165.583 1444.37 164.293 1443.15 163.556L1395.5 136.047C1391.87 133.959 1387.82 132.915 1383.77 132.915Z" fill="#EA8246"/>
<path d="M1383.46 183.083L1408.21 168.836C1409.62 168.038 1411.95 168.038 1413.37 168.836C1414.78 169.635 1414.78 170.986 1413.37 171.845L1388.62 186.091C1387.21 186.89 1384.87 186.89 1383.46 186.091C1382.05 185.232 1382.05 183.942 1383.46 183.083Z" fill="#EA8246"/>
<path opacity="0.6" d="M1372.59 179.829C1371.18 179.031 1371.18 177.68 1372.59 176.82L1393.72 164.601C1395.13 163.802 1397.46 163.802 1398.87 164.601C1400.29 165.399 1400.29 166.75 1398.87 167.61L1377.75 179.829C1376.34 180.627 1374.07 180.627 1372.59 179.829Z" fill="#EA8246"/>
<path d="M1361.79 170.615L1369.4 166.193C1370.81 165.395 1373.15 165.395 1374.56 166.193C1375.97 166.992 1375.97 168.343 1374.56 169.202L1366.94 173.623C1365.53 174.422 1363.2 174.422 1361.79 173.623C1360.37 172.764 1360.37 171.413 1361.79 170.615Z" fill="#EA8246"/>
<path d="M1350.98 164.354L1372.53 151.95C1373.94 151.152 1376.28 151.152 1377.69 151.95C1379.1 152.748 1379.1 154.099 1377.69 154.959L1356.14 167.363C1354.72 168.161 1352.39 168.161 1350.98 167.363C1349.56 166.503 1349.56 165.152 1350.98 164.354Z" fill="#EA8246"/>
<path d="M1397.95 152.687C1399.37 153.485 1399.37 154.836 1397.95 155.696L1383.95 163.74C1382.54 164.538 1380.21 164.538 1378.79 163.74C1377.38 162.942 1377.38 161.591 1378.79 160.731L1392.8 152.687C1394.27 151.889 1396.54 151.889 1397.95 152.687Z" fill="#EA8246"/>
<path d="M992.616 1442.44C990.589 1442.44 988.686 1441.95 986.905 1440.97C982.3 1438.27 979.598 1432.31 979.598 1424.57V776.931C979.598 763.054 988.133 746.843 998.633 740.764L1167.87 643.068C1172.9 640.182 1177.81 639.813 1181.74 642.147C1186.35 644.849 1189.05 650.805 1189.05 658.542V1306.18C1189.05 1320.06 1180.52 1336.27 1170.02 1342.35L1000.78 1440.05C998.019 1441.64 995.195 1442.44 992.616 1442.44ZM1176.09 644.91C1174.25 644.91 1172.23 645.524 1170.08 646.752L1000.84 744.448C991.572 749.79 983.957 764.343 983.957 776.87V1424.51C983.957 1430.65 985.799 1435.26 989.054 1437.16C991.633 1438.64 994.949 1438.33 998.633 1436.24L1167.87 1338.54C1177.14 1333.2 1184.75 1318.65 1184.75 1306.12V658.481C1184.75 652.34 1182.91 647.735 1179.66 645.831C1178.55 645.217 1177.38 644.91 1176.09 644.91Z" fill="#11203C"/>
<path d="M1497.8 1131.06C1495.77 1131.06 1493.87 1130.57 1492.09 1129.58C1487.48 1126.88 1484.78 1120.93 1484.78 1113.19V465.547C1484.78 451.67 1493.31 435.459 1503.81 429.379L1673.05 331.683C1678.08 328.797 1683 328.429 1686.93 330.762C1691.53 333.464 1694.23 339.421 1694.23 347.158V994.8C1694.23 1008.68 1685.7 1024.89 1675.2 1030.97L1505.96 1128.66C1503.2 1130.26 1500.44 1131.06 1497.8 1131.06ZM1681.34 333.526C1679.5 333.526 1677.47 334.14 1675.32 335.368L1506.09 433.064C1496.81 438.406 1489.2 452.959 1489.2 465.486V1113.13C1489.2 1119.27 1491.04 1123.87 1494.3 1125.78C1496.88 1127.31 1500.19 1126.94 1503.88 1124.86L1673.11 1027.16C1682.38 1021.82 1690 1007.27 1690 994.738V347.096C1690 340.956 1688.15 336.35 1684.9 334.447C1683.79 333.833 1682.63 333.526 1681.34 333.526Z" fill="#11203C"/>
<path d="M1633.9 1241.15C1633.38 1240.29 1632.41 1239.83 1631.43 1240.06L1599.25 1246.71L1611.7 1268.35L1633.61 1243.9C1634.3 1243.16 1634.42 1242.07 1633.9 1241.15Z" fill="#EA8246"/>
<path d="M1621.1 1256.93C1621.1 1252.28 1617.89 1246.66 1613.88 1244.36C1612.04 1243.27 1610.38 1243.16 1609.06 1243.73C1572 1243.04 1535.39 1252.45 1503.26 1270.93L1500.91 1272.25L1540.1 1340.47L1551.97 1332.78C1577.04 1316.48 1598.27 1294.97 1614.11 1269.61L1619.21 1261.4C1620.36 1260.6 1621.1 1259.05 1621.1 1256.93Z" fill="#5793CE"/>
<path d="M1548.24 1322.45C1548.3 1304.72 1535.85 1283.09 1520.53 1274.2C1505.22 1265.3 1492.71 1272.48 1492.71 1290.21C1492.65 1307.94 1505.1 1329.57 1520.42 1338.46C1535.79 1347.35 1548.24 1340.18 1548.24 1322.45Z" fill="#C7E6EC"/>
<path d="M1302.07 1485.51L1540.1 1340.47L1500.91 1272.25L1255.77 1404.9L1302.07 1485.51Z" fill="#C7E6EC"/>
<path d="M1311.7 1464.22C1311.76 1443.28 1297.07 1417.75 1278.94 1407.25C1260.81 1396.75 1246.07 1405.19 1246.01 1426.18C1245.96 1447.13 1260.64 1472.66 1278.77 1483.16C1296.96 1493.66 1311.7 1485.22 1311.7 1464.22Z" fill="#C7E6EC"/>
<path d="M1298.17 1472.03C1298.22 1451.09 1283.54 1425.56 1265.41 1415.06C1247.28 1404.56 1232.53 1412.99 1232.48 1433.99C1232.42 1454.93 1247.11 1480.46 1265.24 1490.96C1283.37 1501.46 1298.11 1493.03 1298.17 1472.03Z" fill="#C7E6EC"/>
<path d="M1242.27 1412.76L927.474 1593.64L973.777 1674.24L1288.57 1493.35L1242.27 1412.76Z" fill="#C7E6EC"/>
<path d="M983.37 1652.94C983.427 1631.99 968.74 1606.46 950.611 1595.96C932.482 1585.46 917.737 1593.9 917.68 1614.9C917.622 1635.84 932.31 1661.37 950.439 1671.87C968.568 1682.37 983.313 1673.88 983.37 1652.94Z" fill="#C7E6EC"/>
<path d="M971.61 1646.11C971.036 1633.72 961.111 1618.23 949.465 1611.46C937.818 1604.68 928.868 1609.27 929.499 1621.61C930.073 1634 939.998 1649.5 951.645 1656.27C963.234 1663.04 972.184 1658.5 971.61 1646.11Z" fill="#396CAA"/>
<path d="M1314.12 1462.85C1314.17 1441.91 1299.49 1416.38 1281.36 1405.88C1274.07 1401.63 1267.3 1400.54 1261.85 1402.03C1267.82 1395.89 1277.57 1395.26 1288.53 1401.63C1306.66 1412.13 1321.34 1437.66 1321.29 1458.61C1321.29 1471.11 1315.95 1479.15 1307.86 1481.38C1311.76 1477.42 1314.12 1471.11 1314.12 1462.85Z" fill="white"/>
<path d="M1314.12 1462.85C1314.17 1441.91 1299.49 1416.38 1281.36 1405.88C1272.29 1400.6 1264.09 1400.08 1258.12 1403.52L1240.28 1413.79L1248.6 1428.25C1249.98 1447.3 1262.48 1469.16 1278.32 1479.95L1286.64 1494.41L1304.48 1484.14C1310.39 1480.7 1314.12 1473.35 1314.12 1462.85Z" fill="#5793CE"/>
<path d="M1296.27 1473.12C1296.33 1452.18 1281.64 1426.65 1263.51 1416.15C1245.38 1405.65 1230.64 1414.08 1230.58 1435.08C1230.52 1456.02 1245.21 1481.56 1263.34 1492.06C1281.53 1502.56 1296.21 1494.06 1296.27 1473.12Z" fill="#C7E6EC"/>
<path d="M956.805 1655.29L936.783 1620.52L870.06 1658.85C860.479 1664.35 857.151 1676.63 862.659 1686.21C868.167 1695.8 880.444 1699.12 890.025 1693.62L956.805 1655.29Z" fill="#EA8246"/>
<path d="M960.934 1646.11C960.934 1637.04 954.624 1626.08 946.821 1621.49C939.019 1616.96 932.65 1620.63 932.65 1629.64C932.65 1638.71 938.961 1649.66 946.764 1654.25C954.566 1658.79 960.934 1655.17 960.934 1646.11Z" fill="#EA8246"/>
<path d="M1035.87 1524.82L1026 1519.08C1020.32 1515.81 1012.74 1516.5 1004.71 1521.14L970.405 1540.82C963.922 1544.55 958.643 1553.62 958.643 1561.13L958.586 1578.18C958.586 1581.04 957.152 1584.31 955.086 1586.72L956.291 1594.64L947.858 1589.71C946.653 1589.08 945.85 1587.64 945.85 1585.52L945.907 1568.48C945.964 1552.93 956.922 1533.94 970.462 1526.19L1004.77 1506.51C1016.24 1499.91 1026.97 1498.88 1035.06 1503.59L1044.93 1509.32C1050.61 1512.59 1058.18 1511.91 1066.21 1507.26L1204.42 1427.85C1206.2 1426.82 1207.81 1426.76 1208.95 1427.45L1217.39 1432.38L1210.1 1435.08C1209.07 1438.12 1206.89 1441.05 1204.36 1442.54L1066.16 1521.95C1054.74 1528.43 1043.95 1529.46 1035.87 1524.82Z" fill="#5793CE"/>
<path d="M1034.55 1524.07C1028.87 1520.8 1021.29 1521.49 1013.26 1526.14L978.954 1545.82C972.471 1549.55 967.193 1558.61 967.193 1566.13L967.136 1583.17C967.136 1587.24 964.267 1592.18 960.768 1594.18C957.268 1596.19 954.399 1594.53 954.399 1590.51L954.457 1573.47C954.514 1557.92 965.472 1538.93 979.012 1531.19L1013.32 1511.51C1024.79 1504.91 1035.52 1503.87 1043.61 1508.58L1053.48 1514.32C1059.16 1517.59 1066.73 1516.9 1074.76 1512.25L1212.97 1432.84C1216.47 1430.84 1219.34 1432.5 1219.34 1436.52C1219.34 1440.53 1216.47 1445.52 1212.97 1447.53L1074.76 1526.94C1063.29 1533.54 1052.56 1534.57 1044.47 1529.87L1034.55 1524.07Z" fill="#5793CE"/>
<path d="M966.734 1568.94L966.677 1585.98C966.677 1586.09 966.619 1586.21 966.619 1586.32C966.963 1585.23 967.136 1584.2 967.136 1583.17L967.193 1566.13C967.193 1565.67 967.25 1565.15 967.308 1564.63C967.021 1566.07 966.734 1567.56 966.734 1568.94Z" fill="white"/>
<path d="M822.135 1631.73L645.727 1529.81L844.594 1539.18L856.941 1551L859.628 1568.72L857.667 1580.76L851.748 1595.39L845.847 1606.85L839.22 1615.44L822.135 1631.73Z" fill="#173D7A"/>
<path d="M673.869 1436.89C673.561 1436.71 673.27 1436.53 672.943 1436.37L672.889 1436.33C665.844 1432.55 656.276 1433.24 645.727 1439.33L404.754 1578.47C405.771 1579.23 406.678 1580.16 407.532 1581.16L416.665 1575.89L465.433 1681.88L490.67 1716.34L507.138 1722.08L523.661 1715.63L603.822 1670.08L762.709 1579.21L820.991 1544.21L836.206 1539.38L849.896 1538.56L673.869 1436.89Z" fill="white"/>
<path d="M483.425 1695.88C483.425 1670.93 501.001 1640.5 522.607 1628.02V1632.33C503.053 1643.62 487.147 1671.17 487.147 1693.74C487.147 1716.31 503.053 1725.49 522.607 1714.2L822.153 1541.25C832.956 1535.02 842.742 1534.44 849.841 1538.52L673.887 1436.89C673.578 1436.71 673.288 1436.53 672.961 1436.37L672.906 1436.33C665.862 1432.55 656.293 1433.24 645.744 1439.33L404.771 1578.47C405.788 1579.23 406.696 1580.16 407.549 1581.18L416.682 1575.91L465.45 1681.9L485.622 1709.44C484.188 1705.58 483.425 1701.05 483.425 1695.88Z" fill="white"/>
<path d="M849.86 1538.54L849.823 1538.52C849.841 1538.52 849.86 1538.54 849.86 1538.54Z" fill="white"/>
<path d="M483.426 1693.48C483.426 1693.92 483.462 1694.32 483.48 1694.75C483.734 1682.3 488.255 1668.59 495.409 1656.48C495.082 1656.26 494.737 1656.06 494.41 1655.84C487.62 1667.88 483.426 1681.33 483.426 1693.48Z" fill="white"/>
<path d="M822.135 1538.87L522.589 1711.82C503.507 1722.84 487.892 1714.35 487.166 1692.92C487.166 1693.19 487.13 1693.46 487.13 1693.74C487.13 1716.31 503.035 1725.49 522.589 1714.2L822.135 1541.25C832.938 1535.02 842.725 1534.44 849.824 1538.52L841.308 1533.6C835.643 1533.18 829.107 1534.84 822.135 1538.87Z" fill="white"/>
<path d="M465.415 1679.48L416.646 1573.49L407.514 1578.76C407.151 1578.32 406.769 1577.91 406.37 1577.51L404.754 1578.45C405.771 1579.21 406.678 1580.14 407.532 1581.16L416.665 1575.89L465.433 1681.88L485.605 1709.43C485.169 1708.21 484.806 1706.88 484.497 1705.52L465.415 1679.48Z" fill="white"/>
<path d="M849.86 1536.16L849.823 1536.14C849.841 1536.14 849.86 1536.14 849.86 1536.16Z" fill="white"/>
<path d="M346.182 1526.1C324.575 1538.58 307 1569.01 307 1593.96C307 1606 311.103 1614.59 317.767 1618.85V1618.87L317.876 1618.93C318.275 1619.18 318.675 1619.42 319.092 1619.63L494.865 1721.21L484.098 1701.76L485.351 1682.33L488.746 1671.42L493.939 1659.78C493.939 1659.78 498.242 1651.81 498.496 1651.63C498.769 1651.45 504.851 1643.57 504.851 1643.57L510.77 1637.39L517.198 1633.27L522.554 1628.02L346.182 1526.1Z" fill="#5793CE"/>
<path d="M822.135 1631.73V1627.42C841.69 1616.13 857.595 1588.58 857.595 1566.01C857.595 1543.44 841.69 1534.25 822.135 1545.55L522.59 1718.5C500.984 1730.98 483.408 1720.83 483.408 1695.88C483.408 1670.93 500.984 1640.5 522.59 1628.02V1632.33C503.035 1643.62 487.13 1671.17 487.13 1693.74C487.13 1716.31 503.035 1725.49 522.59 1714.2L822.135 1541.25C843.742 1528.77 861.317 1538.92 861.317 1563.87C861.317 1588.8 843.742 1619.25 822.135 1631.73Z" fill="#173D7A"/>
<path d="M204.578 1417.97C203.777 1417.53 203.023 1417.09 202.174 1416.7L202.033 1416.61C183.743 1407.51 158.901 1409.17 131.513 1423.83L79 1451.97L152.82 1491.53C156.402 1493.45 159.608 1493.41 162.012 1491.88L252 1443.39L204.578 1417.97Z" fill="#787878" fill-opacity="0.4"/>
<path d="M377.662 1411.32L357.715 1399.82L431.197 1357.38C434.687 1355.36 434.687 1352.11 431.197 1350.12L356.129 1306.78C352.639 1304.75 347.008 1304.75 343.558 1306.78L270.076 1349.21L250.129 1337.71L323.611 1295.28C338.085 1286.91 361.601 1286.91 376.075 1295.28L451.144 1338.62C465.618 1346.99 465.618 1360.55 451.144 1368.92L377.662 1411.32Z" fill="#EA8246"/>
<path d="M409.825 1416.39C409.825 1405.72 403.361 1393.35 395.35 1388.75L262.226 1311.89C258.657 1309.83 255.366 1309.67 252.867 1311.1L93.8877 1403.46L247.593 1519.31L404.194 1428.41C404.67 1428.17 405.145 1427.93 405.582 1427.62C408.199 1425.59 409.825 1421.71 409.825 1416.39Z" fill="#D4ECFF"/>
<path d="M247.593 1519.27L404.194 1428.37C404.669 1428.13 405.145 1427.89 405.581 1427.58C408.199 1425.59 409.825 1421.71 409.825 1416.39C409.825 1411.32 408.318 1405.84 405.938 1401.01L227.408 1504.08L247.593 1519.27Z" fill="#173D7A"/>
<path d="M237.599 1518.87L104.474 1442.01C96.4639 1437.41 90 1425.04 90 1414.37C90 1403.7 96.4639 1398.82 104.474 1403.42L237.599 1480.28C245.609 1484.88 252.073 1497.26 252.073 1507.92C252.073 1518.59 245.569 1523.47 237.599 1518.87Z" fill="#5793CE"/>
<path d="M239.183 1479.53L106.059 1402.67C102.371 1400.57 99.0399 1400.45 96.502 1401.99C98.802 1401.28 101.538 1401.72 104.473 1403.38L237.597 1480.24C245.608 1484.84 252.071 1497.22 252.071 1507.88C252.071 1513.63 250.168 1517.68 247.154 1519.5C251.08 1518.31 253.658 1513.87 253.658 1507.17C253.658 1496.54 247.194 1484.17 239.183 1479.53Z" fill="white"/>
<path d="M217.651 1492.94L201.63 1483.7C200.044 1482.78 198.735 1480.32 198.735 1478.18C198.735 1476.04 200.044 1475.09 201.63 1476L217.651 1485.24C219.238 1486.15 220.546 1488.61 220.546 1490.75C220.546 1492.9 219.238 1493.85 217.651 1492.94Z" fill="white"/>
<path d="M235.694 1383.64C240.532 1380.78 240.493 1376.22 235.575 1373.48C230.698 1370.75 222.806 1370.83 217.968 1373.68C213.13 1376.54 213.17 1381.1 218.087 1383.84C223.004 1386.57 230.896 1386.49 235.694 1383.64Z" fill="#5793CE"/>
<path d="M262.502 1398.75C267.34 1395.89 267.3 1391.33 262.383 1388.59C257.505 1385.86 249.614 1385.94 244.776 1388.79C239.938 1391.65 239.977 1396.21 244.895 1398.94C249.812 1401.68 257.703 1401.6 262.502 1398.75Z" fill="white"/>
<path d="M289.308 1413.86C294.146 1411 294.106 1406.44 289.189 1403.71C284.311 1400.97 276.419 1401.05 271.581 1403.9C266.743 1406.76 266.783 1411.32 271.7 1414.06C276.618 1416.79 284.509 1416.71 289.308 1413.86Z" fill="white"/>
<path d="M2171.98 1033.46V983.471L2059.88 983.424L2021.13 961.051C2012.26 955.906 1996.69 956.567 1986.44 962.467L1950.29 983.33L1838.1 983.282V1034.68C1837.87 1038.18 1839.8 1041.53 1844.05 1043.98L1988.94 1127.67C1997.82 1132.81 2013.39 1132.15 2023.63 1126.25L2163.53 1045.45C2169.43 1042 2172.31 1037.56 2171.98 1033.46Z" fill="#396CAA"/>
<path d="M2004.99 957.557C1998.48 957.699 1991.73 959.351 1986.4 962.419L1950.24 983.282L1838.06 983.235V1034.64C1837.82 1038.13 1839.76 1041.48 1844 1043.93L1988.9 1127.62C1993.19 1130.08 1999 1131.21 2004.99 1131.07V957.557Z" fill="#396CAA"/>
<path d="M1850.75 983.282H1838.06V1034.68C1837.82 1038.18 1839.76 1041.53 1844 1043.98L1850.75 1047.85V983.282Z" fill="#5793CE"/>
<path d="M1991.12 1128.75C1998.81 1132.06 2009.9 1131.87 2018.87 1128.42V1070.04H1991.12V1128.75Z" fill="#5793CE"/>
<path d="M1988.9 1076.41L1844 992.723C1835.13 987.578 1836.22 978.61 1846.51 972.71L1986.4 891.902C1996.69 885.955 2012.21 885.341 2021.09 890.486L2165.98 974.173C2174.85 979.318 2173.77 988.286 2163.48 994.187L2023.59 1074.99C2013.3 1080.89 1997.77 1081.56 1988.9 1076.41Z" fill="#D4ECFF"/>
<path d="M2163.48 984.322L2023.59 1065.13C2013.3 1071.08 1997.77 1071.69 1988.9 1066.55L1844 982.859C1842.02 981.726 1840.56 980.357 1839.57 978.941C1836.5 983.85 1837.91 989.184 1844 992.724L1988.9 1076.41C1997.77 1081.56 2013.35 1080.9 2023.59 1075L2163.48 994.187C2171.46 989.562 2173.86 983.142 2170.42 978.092C2169.05 980.31 2166.74 982.481 2163.48 984.322Z" fill="white"/>
<path d="M2118.64 1046.63C2118.64 1050.36 2116 1054.89 2112.79 1056.77C2109.58 1058.66 2106.94 1057.11 2106.94 1053.38C2106.94 1049.65 2109.58 1045.12 2112.79 1043.23C2116.04 1041.39 2118.64 1042.9 2118.64 1046.63Z" fill="#EA8246"/>
<path d="M2137.47 1035.77C2137.47 1039.5 2134.83 1044.03 2131.62 1045.92C2128.41 1047.81 2125.77 1046.25 2125.77 1042.52C2125.77 1038.79 2128.41 1034.26 2131.62 1032.37C2134.88 1030.53 2137.47 1032.04 2137.47 1035.77Z" fill="#EA8246"/>
<path d="M2156.31 1024.92C2156.31 1028.64 2153.66 1033.18 2150.45 1035.06C2147.24 1036.95 2144.6 1035.39 2144.6 1031.67C2144.6 1027.94 2147.24 1023.41 2150.45 1021.52C2153.71 1019.68 2156.31 1021.19 2156.31 1024.92Z" fill="#D4ECFF"/>
<path d="M1997.44 1024.54L1929.62 985.406C1925.47 982.998 1925.99 978.798 1930.8 976.013L1996.26 938.205C2001.08 935.42 2008.34 935.137 2012.5 937.544L2080.32 976.674C2084.47 979.081 2083.95 983.282 2079.14 986.067L2013.68 1023.87C2008.91 1026.66 2001.64 1026.94 1997.44 1024.54Z" fill="#5793CE"/>
<path d="M2003.95 991.778L1994.56 986.35C1994 986.02 1994.04 985.454 1994.7 985.076L2003.77 979.837C2004.43 979.459 2005.42 979.412 2006.03 979.742L2015.42 985.17C2015.99 985.501 2015.94 986.067 2015.28 986.445L2006.22 991.684C2005.51 992.062 2004.52 992.109 2003.95 991.778Z" fill="#D4ECFF"/>
<path d="M1929.67 985.406L1929.86 985.5C1930.19 985.264 1930.47 985.028 1930.85 984.839L1996.31 947.031C2001.12 944.247 2008.39 943.963 2012.54 946.371L2080.18 985.406C2084 982.668 2084.24 978.939 2080.37 976.721L2012.54 937.591C2008.39 935.184 2001.12 935.467 1996.31 938.252L1930.85 976.06C1926.03 978.797 1925.51 982.998 1929.67 985.406Z" fill="#396CAA"/>
<path d="M681.861 1570.86L597.978 1523.51C594.637 1521.62 588.827 1521.93 584.996 1524.18L537.063 1552.52C533.25 1554.77 532.869 1558.13 536.209 1560.02L620.092 1607.38C623.433 1609.27 629.243 1608.96 633.074 1606.71L681.007 1578.36C684.82 1576.11 685.202 1572.75 681.861 1570.86Z" fill="#5793CE"/>
<path d="M618.021 1597.12L531.778 1548.53C530.071 1547.57 529.254 1546.26 529.218 1544.9L529.182 1544.93L529.091 1535.33C529.091 1535.33 532.123 1537.82 533.902 1539.27L587.645 1507.49C592.021 1504.91 598.666 1504.57 602.498 1506.71L684.928 1553.16L691.228 1549.44L691.337 1559.13L691.301 1559.1C691.283 1560.77 690.102 1562.51 687.76 1563.91L632.891 1596.36C628.498 1598.93 621.852 1599.28 618.021 1597.12Z" fill="#F75C03"/>
<path d="M688.596 1545.53L602.353 1496.94C598.522 1494.78 591.876 1495.13 587.501 1497.7L532.632 1530.15C528.256 1532.73 527.82 1536.58 531.651 1538.74L617.894 1587.33C621.725 1589.49 628.371 1589.15 632.746 1586.57L687.615 1554.12C691.991 1551.54 692.427 1547.69 688.596 1545.53Z" fill="#EA8246"/>
<path d="M617.913 1587.35L531.67 1538.76C529.491 1537.52 528.746 1535.76 529.255 1533.98C529.654 1534.82 530.362 1535.58 531.47 1536.22L617.713 1584.81C621.544 1586.97 628.19 1586.62 632.565 1584.04L687.434 1551.6C689.322 1550.49 690.43 1549.13 690.829 1547.78C691.828 1549.83 690.739 1552.3 687.634 1554.16L632.765 1586.6C628.389 1589.16 621.744 1589.51 617.913 1587.35Z" fill="white"/>
<path d="M598.14 1532.93C601.318 1531.06 601.282 1528.06 598.068 1526.25C594.854 1524.43 589.679 1524.49 586.502 1526.37C583.325 1528.24 583.361 1531.24 586.575 1533.06C589.77 1534.87 594.963 1534.82 598.14 1532.93Z" fill="white"/>
<path d="M609.94 1544.33C614.462 1544.28 618.106 1542.13 618.079 1539.52C618.052 1536.92 614.364 1534.84 609.842 1534.89C605.32 1534.94 601.676 1537.09 601.703 1539.69C601.731 1542.3 605.418 1544.38 609.94 1544.33Z" fill="white"/>
<path d="M627.568 1554.26C632.09 1554.22 635.734 1552.06 635.707 1549.46C635.68 1546.85 631.992 1544.78 627.47 1544.82C622.948 1544.87 619.304 1547.02 619.331 1549.63C619.358 1552.23 623.046 1554.31 627.568 1554.26Z" fill="white"/>
<path d="M568.508 1631.15L498.206 1590.16L493.794 1592.69L564.096 1633.67L568.508 1631.15Z" fill="#5793CE"/>
<path d="M566.548 1607.76L517.471 1579.14L513.059 1581.67L562.136 1610.28L566.548 1607.76Z" fill="#5793CE"/>
<path d="M550.296 1609.41L507.828 1584.64L503.435 1587.17L545.884 1611.94L550.296 1609.41Z" fill="#5793CE"/>
<path d="M578.131 1625.64L556.906 1613.26L552.494 1615.78L573.737 1628.17L578.131 1625.64Z" fill="#5793CE"/>
<path d="M732.588 1534.6L662.286 1493.6L657.874 1496.12L728.176 1537.13L732.588 1534.6Z" fill="#5793CE"/>
<path d="M730.627 1511.2L681.568 1482.58L677.156 1485.1L726.233 1513.72L730.627 1511.2Z" fill="#5793CE"/>
<path d="M714.377 1512.85L671.927 1488.1L667.515 1490.6L709.964 1515.37L714.377 1512.85Z" fill="#5793CE"/>
<path d="M742.229 1529.08L721.004 1516.71L716.592 1519.22L737.817 1531.6L742.229 1529.08Z" fill="#5793CE"/>
<defs>
<filter id="filter0_f" x="269.123" y="740.318" width="1654.29" height="1038.8" filterUnits="userSpaceOnUse" color-interpolation-filters="sRGB">
<feFlood flood-opacity="0" result="BackgroundImageFix"/>
<feBlend mode="normal" in="SourceGraphic" in2="BackgroundImageFix" result="shape"/>
<feGaussianBlur stdDeviation="50" result="effect1_foregroundBlur"/>
</filter>
<filter id="filter1_f" x="938.099" y="840.927" width="848.784" height="557.6" filterUnits="userSpaceOnUse" color-interpolation-filters="sRGB">
<feFlood flood-opacity="0" result="BackgroundImageFix"/>
<feBlend mode="normal" in="SourceGraphic" in2="BackgroundImageFix" result="shape"/>
<feGaussianBlur stdDeviation="40" result="effect1_foregroundBlur"/>
</filter>
<filter id="filter2_f" x="418.117" y="1140.16" width="848.784" height="557.6" filterUnits="userSpaceOnUse" color-interpolation-filters="sRGB">
<feFlood flood-opacity="0" result="BackgroundImageFix"/>
<feBlend mode="normal" in="SourceGraphic" in2="BackgroundImageFix" result="shape"/>
<feGaussianBlur stdDeviation="40" result="effect1_foregroundBlur"/>
</filter>
<linearGradient id="paint0_linear" x1="2256.82" y1="1123.45" x2="-83.2391" y2="1540.74" gradientUnits="userSpaceOnUse">
<stop stop-color="#B5B5B5"/>
<stop offset="1" stop-color="#C4C4C4"/>
</linearGradient>
<linearGradient id="paint1_linear" x1="2322.42" y1="1022.02" x2="0.00012687" y2="1502.16" gradientUnits="userSpaceOnUse">
<stop stop-color="#E5E5E5"/>
<stop offset="1" stop-color="#C4C4C4"/>
</linearGradient>
<radialGradient id="paint2_radial" cx="0" cy="0" r="1" gradientUnits="userSpaceOnUse" gradientTransform="translate(2781.41 876.018) scale(1446.93)">
<stop stop-color="#01C8EF"/>
<stop offset="0.0894" stop-color="#03BEE9"/>
<stop offset="0.2388" stop-color="#08A5D7"/>
<stop offset="0.4288" stop-color="#107BBB"/>
<stop offset="0.4457" stop-color="#1177B8"/>
<stop offset="1" stop-color="#112564"/>
</radialGradient>
<linearGradient id="paint3_linear" x1="855.808" y1="409.474" x2="1716.62" y2="570.828" gradientUnits="userSpaceOnUse">
<stop stop-color="#01C8EF"/>
<stop offset="0.0894" stop-color="#03BEE9"/>
<stop offset="0.2388" stop-color="#08A5D7"/>
<stop offset="0.4288" stop-color="#107BBB"/>
<stop offset="0.4457" stop-color="#1177B8"/>
<stop offset="1" stop-color="#172F78"/>
</linearGradient>
<linearGradient id="paint4_linear" x1="942.06" y1="120.174" x2="2158.24" y2="357.707" gradientUnits="userSpaceOnUse">
<stop stop-color="#01C8EF"/>
<stop offset="0.1383" stop-color="#02C5ED"/>
<stop offset="0.2455" stop-color="#04BBE6"/>
<stop offset="0.3423" stop-color="#07ABDB"/>
<stop offset="0.4324" stop-color="#0B94CB"/>
<stop offset="0.515" stop-color="#1177B8"/>
<stop offset="1" stop-color="#172F78"/>
</linearGradient>
<linearGradient id="paint5_linear" x1="1012.21" y1="172.785" x2="1012.5" y2="172.842" gradientUnits="userSpaceOnUse">
<stop stop-color="#01C8EF"/>
<stop offset="0.1383" stop-color="#02C5ED"/>
<stop offset="0.2455" stop-color="#04BBE6"/>
<stop offset="0.3423" stop-color="#07ABDB"/>
<stop offset="0.4324" stop-color="#0B94CB"/>
<stop offset="0.515" stop-color="#1177B8"/>
<stop offset="1" stop-color="#172F78"/>
</linearGradient>
<linearGradient id="paint6_linear" x1="1012.21" y1="162.432" x2="1012.5" y2="162.49" gradientUnits="userSpaceOnUse">
<stop stop-color="#01C8EF"/>
<stop offset="0.1383" stop-color="#02C5ED"/>
<stop offset="0.2455" stop-color="#04BBE6"/>
<stop offset="0.3423" stop-color="#07ABDB"/>
<stop offset="0.4324" stop-color="#0B94CB"/>
<stop offset="0.515" stop-color="#1177B8"/>
<stop offset="1" stop-color="#172F78"/>
</linearGradient>
<radialGradient id="paint7_radial" cx="0" cy="0" r="1" gradientUnits="userSpaceOnUse" gradientTransform="translate(2274.88 1182.93) scale(1443.34)">
<stop stop-color="#01C8EF"/>
<stop offset="0.0894" stop-color="#03BEE9"/>
<stop offset="0.2388" stop-color="#08A5D7"/>
<stop offset="0.4288" stop-color="#107BBB"/>
<stop offset="0.4457" stop-color="#1177B8"/>
<stop offset="1" stop-color="#112564"/>
</radialGradient>
<linearGradient id="paint8_linear" x1="354.06" y1="717.555" x2="1212.73" y2="878.509" gradientUnits="userSpaceOnUse">
<stop stop-color="#01C8EF"/>
<stop offset="0.0894" stop-color="#03BEE9"/>
<stop offset="0.2388" stop-color="#08A5D7"/>
<stop offset="0.4288" stop-color="#107BBB"/>
<stop offset="0.4457" stop-color="#1177B8"/>
<stop offset="1" stop-color="#172F78"/>
</linearGradient>
<linearGradient id="paint9_linear" x1="440.094" y1="428.967" x2="1653.26" y2="665.911" gradientUnits="userSpaceOnUse">
<stop stop-color="#CFFCF6"/>
<stop offset="0.3423" stop-color="#07ABDB"/>
<stop offset="0.4324" stop-color="#0B94CB"/>
<stop offset="0.515" stop-color="#1177B8"/>
<stop offset="1" stop-color="#172F78"/>
</linearGradient>
<linearGradient id="paint10_linear" x1="510.069" y1="481.45" x2="510.363" y2="481.508" gradientUnits="userSpaceOnUse">
<stop stop-color="#01C8EF"/>
<stop offset="0.1383" stop-color="#02C5ED"/>
<stop offset="0.2455" stop-color="#04BBE6"/>
<stop offset="0.3423" stop-color="#07ABDB"/>
<stop offset="0.4324" stop-color="#0B94CB"/>
<stop offset="0.515" stop-color="#1177B8"/>
<stop offset="1" stop-color="#172F78"/>
</linearGradient>
<linearGradient id="paint11_linear" x1="510.069" y1="471.125" x2="510.363" y2="471.183" gradientUnits="userSpaceOnUse">
<stop stop-color="#01C8EF"/>
<stop offset="0.1383" stop-color="#02C5ED"/>
<stop offset="0.2455" stop-color="#04BBE6"/>
<stop offset="0.3423" stop-color="#07ABDB"/>
<stop offset="0.4324" stop-color="#0B94CB"/>
<stop offset="0.515" stop-color="#1177B8"/>
<stop offset="1" stop-color="#172F78"/>
</linearGradient>
<radialGradient id="paint12_radial" cx="0" cy="0" r="1" gradientUnits="userSpaceOnUse" gradientTransform="translate(912.929 1276.08) scale(521.575 521.575)">
<stop stop-color="#01C8EF"/>
<stop offset="0.0894" stop-color="#03BEE9"/>
<stop offset="0.2388" stop-color="#08A5D7"/>
<stop offset="0.4288" stop-color="#107BBB"/>
<stop offset="0.4457" stop-color="#1177B8"/>
<stop offset="1" stop-color="#112564"/>
</radialGradient>
<radialGradient id="paint13_radial" cx="0" cy="0" r="1" gradientUnits="userSpaceOnUse" gradientTransform="translate(394.573 891.501) rotate(-30.0007) scale(285.013 285.017)">
<stop stop-color="#01C8EF"/>
<stop offset="0.1458" stop-color="#04A9D5"/>
<stop offset="0.4361" stop-color="#0A71A4"/>
<stop offset="0.6856" stop-color="#0E4881"/>
<stop offset="0.8816" stop-color="#102E6C"/>
<stop offset="1" stop-color="#112564"/>
</radialGradient>
<linearGradient id="paint14_linear" x1="366.101" y1="1094.95" x2="919.288" y2="1258.82" gradientUnits="userSpaceOnUse">
<stop stop-color="#01C8EF"/>
<stop offset="0.3058" stop-color="#01C6EE"/>
<stop offset="0.416" stop-color="#02BFE8"/>
<stop offset="0.4945" stop-color="#04B4DF"/>
<stop offset="0.558" stop-color="#06A3D2"/>
<stop offset="0.6123" stop-color="#0A8DC1"/>
<stop offset="0.6605" stop-color="#0D71AC"/>
<stop offset="0.703" stop-color="#125293"/>
<stop offset="0.7406" stop-color="#172F78"/>
</linearGradient>
<linearGradient id="paint15_linear" x1="397.074" y1="1163.92" x2="932.469" y2="1163.92" gradientUnits="userSpaceOnUse">
<stop stop-color="#01C8EF"/>
<stop offset="0.0894" stop-color="#03BEE9"/>
<stop offset="0.2388" stop-color="#08A5D7"/>
<stop offset="0.4288" stop-color="#107BBB"/>
<stop offset="0.4457" stop-color="#1177B8"/>
<stop offset="1" stop-color="#172F78"/>
</linearGradient>
<radialGradient id="paint16_radial" cx="0" cy="0" r="1" gradientUnits="userSpaceOnUse" gradientTransform="translate(643.446 636.828) scale(649.56 649.561)">
<stop stop-color="#01C8EF"/>
<stop offset="0.1458" stop-color="#04A9D5"/>
<stop offset="0.4361" stop-color="#0A71A4"/>
<stop offset="0.6856" stop-color="#0E4881"/>
<stop offset="0.8816" stop-color="#102E6C"/>
<stop offset="1" stop-color="#112564"/>
</radialGradient>
</defs>
</svg>
