<svg width="1200" height="936" viewBox="0 0 1200 936" fill="none" xmlns="http://www.w3.org/2000/svg">
<path opacity="0.15" d="M1200 674.564C1200.01 693.686 1197.75 712.718 1193.27 731.12C1188.95 748.86 1182.58 765.843 1174.35 781.61C1174.35 838.737 1141.14 888.109 1092.93 911.598C1072.79 921.315 1051.18 926.277 1029.37 926.194H289.859C250.334 926.194 213.706 913.811 183.667 892.716C175.07 886.707 166.914 879.884 159.284 872.317C125.896 838.999 105.196 792.956 105.196 742.101C86.4574 708.597 76.5216 669.485 76.6001 629.536C76.6001 545.887 119.209 473.96 180.249 442.204C188.355 437.99 196.73 434.513 205.3 431.805C208.331 430.848 211.395 429.989 214.491 429.228C222.746 427.187 231.119 425.853 239.542 425.237C242.586 425.017 245.647 424.892 248.724 424.861H250.413C253.81 424.861 257.179 424.998 260.527 425.226L261.627 423.06C262.976 420.445 264.357 417.856 265.771 415.295C268.324 410.627 271.002 406.028 273.804 401.498C276.737 396.716 279.797 392.011 282.985 387.381L283.8 386.241C285.607 383.626 287.453 381.042 289.339 378.487C295.231 370.513 301.45 362.779 307.997 355.283C378.808 274.691 489.744 222.809 614.457 222.809C711.497 222.809 800.201 254.223 868.145 306.127C893.885 289.214 922.962 280.339 952.537 280.369C1048.52 280.369 1126.35 372.011 1126.35 485.055C1126.34 492.208 1126.01 499.355 1125.37 506.469C1148.5 525.486 1167.36 550.685 1180.35 579.94C1193.34 609.196 1200.08 641.65 1200 674.564Z" fill="#3EE2DC"/>
<path d="M613.441 153.682L263.72 252.041L393.036 711.834L742.758 613.475L613.441 153.682Z" fill="url(#paint0_linear)"/>
<path d="M615.711 157.309L263.637 254.088L312.023 430.114L664.097 333.335L615.711 157.309Z" fill="url(#paint1_linear)"/>
<path d="M611.924 162.669L269.646 256.755L393.639 707.831L735.917 613.745L611.924 162.669Z" fill="#EEEEEE"/>
<path d="M612.196 162.133L269.129 256.436L316.387 428.359L659.454 334.055L612.196 162.133Z" fill="#42E7E1"/>
<path d="M494.938 431.448L401.876 457.03L403.826 464.125L496.888 438.544L494.938 431.448Z" fill="#BDBDBD"/>
<path d="M502.744 459.849L409.682 485.43L411.632 492.525L504.694 466.944L502.744 459.849Z" fill="#F5F5F5"/>
<path d="M648.692 404.46L405.782 471.232L407.733 478.327L650.642 411.556L648.692 404.46Z" fill="#69F0AE"/>
<path d="M407.916 276.09L314.854 301.671L316.805 308.766L409.867 283.185L407.916 276.09Z" fill="white"/>
<path d="M469.036 276.249L319.189 317.439L321.139 324.535L470.987 283.344L469.036 276.249Z" fill="white"/>
<path opacity="0.2" d="M442.948 305.485L356.56 329.232C354.717 329.738 353.634 331.643 354.141 333.486L354.473 334.696C354.98 336.539 356.884 337.622 358.728 337.115L445.115 313.369C446.958 312.862 448.042 310.958 447.535 309.115L447.203 307.905C446.696 306.062 444.791 304.978 442.948 305.485Z" fill="black"/>
<path d="M368.891 492.829C378.04 490.314 383.419 480.858 380.904 471.708C378.389 462.558 368.932 457.18 359.783 459.695C350.633 462.21 345.255 471.666 347.77 480.816C350.285 489.966 359.741 495.344 368.891 492.829Z" fill="#69F0AE"/>
<path d="M513.815 500.066L420.753 525.647L422.704 532.742L515.766 507.161L513.815 500.066Z" fill="#BDBDBD"/>
<path d="M521.61 528.466L428.548 554.047L430.499 561.142L523.561 535.561L521.61 528.466Z" fill="#F5F5F5"/>
<path d="M667.558 473.077L424.649 539.849L426.599 546.944L669.509 480.172L667.558 473.077Z" fill="#E0E0E0"/>
<path d="M387.747 561.448C396.896 558.933 402.275 549.477 399.759 540.327C397.244 531.178 387.788 525.799 378.639 528.314C369.489 530.829 364.111 540.286 366.626 549.435C369.141 558.585 378.597 563.963 387.747 561.448Z" fill="#E0E0E0"/>
<path d="M532.668 568.674L439.606 594.255L441.556 601.351L534.618 575.77L532.668 568.674Z" fill="#BDBDBD"/>
<path d="M540.474 597.064L447.412 622.645L449.363 629.74L542.425 604.159L540.474 597.064Z" fill="#F5F5F5"/>
<path d="M686.413 541.686L443.504 608.458L445.454 615.553L688.364 548.781L686.413 541.686Z" fill="#E0E0E0"/>
<path d="M406.612 630.066C415.762 627.551 421.141 618.095 418.625 608.945C416.11 599.795 406.654 594.417 397.505 596.932C388.355 599.447 382.977 608.903 385.492 618.053C388.007 627.202 397.463 632.581 406.612 630.066Z" fill="#E0E0E0"/>
<path d="M977.975 899.594H859.889V419.69H1080.4L977.975 899.594Z" fill="url(#paint2_linear)"/>
<path d="M972.094 899.594H856.338V419.69H1072.49L972.094 899.594Z" fill="#BDBDBD"/>
<path d="M999.7 270.479L637.436 308.875L687.915 785.158L1050.18 746.763L999.7 270.479Z" fill="url(#paint3_linear)"/>
<path d="M1000.07 269.989L636.971 308.473L656.212 490.011L1019.31 451.528L1000.07 269.989Z" fill="url(#paint4_linear)"/>
<path d="M995.459 274.655L642.462 312.068L691.767 777.269L1044.76 739.857L995.459 274.655Z" fill="#F5F5F5"/>
<path d="M995.816 274.173L642.006 311.672L660.798 488.978L1014.61 451.479L995.816 274.173Z" fill="#42E7E1"/>
<path d="M836.503 520.947L740.526 531.119L741.302 538.437L837.278 528.264L836.503 520.947Z" fill="#BDBDBD"/>
<path d="M839.605 550.228L743.629 560.4L744.404 567.718L840.381 557.545L839.605 550.228Z" fill="#F5F5F5"/>
<path d="M992.59 519.209L742.074 545.761L742.849 553.078L993.366 526.527L992.59 519.209Z" fill="#69F0AE"/>
<path d="M883.69 353.091L787.713 363.264L788.489 370.581L884.465 360.409L883.69 353.091Z" fill="white"/>
<path d="M943.969 363.156L789.429 379.535L790.205 386.853L944.745 370.474L943.969 363.156Z" fill="white"/>
<path opacity="0.2" d="M913.483 387.759L824.39 397.202C822.489 397.404 821.112 399.108 821.313 401.009L821.445 402.256C821.647 404.157 823.351 405.534 825.252 405.333L914.345 395.89C916.245 395.689 917.623 393.985 917.422 392.084L917.289 390.836C917.088 388.936 915.384 387.558 913.483 387.759Z" fill="black"/>
<path d="M702.166 561.098C711.602 560.098 718.441 551.638 717.441 542.201C716.441 532.765 707.981 525.926 698.544 526.927C689.108 527.927 682.269 536.387 683.27 545.823C684.27 555.259 692.73 562.098 702.166 561.098Z" fill="#69F0AE"/>
<path d="M844.008 591.702L748.031 601.874L748.807 609.192L844.783 599.02L844.008 591.702Z" fill="#BDBDBD"/>
<path d="M847.111 620.982L751.135 631.154L751.91 638.472L847.887 628.3L847.111 620.982Z" fill="#F5F5F5"/>
<path d="M1000.1 589.965L749.579 616.517L750.354 623.834L1000.87 597.283L1000.1 589.965Z" fill="#E0E0E0"/>
<path d="M709.671 631.853C719.107 630.853 725.946 622.393 724.946 612.957C723.946 603.521 715.486 596.682 706.049 597.682C696.613 598.682 689.774 607.142 690.775 616.578C691.775 626.015 700.235 632.853 709.671 631.853Z" fill="#E0E0E0"/>
<path d="M851.503 662.458L755.526 672.63L756.302 679.948L852.278 669.776L851.503 662.458Z" fill="#BDBDBD"/>
<path d="M854.605 691.738L758.628 701.91L759.404 709.228L855.38 699.056L854.605 691.738Z" fill="#F5F5F5"/>
<path d="M1007.59 660.722L757.074 687.273L757.849 694.591L1008.37 668.039L1007.59 660.722Z" fill="#E0E0E0"/>
<path d="M717.166 702.61C726.602 701.609 733.441 693.149 732.441 683.713C731.441 674.277 722.98 667.438 713.544 668.438C704.108 669.438 697.269 677.898 698.269 687.335C699.269 696.771 707.73 703.61 717.166 702.61Z" fill="#E0E0E0"/>
<path d="M667.197 395.509C668.209 404.121 671.566 412.291 676.902 419.126C682.239 425.962 689.35 431.2 697.46 434.271C705.57 437.342 714.368 438.127 722.893 436.54C731.419 434.954 739.345 431.056 745.807 425.274C752.27 419.491 757.02 412.045 759.54 403.747C762.06 395.449 762.254 386.619 760.099 378.219C757.945 369.819 753.525 362.172 747.322 356.112C741.12 350.052 733.372 345.811 724.924 343.852L726.357 355.971C726.829 360.179 725.622 364.403 722.999 367.726C720.376 371.05 716.548 373.205 712.346 373.724C708.124 374.21 703.881 373.006 700.544 370.375C697.207 367.743 695.048 363.898 694.537 359.679L693.103 347.56C684.375 351.913 677.202 358.855 672.566 367.436C667.929 376.018 666.054 385.822 667.197 395.509Z" fill="url(#paint5_linear)"/>
<path d="M760.877 380.577C759.96 371.956 756.694 363.753 751.436 356.86C746.177 349.968 739.127 344.651 731.054 341.49C722.981 338.329 714.195 337.445 705.655 338.934C697.114 340.422 689.146 344.227 682.619 349.934C676.092 355.64 671.257 363.028 668.64 371.294C666.024 379.559 665.727 388.384 667.781 396.807C669.835 405.229 674.162 412.927 680.291 419.059C686.419 425.191 694.113 429.524 702.534 431.584L701.246 419.454C700.81 415.226 702.065 410.998 704.736 407.692C707.408 404.387 711.279 402.273 715.504 401.813C719.732 401.377 723.961 402.632 727.266 405.303C730.571 407.975 732.685 411.846 733.145 416.072L734.433 428.202C743.205 423.948 750.451 417.093 755.184 408.57C759.916 400.047 761.905 390.272 760.877 380.577Z" fill="#42E7E1"/>
<path d="M715.05 397.183C725.046 396.124 732.29 387.162 731.231 377.166C730.171 367.17 721.209 359.925 711.213 360.985C701.217 362.044 693.973 371.006 695.032 381.002C696.092 390.998 705.054 398.243 715.05 397.183Z" fill="white" stroke="white" stroke-miterlimit="10"/>
<path d="M715.504 401.814C711.279 402.274 707.408 404.387 704.736 407.693C702.064 410.998 700.81 415.227 701.246 419.454L702.534 431.584C713.235 434.194 724.51 433.006 734.433 428.224L733.145 416.094C732.69 411.865 730.579 407.988 727.273 405.312C723.967 402.635 719.735 401.377 715.504 401.814Z" fill="white" stroke="white" stroke-miterlimit="10"/>
<path d="M694.761 380.017C693.01 377.364 692.008 374.288 691.86 371.113C691.733 367.921 692.858 364.806 694.996 362.433C697.393 359.902 700.888 358.725 704.315 358.087C707.742 357.449 711.225 357.292 714.586 356.172C717.337 355.305 719.888 353.9 722.091 352.039C724.295 350.178 726.107 347.897 727.421 345.33C728.043 347.94 728.303 350.623 728.194 353.305C728.131 354.647 727.795 355.962 727.205 357.17C726.616 358.377 725.786 359.452 724.767 360.327C727.376 358.759 727.399 361.772 727.007 363.631C728.541 365.132 731.879 365.054 732.282 367.171C732.791 369.261 732.791 371.442 732.282 373.532C731.655 375.582 732.921 378.953 730.804 379.323" fill="white"/>
<path d="M694.761 380.017C693.01 377.364 692.008 374.288 691.86 371.113C691.733 367.921 692.858 364.806 694.996 362.433C697.393 359.902 700.888 358.725 704.315 358.087C707.742 357.449 711.225 357.292 714.586 356.172C717.337 355.305 719.888 353.9 722.091 352.039C724.295 350.178 726.107 347.897 727.421 345.33C728.043 347.94 728.303 350.623 728.194 353.305C728.131 354.647 727.795 355.962 727.205 357.17C726.616 358.377 725.786 359.452 724.767 360.327C727.376 358.759 727.399 361.772 727.007 363.631C728.541 365.132 731.879 365.054 732.282 367.171C732.791 369.261 732.791 371.442 732.282 373.532C731.655 375.582 732.921 378.953 730.804 379.323" stroke="white" stroke-miterlimit="10"/>
<path d="M725.708 359.824C725.708 359.824 738.454 359.589 731.454 379.291L725.708 359.824Z" fill="white"/>
<path d="M874.684 100.053H510.391V579.005H874.684V100.053Z" fill="url(#paint6_linear)"/>
<path d="M875.099 99.6052H509.966V282.161H875.099V99.6052Z" fill="url(#paint7_linear)"/>
<path d="M870.025 103.76H515.051V571.568H870.025V103.76Z" fill="#F5F5F5"/>
<path d="M870.439 103.323H514.648V281.623H870.439V103.323Z" fill="#42E7E1"/>
<path d="M685.991 331.924H589.477V339.282H685.991V331.924Z" fill="#BDBDBD"/>
<path d="M685.991 361.369H589.477V368.728H685.991V361.369Z" fill="#F5F5F5"/>
<path d="M841.397 346.652H589.477V354.011H841.397V346.652Z" fill="#69F0AE"/>
<path d="M640.842 169.988H544.329V177.347H640.842V169.988Z" fill="white"/>
<path d="M699.734 186.342H544.329V193.7H699.734V186.342Z" fill="white"/>
<path opacity="0.2" d="M666.827 207.61H577.235C575.324 207.61 573.774 209.16 573.774 211.071V212.326C573.774 214.237 575.324 215.787 577.235 215.787H666.827C668.739 215.787 670.288 214.237 670.288 212.326V211.071C670.288 209.16 668.739 207.61 666.827 207.61Z" fill="black"/>
<path d="M548.182 357.696C557.671 357.696 565.363 350.003 565.363 340.514C565.363 331.025 557.671 323.333 548.182 323.333C538.693 323.333 531 331.025 531 340.514C531 350.003 538.693 357.696 548.182 357.696Z" fill="#69F0AE"/>
<path d="M685.991 403.08H589.477V410.438H685.991V403.08Z" fill="#BDBDBD"/>
<path d="M685.991 432.526H589.477V439.884H685.991V432.526Z" fill="#F5F5F5"/>
<path d="M841.397 417.808H589.477V425.166H841.397V417.808Z" fill="#E0E0E0"/>
<path d="M548.182 428.852C557.671 428.852 565.363 421.16 565.363 411.671C565.363 402.182 557.671 394.489 548.182 394.489C538.693 394.489 531 402.182 531 411.671C531 421.16 538.693 428.852 548.182 428.852Z" fill="#E0E0E0"/>
<path d="M685.991 474.248H589.477V481.606H685.991V474.248Z" fill="#BDBDBD"/>
<path d="M685.991 503.681H589.477V511.04H685.991V503.681Z" fill="#F5F5F5"/>
<path d="M841.397 488.964H589.477V496.323H841.397V488.964Z" fill="#E0E0E0"/>
<path d="M548.182 500.007C557.671 500.007 565.363 492.315 565.363 482.826C565.363 473.337 557.671 465.645 548.182 465.645C538.693 465.645 531 473.337 531 482.826C531 492.315 538.693 500.007 548.182 500.007Z" fill="#E0E0E0"/>
<path d="M477.115 440.926L397.402 385.114H287.033V440.926V468.266V935.311H976.821V440.926H477.115Z" fill="url(#paint8_linear)"/>
<path d="M292.935 446.571V473.116V926.475H972.094V446.571H480.094" fill="white"/>
<path d="M480.094 446.571L401.602 392.395H292.935V446.571" fill="#BDBDBD"/>
<defs>
<linearGradient id="paint0_linear" x1="567.892" y1="662.656" x2="438.575" y2="202.863" gradientUnits="userSpaceOnUse">
<stop stop-color="#808080" stop-opacity="0.25"/>
<stop offset="0.54" stop-color="#808080" stop-opacity="0.12"/>
<stop offset="1" stop-color="#808080" stop-opacity="0.1"/>
</linearGradient>
<linearGradient id="paint1_linear" x1="488.057" y1="381.713" x2="439.671" y2="205.687" gradientUnits="userSpaceOnUse">
<stop stop-color="#B3B3B3" stop-opacity="0.25"/>
<stop offset="0.54" stop-color="#B3B3B3" stop-opacity="0.1"/>
<stop offset="1" stop-color="#B3B3B3" stop-opacity="0.05"/>
</linearGradient>
<linearGradient id="paint2_linear" x1="139955" y1="343191" x2="139955" y2="137567" gradientUnits="userSpaceOnUse">
<stop stop-color="#808080" stop-opacity="0.25"/>
<stop offset="0.54" stop-color="#808080" stop-opacity="0.12"/>
<stop offset="1" stop-color="#808080" stop-opacity="0.1"/>
</linearGradient>
<linearGradient id="paint3_linear" x1="301746" y1="292391" x2="280160" y2="88722.5" gradientUnits="userSpaceOnUse">
<stop stop-color="#808080" stop-opacity="0.25"/>
<stop offset="0.54" stop-color="#808080" stop-opacity="0.12"/>
<stop offset="1" stop-color="#808080" stop-opacity="0.1"/>
</linearGradient>
<linearGradient id="paint4_linear" x1="276232" y1="45937.6" x2="273097" y2="16350.5" gradientUnits="userSpaceOnUse">
<stop stop-color="#B3B3B3" stop-opacity="0.25"/>
<stop offset="0.54" stop-color="#B3B3B3" stop-opacity="0.1"/>
<stop offset="1" stop-color="#B3B3B3" stop-opacity="0.05"/>
</linearGradient>
<linearGradient id="paint5_linear" x1="-60465.9" y1="-23268.8" x2="-61689" y2="-30897.5" gradientUnits="userSpaceOnUse">
<stop stop-opacity="0.12"/>
<stop offset="0.55" stop-opacity="0.09"/>
<stop offset="1" stop-opacity="0.02"/>
</linearGradient>
<linearGradient id="paint6_linear" x1="140005" y1="205106" x2="140005" y2="291.643" gradientUnits="userSpaceOnUse">
<stop stop-color="#808080" stop-opacity="0.25"/>
<stop offset="0.54" stop-color="#808080" stop-opacity="0.12"/>
<stop offset="1" stop-color="#808080" stop-opacity="0.1"/>
</linearGradient>
<linearGradient id="paint7_linear" x1="140327" y1="29854.3" x2="140327" y2="99.6052" gradientUnits="userSpaceOnUse">
<stop stop-color="#B3B3B3" stop-opacity="0.25"/>
<stop offset="0.54" stop-color="#B3B3B3" stop-opacity="0.1"/>
<stop offset="1" stop-color="#B3B3B3" stop-opacity="0.05"/>
</linearGradient>
<linearGradient id="paint8_linear" x1="227096" y1="410909" x2="227096" y2="140636" gradientUnits="userSpaceOnUse">
<stop stop-color="#808080" stop-opacity="0.25"/>
<stop offset="0.54" stop-color="#808080" stop-opacity="0.12"/>
<stop offset="1" stop-color="#808080" stop-opacity="0.1"/>
</linearGradient>
</defs>
</svg>
